<mxfile modified="2022-09-27T05:46:58.646Z" host="app.diagrams.net" agent="5.0 (Macintosh; Intel Mac OS X 10_15_7) AppleWebKit/537.36 (KHTML, like Gecko) Chrome/105.0.0.0 Safari/537.36" etag="oHosulMTD5JcTKwmq5DE" version="20.3.6" type="github">
  <diagram id="Ht1M8jgEwFfnCIfOTk4-" name="Page-1">
    <mxGraphModel dx="1395" dy="1696" grid="1" gridSize="10" guides="1" tooltips="1" connect="1" arrows="1" fold="1" page="1" pageScale="1" pageWidth="1169" pageHeight="827" math="0" shadow="0">
      <root>
        <mxCell id="0" />
        <mxCell id="1" parent="0" />
        <mxCell id="UEzPUAAOIrF-is8g5C7q-175" value="AWS Cloud" style="points=[[0,0],[0.25,0],[0.5,0],[0.75,0],[1,0],[1,0.25],[1,0.5],[1,0.75],[1,1],[0.75,1],[0.5,1],[0.25,1],[0,1],[0,0.75],[0,0.5],[0,0.25]];outlineConnect=0;gradientColor=none;html=1;whiteSpace=wrap;fontSize=12;fontStyle=0;shape=mxgraph.aws4.group;grIcon=mxgraph.aws4.group_aws_cloud_alt;strokeColor=#232F3E;fillColor=none;verticalAlign=top;align=left;spacingLeft=30;fontColor=#232F3E;dashed=0;labelBackgroundColor=#ffffff;container=1;pointerEvents=0;collapsible=0;recursiveResize=0;" parent="1" vertex="1">
          <mxGeometry x="40" y="-620" width="1090" height="610" as="geometry" />
        </mxCell>
        <mxCell id="xJq50svPVDuNathHTJY8-13" style="edgeStyle=orthogonalEdgeStyle;rounded=0;orthogonalLoop=1;jettySize=auto;html=1;exitX=0;exitY=0.5;exitDx=0;exitDy=0;exitPerimeter=0;entryX=0.5;entryY=0;entryDx=0;entryDy=0;entryPerimeter=0;" edge="1" parent="UEzPUAAOIrF-is8g5C7q-175" source="xJq50svPVDuNathHTJY8-1" target="xJq50svPVDuNathHTJY8-2">
          <mxGeometry relative="1" as="geometry" />
        </mxCell>
        <mxCell id="xJq50svPVDuNathHTJY8-20" style="edgeStyle=orthogonalEdgeStyle;rounded=0;orthogonalLoop=1;jettySize=auto;html=1;entryX=0.5;entryY=0;entryDx=0;entryDy=0;entryPerimeter=0;" edge="1" parent="UEzPUAAOIrF-is8g5C7q-175" source="xJq50svPVDuNathHTJY8-1" target="xJq50svPVDuNathHTJY8-11">
          <mxGeometry relative="1" as="geometry" />
        </mxCell>
        <mxCell id="xJq50svPVDuNathHTJY8-30" style="edgeStyle=orthogonalEdgeStyle;rounded=0;orthogonalLoop=1;jettySize=auto;html=1;entryX=0.5;entryY=0;entryDx=0;entryDy=0;entryPerimeter=0;" edge="1" parent="UEzPUAAOIrF-is8g5C7q-175" source="xJq50svPVDuNathHTJY8-1" target="xJq50svPVDuNathHTJY8-29">
          <mxGeometry relative="1" as="geometry" />
        </mxCell>
        <mxCell id="xJq50svPVDuNathHTJY8-44" style="edgeStyle=orthogonalEdgeStyle;rounded=0;orthogonalLoop=1;jettySize=auto;html=1;exitX=0.5;exitY=0;exitDx=0;exitDy=0;exitPerimeter=0;entryX=0;entryY=0.5;entryDx=0;entryDy=0;entryPerimeter=0;" edge="1" parent="UEzPUAAOIrF-is8g5C7q-175" target="xJq50svPVDuNathHTJY8-32">
          <mxGeometry relative="1" as="geometry">
            <mxPoint x="611.2500000000002" y="210" as="sourcePoint" />
            <mxPoint x="744" y="150.25" as="targetPoint" />
            <Array as="points">
              <mxPoint x="611" y="150" />
            </Array>
          </mxGeometry>
        </mxCell>
        <mxCell id="xJq50svPVDuNathHTJY8-45" value="API Authorization" style="edgeLabel;html=1;align=center;verticalAlign=middle;resizable=0;points=[];" vertex="1" connectable="0" parent="xJq50svPVDuNathHTJY8-44">
          <mxGeometry x="-0.2386" y="-2" relative="1" as="geometry">
            <mxPoint x="47" y="-2" as="offset" />
          </mxGeometry>
        </mxCell>
        <mxCell id="xJq50svPVDuNathHTJY8-1" value="API Gateway" style="sketch=0;points=[[0,0,0],[0.25,0,0],[0.5,0,0],[0.75,0,0],[1,0,0],[0,1,0],[0.25,1,0],[0.5,1,0],[0.75,1,0],[1,1,0],[0,0.25,0],[0,0.5,0],[0,0.75,0],[1,0.25,0],[1,0.5,0],[1,0.75,0]];outlineConnect=0;fontColor=#232F3E;gradientColor=#FF4F8B;gradientDirection=north;fillColor=#BC1356;strokeColor=#ffffff;dashed=0;verticalLabelPosition=bottom;verticalAlign=top;align=center;html=1;fontSize=12;fontStyle=0;aspect=fixed;shape=mxgraph.aws4.resourceIcon;resIcon=mxgraph.aws4.api_gateway;" vertex="1" parent="UEzPUAAOIrF-is8g5C7q-175">
          <mxGeometry x="579" y="210" width="40.5" height="40.5" as="geometry" />
        </mxCell>
        <mxCell id="xJq50svPVDuNathHTJY8-14" style="edgeStyle=orthogonalEdgeStyle;rounded=0;orthogonalLoop=1;jettySize=auto;html=1;exitX=1;exitY=0.5;exitDx=0;exitDy=0;exitPerimeter=0;entryX=0;entryY=0.5;entryDx=0;entryDy=0;entryPerimeter=0;" edge="1" parent="UEzPUAAOIrF-is8g5C7q-175" source="xJq50svPVDuNathHTJY8-2" target="xJq50svPVDuNathHTJY8-3">
          <mxGeometry relative="1" as="geometry" />
        </mxCell>
        <mxCell id="xJq50svPVDuNathHTJY8-47" value="Write to a queue" style="edgeLabel;html=1;align=center;verticalAlign=middle;resizable=0;points=[];" vertex="1" connectable="0" parent="xJq50svPVDuNathHTJY8-14">
          <mxGeometry x="-0.1765" y="2" relative="1" as="geometry">
            <mxPoint y="2" as="offset" />
          </mxGeometry>
        </mxCell>
        <mxCell id="xJq50svPVDuNathHTJY8-2" value="Producer" style="outlineConnect=0;dashed=0;verticalLabelPosition=bottom;verticalAlign=top;align=center;html=1;shape=mxgraph.aws3.lambda_function;fillColor=#F58534;gradientColor=none;" vertex="1" parent="UEzPUAAOIrF-is8g5C7q-175">
          <mxGeometry x="30" y="469" width="40.5" height="40.5" as="geometry" />
        </mxCell>
        <mxCell id="xJq50svPVDuNathHTJY8-15" style="edgeStyle=orthogonalEdgeStyle;rounded=0;orthogonalLoop=1;jettySize=auto;html=1;exitX=1;exitY=0.5;exitDx=0;exitDy=0;exitPerimeter=0;entryX=0;entryY=0.5;entryDx=0;entryDy=0;entryPerimeter=0;" edge="1" parent="UEzPUAAOIrF-is8g5C7q-175" source="xJq50svPVDuNathHTJY8-3" target="xJq50svPVDuNathHTJY8-4">
          <mxGeometry relative="1" as="geometry" />
        </mxCell>
        <mxCell id="xJq50svPVDuNathHTJY8-48" value="Read from queue" style="edgeLabel;html=1;align=center;verticalAlign=middle;resizable=0;points=[];" vertex="1" connectable="0" parent="xJq50svPVDuNathHTJY8-15">
          <mxGeometry x="-0.2582" y="2" relative="1" as="geometry">
            <mxPoint x="12" y="2" as="offset" />
          </mxGeometry>
        </mxCell>
        <mxCell id="xJq50svPVDuNathHTJY8-3" value="SQS" style="sketch=0;points=[[0,0,0],[0.25,0,0],[0.5,0,0],[0.75,0,0],[1,0,0],[0,1,0],[0.25,1,0],[0.5,1,0],[0.75,1,0],[1,1,0],[0,0.25,0],[0,0.5,0],[0,0.75,0],[1,0.25,0],[1,0.5,0],[1,0.75,0]];outlineConnect=0;fontColor=#232F3E;gradientColor=#FF4F8B;gradientDirection=north;fillColor=#BC1356;strokeColor=#ffffff;dashed=0;verticalLabelPosition=bottom;verticalAlign=top;align=center;html=1;fontSize=12;fontStyle=0;aspect=fixed;shape=mxgraph.aws4.resourceIcon;resIcon=mxgraph.aws4.sqs;" vertex="1" parent="UEzPUAAOIrF-is8g5C7q-175">
          <mxGeometry x="210" y="469" width="40.5" height="40.5" as="geometry" />
        </mxCell>
        <mxCell id="xJq50svPVDuNathHTJY8-16" style="edgeStyle=orthogonalEdgeStyle;rounded=0;orthogonalLoop=1;jettySize=auto;html=1;exitX=1;exitY=0.5;exitDx=0;exitDy=0;exitPerimeter=0;entryX=0;entryY=0.5;entryDx=0;entryDy=0;entryPerimeter=0;" edge="1" parent="UEzPUAAOIrF-is8g5C7q-175" source="xJq50svPVDuNathHTJY8-4" target="xJq50svPVDuNathHTJY8-7">
          <mxGeometry relative="1" as="geometry" />
        </mxCell>
        <mxCell id="xJq50svPVDuNathHTJY8-50" value="Create or&lt;br&gt;update item" style="edgeLabel;html=1;align=center;verticalAlign=middle;resizable=0;points=[];" vertex="1" connectable="0" parent="xJq50svPVDuNathHTJY8-16">
          <mxGeometry x="-0.1174" y="1" relative="1" as="geometry">
            <mxPoint x="-20" y="1" as="offset" />
          </mxGeometry>
        </mxCell>
        <mxCell id="xJq50svPVDuNathHTJY8-4" value="Consumer" style="outlineConnect=0;dashed=0;verticalLabelPosition=bottom;verticalAlign=top;align=center;html=1;shape=mxgraph.aws3.lambda_function;fillColor=#F58534;gradientColor=none;" vertex="1" parent="UEzPUAAOIrF-is8g5C7q-175">
          <mxGeometry x="380" y="470" width="40.5" height="40.5" as="geometry" />
        </mxCell>
        <mxCell id="xJq50svPVDuNathHTJY8-7" value="DynamoDB" style="sketch=0;points=[[0,0,0],[0.25,0,0],[0.5,0,0],[0.75,0,0],[1,0,0],[0,1,0],[0.25,1,0],[0.5,1,0],[0.75,1,0],[1,1,0],[0,0.25,0],[0,0.5,0],[0,0.75,0],[1,0.25,0],[1,0.5,0],[1,0.75,0]];outlineConnect=0;fontColor=#232F3E;gradientColor=#4D72F3;gradientDirection=north;fillColor=#3334B9;strokeColor=#ffffff;dashed=0;verticalLabelPosition=bottom;verticalAlign=top;align=center;html=1;fontSize=12;fontStyle=0;aspect=fixed;shape=mxgraph.aws4.resourceIcon;resIcon=mxgraph.aws4.dynamodb;" vertex="1" parent="UEzPUAAOIrF-is8g5C7q-175">
          <mxGeometry x="579" y="470" width="40.5" height="40.5" as="geometry" />
        </mxCell>
        <mxCell id="xJq50svPVDuNathHTJY8-21" style="edgeStyle=orthogonalEdgeStyle;rounded=0;orthogonalLoop=1;jettySize=auto;html=1;entryX=0.5;entryY=0;entryDx=0;entryDy=0;entryPerimeter=0;" edge="1" parent="UEzPUAAOIrF-is8g5C7q-175" source="xJq50svPVDuNathHTJY8-11" target="xJq50svPVDuNathHTJY8-7">
          <mxGeometry relative="1" as="geometry" />
        </mxCell>
        <mxCell id="xJq50svPVDuNathHTJY8-46" value="Get course list" style="edgeLabel;html=1;align=center;verticalAlign=middle;resizable=0;points=[];" vertex="1" connectable="0" parent="xJq50svPVDuNathHTJY8-21">
          <mxGeometry x="-0.1215" y="1" relative="1" as="geometry">
            <mxPoint as="offset" />
          </mxGeometry>
        </mxCell>
        <mxCell id="xJq50svPVDuNathHTJY8-11" value="" style="outlineConnect=0;dashed=0;verticalLabelPosition=bottom;verticalAlign=top;align=center;html=1;shape=mxgraph.aws3.lambda_function;fillColor=#F58534;gradientColor=none;rotation=0;" vertex="1" parent="UEzPUAAOIrF-is8g5C7q-175">
          <mxGeometry x="579" y="320" width="40.5" height="40.5" as="geometry" />
        </mxCell>
        <mxCell id="xJq50svPVDuNathHTJY8-26" style="edgeStyle=orthogonalEdgeStyle;rounded=0;orthogonalLoop=1;jettySize=auto;html=1;entryX=0.25;entryY=0;entryDx=0;entryDy=0;entryPerimeter=0;exitX=0;exitY=0.5;exitDx=0;exitDy=0;exitPerimeter=0;" edge="1" parent="UEzPUAAOIrF-is8g5C7q-175" source="xJq50svPVDuNathHTJY8-24" target="xJq50svPVDuNathHTJY8-1">
          <mxGeometry relative="1" as="geometry">
            <mxPoint x="640" y="40" as="sourcePoint" />
            <mxPoint x="567.2500000000002" y="210" as="targetPoint" />
          </mxGeometry>
        </mxCell>
        <mxCell id="xJq50svPVDuNathHTJY8-27" style="edgeStyle=orthogonalEdgeStyle;rounded=0;orthogonalLoop=1;jettySize=auto;html=1;entryX=0;entryY=0.5;entryDx=0;entryDy=0;entryPerimeter=0;exitX=1;exitY=0.5;exitDx=0;exitDy=0;exitPerimeter=0;" edge="1" parent="UEzPUAAOIrF-is8g5C7q-175" source="xJq50svPVDuNathHTJY8-24" target="xJq50svPVDuNathHTJY8-25">
          <mxGeometry relative="1" as="geometry">
            <mxPoint x="680.5" y="65.29411764705878" as="sourcePoint" />
            <Array as="points">
              <mxPoint x="670" y="40" />
              <mxPoint x="670" y="81" />
            </Array>
          </mxGeometry>
        </mxCell>
        <mxCell id="xJq50svPVDuNathHTJY8-24" value="CloudFront" style="sketch=0;points=[[0,0,0],[0.25,0,0],[0.5,0,0],[0.75,0,0],[1,0,0],[0,1,0],[0.25,1,0],[0.5,1,0],[0.75,1,0],[1,1,0],[0,0.25,0],[0,0.5,0],[0,0.75,0],[1,0.25,0],[1,0.5,0],[1,0.75,0]];outlineConnect=0;fontColor=#232F3E;gradientColor=#945DF2;gradientDirection=north;fillColor=#5A30B5;strokeColor=#ffffff;dashed=0;verticalLabelPosition=bottom;verticalAlign=top;align=center;html=1;fontSize=12;fontStyle=0;aspect=fixed;shape=mxgraph.aws4.resourceIcon;resIcon=mxgraph.aws4.cloudfront;rotation=0;" vertex="1" parent="UEzPUAAOIrF-is8g5C7q-175">
          <mxGeometry x="650" y="20" width="40.5" height="40.5" as="geometry" />
        </mxCell>
        <mxCell id="xJq50svPVDuNathHTJY8-25" value="S3 static website" style="sketch=0;points=[[0,0,0],[0.25,0,0],[0.5,0,0],[0.75,0,0],[1,0,0],[0,1,0],[0.25,1,0],[0.5,1,0],[0.75,1,0],[1,1,0],[0,0.25,0],[0,0.5,0],[0,0.75,0],[1,0.25,0],[1,0.5,0],[1,0.75,0]];outlineConnect=0;fontColor=#232F3E;gradientColor=#60A337;gradientDirection=north;fillColor=#277116;strokeColor=#ffffff;dashed=0;verticalLabelPosition=bottom;verticalAlign=top;align=center;html=1;fontSize=12;fontStyle=0;aspect=fixed;shape=mxgraph.aws4.resourceIcon;resIcon=mxgraph.aws4.s3;rotation=0;" vertex="1" parent="UEzPUAAOIrF-is8g5C7q-175">
          <mxGeometry x="910" y="60.5" width="40.5" height="40.5" as="geometry" />
        </mxCell>
        <mxCell id="xJq50svPVDuNathHTJY8-64" style="edgeStyle=orthogonalEdgeStyle;rounded=0;orthogonalLoop=1;jettySize=auto;html=1;entryX=1;entryY=0.5;entryDx=0;entryDy=0;entryPerimeter=0;exitX=1;exitY=0.5;exitDx=0;exitDy=0;exitPerimeter=0;" edge="1" parent="UEzPUAAOIrF-is8g5C7q-175" source="xJq50svPVDuNathHTJY8-29" target="xJq50svPVDuNathHTJY8-7">
          <mxGeometry relative="1" as="geometry">
            <Array as="points">
              <mxPoint x="800" y="340" />
              <mxPoint x="800" y="490" />
            </Array>
          </mxGeometry>
        </mxCell>
        <mxCell id="xJq50svPVDuNathHTJY8-66" value="Search" style="edgeLabel;html=1;align=center;verticalAlign=middle;resizable=0;points=[];" vertex="1" connectable="0" parent="xJq50svPVDuNathHTJY8-64">
          <mxGeometry x="-0.3434" y="2" relative="1" as="geometry">
            <mxPoint as="offset" />
          </mxGeometry>
        </mxCell>
        <mxCell id="xJq50svPVDuNathHTJY8-29" value="" style="outlineConnect=0;dashed=0;verticalLabelPosition=bottom;verticalAlign=top;align=center;html=1;shape=mxgraph.aws3.lambda_function;fillColor=#F58534;gradientColor=none;rotation=0;" vertex="1" parent="UEzPUAAOIrF-is8g5C7q-175">
          <mxGeometry x="680.5" y="320" width="40.5" height="40.5" as="geometry" />
        </mxCell>
        <mxCell id="xJq50svPVDuNathHTJY8-32" value="Cognito" style="sketch=0;points=[[0,0,0],[0.25,0,0],[0.5,0,0],[0.75,0,0],[1,0,0],[0,1,0],[0.25,1,0],[0.5,1,0],[0.75,1,0],[1,1,0],[0,0.25,0],[0,0.5,0],[0,0.75,0],[1,0.25,0],[1,0.5,0],[1,0.75,0]];outlineConnect=0;fontColor=#232F3E;gradientColor=#F54749;gradientDirection=north;fillColor=#C7131F;strokeColor=#ffffff;dashed=0;verticalLabelPosition=bottom;verticalAlign=top;align=center;html=1;fontSize=12;fontStyle=0;aspect=fixed;shape=mxgraph.aws4.resourceIcon;resIcon=mxgraph.aws4.cognito;rotation=0;" vertex="1" parent="UEzPUAAOIrF-is8g5C7q-175">
          <mxGeometry x="721" y="130" width="40.5" height="40.5" as="geometry" />
        </mxCell>
        <mxCell id="xJq50svPVDuNathHTJY8-28" style="edgeStyle=orthogonalEdgeStyle;rounded=0;orthogonalLoop=1;jettySize=auto;html=1;entryX=0.5;entryY=0;entryDx=0;entryDy=0;entryPerimeter=0;" edge="1" parent="1" source="xJq50svPVDuNathHTJY8-22" target="xJq50svPVDuNathHTJY8-24">
          <mxGeometry relative="1" as="geometry" />
        </mxCell>
        <mxCell id="xJq50svPVDuNathHTJY8-38" value="Webhook" style="edgeLabel;html=1;align=center;verticalAlign=middle;resizable=0;points=[];" vertex="1" connectable="0" parent="xJq50svPVDuNathHTJY8-28">
          <mxGeometry x="0.1304" y="-1" relative="1" as="geometry">
            <mxPoint x="-56" as="offset" />
          </mxGeometry>
        </mxCell>
        <mxCell id="xJq50svPVDuNathHTJY8-22" value="Headless CMS" style="shape=image;verticalLabelPosition=bottom;labelBackgroundColor=default;verticalAlign=top;aspect=fixed;imageAspect=0;image=data:image/png,iVBORw0KGgoAAAANSUhEUgAAAgAAAAIACAYAAAD0eNT6AAAABHNCSVQICAgIfAhkiAAAAAlwSFlzAAAOxAAADsQBlSsOGwAAABl0RVh0U29mdHdhcmUAd3d3Lmlua3NjYXBlLm9yZ5vuPBoAACAASURBVHic7N13YBRl3gfw78yWbDab3klCElpIpQYIhBhAQEBBEEQFBRQVC4feeZ76nhV7xX6iAnZFEBClS+8tQBJIIJX03su2mfePGEVkZ3aT3dlN8vv8894xT2Z+7yW7z2+e8nsAQgghhBBCCCGEEEIIIYQQQgghhBBCCCGEEEIIIYQQQgghhBBCCCGEEEIIIYQQQgghhBBCCCGEEEIIIYQQQgghhBBCCCGEEEIIIYQQQgghhBBCCCGEEEIIIYQQQgghhBBCCCGEEEIIIaSbYOwdACHkT1P6LXWqdWoYxzIYygMBPBh/FrxdPqccGJ4BX8YApRzPnKpH45709B919oiFEGJ9lAAQ4gASY+/uYwT3DMNjFgBXe8djQj14/CSXGV/Yf+6rXHsHQwjpHEoACLGjYcPuU6i02pd5MP8AoLR3PGbSgWFWaJWK/546tVJv72AIIR1DCQAhdpIQfY8Xwxp/BI/x9o6lQ3gcgMw4+/C5r8rtHQohxHKUABBiB3Fxd7poONlBAIPtHUunMEyKVqlIPHVqZbO9QyGEWIa1dwCE9ECMCyf7El298wcAnh+i0urWgF4mCOlyKAEgRGKjoxfOZYBZ9o7DWnhgzujoRbfYOw5CiGUoaydEQsOG3adw0mrPA0w/e8diZTl1fFMkbRMkpOuQ2zsAQnoSlVZ3E29G5x/p4YrkAF/4OztJEZZJpS1a7C2pQEZdg1jTPm6sy1QAGyUIixBiBZQAECIpZgbAm74KBkuj+mBWaJCEMQmbGx6EH/OK8PGFXPBCsXOYAUoACOkyaA0AIRLiwU8Wuj47rJdDdf5AW1Jya1gwbg4NFG7IYpI0ERFCrIESAEIkkhy2UAXAz9R1Fgxu79NbwogsM79Pb7BCq4Z4BE7pt9S+cxaEELNRAkCIRAyubC8ILLwNUKvg5aSQMCLLeKuU8FUJ9u9MjaZBZJiAEOIoKAEgRCJGcC5C151ljv9xVMtkgtcZo8OeY0AIuYrjf+MQQgghxOooASCEEEJ6INoGSAixmhfeWvJmdOxrdQDAg+dZoIxnUAqOOVVTU7knOjqaCgUR4iAoASCEWI1Go5rUXueAwe//iQfA8PD08q4vKin7ScbwLwQEBOTaMUxCCGgKgBAiHTcG/EKOR0ZJSdlrPM877pYHQnoASgAIIVJT8uAfLykt/a20tNRkXQRCiG1RAkAIsRNmLMfz24qLi9X2joSQnogSAEKIHTFDwMjW8DxPJ5MSIjFKAAghdsbPKS0tvcXeURDS01ACQAixOx7Ma+np6Up7x0FIT0IJACHEEfTx9PSZau8gCOlJKAEghDgEnsEMe8dASE9CCQAhxCGw4CfZOwZCehJKAAghDoEHAi9duiR43jAhxHooASCEOApGo9EE2jsIQnoKSgAIIQ6DYRhXe8dASE9BhwERSSXELhwInrmR5fkhPIMgAK7gUQOGLwHPHAEn+/Xwhc/z7R2ntcXF3enC8Mzw9oNyuquci0UI6OUNJ6fuV+Y/OfpBjZZtvh48P4LhmUCwjBfDo5YDX8aCP8kw+p0HU7+tsXechJiLqm8RSYyOWTANDLscPD/EjOb7OJ7/v6PpXxyyeWA2kpAwx5lvdB3D8nwyAz6ZB0YAEOwV+7q64PPEYRJF2DGLDpxEbmOzYBu5XIZ+ESGIGdwH0YP6ICI6FEqleQkByyAuICAg1RqxWsvY6EVRBgbPMuBnABBYo8AbAGY7z3MvHEn/8rhkARLSQZQAEJsaO2SRr1HHfwcGEyz+YYb/rpHh7j137qsmG4RmdSPjFgezvHEaw3M3AswEAM6W/Hx3SQCu5uSkQMzQfhg+aiCGjRwIL293k20dKQFIDluo0muwggfuhYXTpTyYtTonxX2nTq2ss1F4hHQaJQDEZkbG3BUn49lNYBDWiduchVE2w1GnBcbE3R0B3jiXB3szeH4wOvGZ6q4JwJUYhkF430DEJ0YjMTkOgUG+f7nuKAlAYvRdvTmG/QlAZ34hl8DKZh0+93mateIixJooASA2kRB11xCGZXcB8Or83fhCnpePO5L+eVbn79V5idF39TYy7EwWmMMDY6x13wRfL7wyPMZat7OJx0+m4niF9aa5g0P9MDopDkkThiAgyNshEoDRkfeEgjXu7WTi2q6W57nJNCVAHBElAMTqEmMXDON4ZicATyvetgDgxx1O+yLbivc0W0LCHGfUq+cwYBaDQSJs8NlZFtUPM0N7Wfu2VvVTfhHeO2/9XwHDMIiKDQPH46nzeWkrjhz5scXqDzFDYuzdfTie2wsgxIq3rWEZfuLB1C9OWfGehHQaJQDEqmzU+beTPAkYHb1wMMNiMc9jHgAPWz1nqLcHXo+PhZxx7I+kgefx7xOpSKmqteVjanme/5oB8/nh9DVnbPmgK9mo829HSQBxOI79bUO6FBt3/u1sngTMmTNHVnReMxMMtwxgEm31HJYBwl1dMDnIHzN794KC7RplOfQcjw2Xi7CjqBw5DY3gbLmzkccBhsGKXpFNm3788UejrR5j486/HSUBxKFQAkCswpLOX8YAk4MCcF2gDzyVCpS3aLG9uBwHS6vAm7dPvoBl2OSDqatyOh34FYYNu8/dSatdDJ552Erzv3/hLGcR5e6OGA9XRHm5IdrDDRp51y7F0Wgw4nxNPdJr65FeU4fzdQ1oNli/n+aBXJZn3jdodZ8fy/qm3pr3tqTzZ8BgtJ8Xru/lBz9nJ1S16rC/tBK7S8vNTYQoCSAOgxIA0mmWdP5quQzLh0ZhmPffm+4qKcerZzNh4KVNApIH3OejU+oeBfAwALfO3q8dCwYRHhqM8PHCCF9PRHq4gu3mHzkOPC7UNuBERQ2OV9Ygo7YBnHWLH9WB4d836PkVxzO+rOrszSzp/BUsiyfjBmB8oN/frp2srMEzKefNTX4oCSAOoXt/GxGbs7Tzf214DGI9Te8DP1BaiefPXJAkCRgdd6cfz8keY8A/ADCajtzjahq5DKP9fZDg64Wh3h5wN7MATndVrzfgdFUNDpdX43BZJRqtNzrQAB4fyZTMWwdSVld05AaWdv7PD47EaH9vk21Sa+rwn5NplASQLoMSANJh1u7829k6CUiMvcOTg9MT4PmHAajN/TlTNHI5xvh747oAX8T7eELB0sfqWvQcjxOVNdhXVoFDpVVoNBg6fU8eaGJ4fKBU4NW9Z9aYvTLR2p1/O0oCSFdC31SkQ2zV+bezMAm4zDLsOLEkIDlsoUqrYR5mwD+JTtYnkDMMEvy9MSUoAPE+Hl1mAZ+j0HMcTlTWYmthKY6UV5n7exZSBQYvu7e4frg1632tUENbdf7tKAkgXQUlAMRitu7821kxCWBGxyycD+BFAL0tDuQKvV3UmBoSgMlBfvBUKjtzK/K7aq0eO4rLsKWgFJebOl5lEADAI49h+f8eSv3iW1zj5CVbd/7tKAkgXQElAMQiUnX+7TqbBPxekfADAKM7GoOMAcb6++KW0CDEelltjSC5htTqeqzPL8KBsgoYOzEowACHGJ596GD6qrPt/yZV59+OkgDi6CgBIGb7vTPdCUD0W1Elk+HV4TEY7NXxzr/dkYpqPHM6HXrz9lkVAPw4pZyp0hmY5wH+IQCyjjxXLZdhSlAAbg0Phr+zwCFwxOqqtDpsvlyCn/KLUK/v8FoBDsA3BgP3qJxRaMwt76tgWTw7eCAS/X06+tw/pNXU4z8n09Bk3nqHOp7nJlHZYCIVSgCIWaR+87+aZSMBfCHAKAH8fb+WGXxVTpgbHoypwQFQyzuUOxAraTYYsaWwFD/kFqKiVXBqX0g5AD2AILGG1njzvxqNBBBHRQkAEWWvN/+rWTgSYDFPpRJzwoMwOzQIShkt6nMkeo7DtqIyfJmVj4pWnU2eYc03/6tZMhIgY9lGg9EwgUYCiK1RAkAEOUrn384WSUB7x39LWC84sfTG78jaE4EvLl1GpbbDIwJ/Y8vOv50lSYCTk0If0Mv7hu82v7rbZgGRHo++7YhJibELhoEx70hftVyG1+NjMMiGnT8AhLg4I1zjggNlleA6eS+1XIaF/cPw7OBIDPb2gJyht35HJ2MYRLi7YkZoIJxlcmTUNXQ6GWwf9h9jw84fAPycnRDn5YZ9pZWiMRuNnEyvM9y5cME9GXsO/Jpu08BIj9WlRwCSk5+T6yryhoBlYhiOHwCGieABD4B3Q1tJV0pwOicAZhTKscWcvxgLdwf8BQsGU0MCcHf/MHg59exKfV1dtVaPVZfysKWgtEMlh20x5y/GkjUBSicFDx7FOp3eesMdPY8RQD3A1DNALXg+k2eRCQ7pSt+wlL17n+t8RaouqsslAGMi7u4FOT+XZ/jrAYwF4GrvmHoye3T+7TqSBAz39sADkX3Q19UqlX+Jg8huaMRHF3JxqqrG7J+xR+ffzsKFgcR2GgDs53nsYg3s2kOZq4rtHZCUukQCMGfOHFnxBc1sHvwiANeD3uwdgj07/3bmJgFeTgo8GNkX11/jIBfSfewqKceH53NQoxNeKGjPzr8dJQEOx8gw2AmeX90rsnm9LY+fdhQOnQBER89RukF9G8MwTwGIsHc85E9SLPgzl9DCQAYMJgb54aGBfeGu7NpH7xLzNBoMWH0xHxsuF13ziF4pFvyZy8I6AUQiPJAL4F2nRnyyN29Nq73jsRWHfZNOiF54g4pR/MIwzD0A7P9JJX+QasGfuUJcnBHh4YqTlTVoNf65NDBUo8ZzQ6IwJywIKtrW12MoWRYjfb0wyMsDF+oaUKfT/3HNy0mB54ZEIcHPfm/+V7JkYSCRDgN4MsANRiXmhvgNyiwoP5tt75hsweFGAEbH3ekHnv0QPDPb3rGQv3OEYX9TGvR6HKusQY1Wj1AXNYb7eIIO5uvZOB44UVmNgqYWeDspEe/rCY3c8UaCaDrAsTHAj6yCeaijR087Kof6ekyIXXQdA/5b8Ohl71jI3znSsD8h3Q1NBzi8Mga481Damp32DsRaHGYKYEzMwn8D+BIA9S4OyNGG/Qnpbmg6wOFpANwR7DekubD8zGF7B2MNjjACwIyJXfg2z+ORjvywXC5DVFwfRMf2Re+wAISE+kPtooKrm4u14+x21n/3G77/crtoO0ce9ieku7FkOuCOhTdg5tzxEkTVtTU2NKOlRYvLuaW4nF+KtLNZuJCaC30HD5rief6dI+lf/AvXOHK6K7FzAvAcOyYmfzUP/i5LfkqhkGN00iDcMH004hOi4UwntVmspVmL2Tf8G7U1DYLtqPMnRHrmJgFe3m74cdsbUKmUEkXWfbS0aHHiSDq2/XwYh/eftTgZYMB8eSgtdBHwXGeLktqNXacAEqJD3wODe81tr3ZRYc78iVj+5oO4aVYSQsMDoVA43oKermDbz4exa9sxwTbU+RNiH/7OKsR5uYtOB7S0aBEaHoh+ESESRtc9KBRyhIYHYsINI3DTLdeBYRlkXyq0JBEYFOJX61VQfmarLeO0JbslAKOjF/2XYfCEOW0ZhsGU6WPwxoePIGn8UKjVKluH1+199uEGFOSXmbyulLF4Y3gcYmnOnxC78HdWIc7TA7+VlsMoUOiKZVlMmDxCwsi6H7VahREJ0bhxZhJqquqRfanQ3B8d2dtviK6g/MxBW8ZnK3aZAhgTu3Aqz+MXc57v7euBZ165F8NHRkkQWc8xOeFBNDa2mLz+wMA+mBseLGFExBIGnkd1qxZlLTpUa3XQ8RxajUa0GjnoOQ7NBiO4KzoNBcvCScaCZRi4KxTwUMrhqlDAXamAl5MCLg64NY60+S6nAJ9k5pq87uXths1735Uwou7vxNHzWP7kSlRV1pnTnON5ZuqR9NXiC6ocjOQJwMi4xcEyTp8CMKLFfYbED8QLbzwAL283KULrMepqGjE1aanJ6wqWxaYJCVDLHWaTSI9k5IH8xiZk1Tcip6EJJa2tqGjRoay1FTVa3TWr3HWUm0KOAGcV/NUqBDmrEKpxQV83NcJcXKCkIkp21WgwYMauwzCa+H0zDIOdxz6mtVBWVl1Vj2ce+wgpJzPNaV7By7ghR85+WWTruKxJ8rRfZjSsASPe+SdPHI7nXr0fCirfanV1dY2C131VTtT5S4zj2w60SaupR1ZDIy7VNSG3sVGy7WD1egPq9Y24WP/Xvw0ZAwS7qDHATYNYT3fEeLohTONCBZYkpJHL4atSobTl2hVpeZ5HQ10TJQBW5uXthnc+eQzPPfEJ9u48KdbclzGyqwFMkiA0q5G0d02IXnQ7GH6CWLvxk0fg+dfvB8vSm4ctKJXCR+C2UDUySZS1aHGysgYnq2qQUlWL2itK1jqKtlGIZuQ3NmNncTmAtg4p1tMNI3y9MMLHC0EutCbHlnjwaBYpDqSkY61tQqGUY/mbD+DZxz/B7u3HxZpPHBOzaO6htNU/SBGbNUiWAIzsN8+NYfi3xNrFj4rCM6/ca1HnzwFo4YFWHtAB0PFtB0Dzv18jf6V11YBlGXAm3i5rdDpcrG/EADc6MteaePBIq6nHnpJKHK+sRmGT6TUYjqzRYMCRimocqagGAAS5qDDKxxtJgT6I9XCn0QEry6htRL3AynS5Qo4SZ2dUUN7+Nyza5rllAJQMoATgxABqpu2aWfdgWTzz8r2or23EyWPnBdvy4N8aE3H3lkOZq4T3VzsIyRIAmZPyHwAfKNQmoJc3XnjzQbO29ul4oI4HGvm2zr9LV2OQGOPsBN8Qf5Tll5ps87+MHLwRHwcZfZl3WlZ9I34rqcDuknKUtWjtHY7VFTW1Yn1TEdbnF8FbpcS4AF8kB/gi2tMVjL1LjXRxRr7tsyikV98gcHI5dPQlKOyK/30YAM4MoGEAd6YtORCiUMrxwpsPYNGtz6GspEqoaRAU3FIAL3c+YNuTZKI3Lu5OFyXwPcCoTQYiY/HmR48iJDTA5H14APU8UMIBZRzQxAOON2jaNRRfKkL+hTyT10taWlHW0ooxfj5g6DvcYlVaHX7ML8LbaZfwVfZlpNXUo6kHTK20GIw4X9uALYWl+K24EjqOQ5CLCs4yWlNiKQ48Xku9iMPlgh0O4iePRPToWImi6j70aOtDqvm2/8sybaMDpr7uVColomL7YMumQ+AFtmXKFbL4xAkzPkpN3evw2b4kk+wuRtm9Yqv+b7l9AmIG9TN5vZYDsoxAoRFopky30xKmjxFts72oDK+lZlp1tXl3l1HXgJfOZuC2vcex+mIeLjc12zskuylsbsb/MnNw657jeC7lAs7VmLWliqCt83/13EXsKDJdq6Ndwk3in2UirJlv61uyjG19jSmxg/th1m3CpZcNeqPb6PjInOLS0mW5ubkOvUBGkne7hJiF6QxgciO/t487vtv8Clw0zn+71vr7Gz91+tb3yl3LkZsqPLwIAJOD/PGf2Aia2zXBwPM4UFqJdXlFSK+tl+SZLMvC080FHm5qeLlr4OnhCk83FyjkMijkMqic/1oalud4NDa1oqGpFY3NLWhq0aKpuRVllXWorKk3uR7E2iI9XDE3PBhJAT5gaXrgmizp/AcMH4jHPv2PBFH1LCoG6MW2TRNcrbGxBbdNewI11aY/673D/PH2p4+CAbJ4nl3aq5ffNhuG22E2/wSOibl7OA/uhFCbhx+bi9sX3PCXf+MBVHBAJUfz+7Zy+UIeXp7/gllf/uMD/fB/gwbSmoArGHgeWwtL8WXWZVS02ma0z91VjbAgP4QF+yE02AfhwX4IDfKFr5c7WCtlZHqDEaUVNSgqrUZxeQ1KyqtxMacEGTmFaGy2zf9fAc4qzOsbginBAZDTHNMfOPB47dxFbDej82dYFk9/9xyCB1AZYFtgAPiwgC/7947y61Vb8PE7Pwr+/BsfL0V4vyAAAA+sZcE/HBgYWGGbaDvG5p+80TELVwBYZuq6m7sLftrxFpzVf+5hNQAooKF+SWz+ZBM2/2+jWW1pJKANxwO/lZRjTVYeipquvTe7IxiGQViwHwYN7I24gWEYFBmGAF8Pq93fUjzP43JxJS5kF+JCVhHOZxUgI7sYHGe9vTWBahUW9g3FxGC/Hj8iYMmbPwDMXDobU+6eZuOoiJoBgmXAlRstm5taMWvSY2iobzL5czfdMhYLlvzl91PGs8z8IH//XbaK1VJSJAAXAAw0dX32Hdfj0Sfn/fHftTyQb6TFfVLheR6r/vspjm05Ylb7npwE8OBxsKwKqy7mIbfROnP73h6uGBs/EAlDIhA7MBTuribXyTqE+sYWHD97CUdOX8Sxs5dQI1JUylwhLs54IKIPRvt7W+V+XY2lnX/C9DFY9PxiG0dF2ikAhMraFgm2e/vlr7H+u99M/kxImD/e+fTRq//ZwIB5IjDQX3RLvBRs+jU+NnJ+oFEmLxZq8/n3z2JgdBiAtu18+ca2PfxEOjzHtSUBW4+a1b4nTgdk1zfh7fRLVpnjDw7wQtLIaCTFRyG6f4jVhvKlxnE8MnOKcOhUJnYcPIOi0upO33O4jyceiuyLcI1jJ0LWZMmwPwAMnxiPxa8sAUslmiUlQ1sS0L4uIP1cNu6b96LJ9gzDYOX3T8HTy/XvF3m8Fxjo/yjDMHYtVWPTb56E6EW3Mwz/ranrvn6e2Pjb2wDa3vxzqfO3G87I4bMn/4eTOwWXa/yhp4wEtBg4rL6Uh/X5hSZrsZvD1cUZk5MG46bxw9EvzPRW166K53mkZlzGln2nsedIaqfWDsgYYHrvXlg8IKzbH1Jk6Zv/8MkjsPil+6nztxMZgDBZ2yJBnucxY/yjggcG/fP/7sDo5DgTV5kvAgP87rZnEmDTzbmhfoPngUGiqetJ44fiugnDoAeQZ2yb+yf2wbAMhk4YhoqCchRliR+Fmd3QhIKmFiT6+3TbJOBgWSWeOJWGE5U1HV6IGhcZintvm4inHpyFxOGR8PLontUVGYaBv68HEodH4tZpoxEW4ofG5haUlNdYfC8ebdspdxaXIcTFGSEu3XM0oP3N3+zOf2I8Fr9Mb/72xKOt+JwbC8gYBpkX8pBzyfT5P71CfBE7pK+py4MbGpt9337rzS22iNUctk2vGSZCaA1/7OB+4NG2/5Lm/O2PYVksWn4vjAajWSMBu0vKoWCZbjcSUNWqw5vpl3BEpACLKQq5DFOSh2LutNEIC/azcnSOz0mpwKTEQZiUOAiZucX4dtMB7DmSBqOFiwcrWnV48lQ6xgX64h9RfeGpVIr/UBdBb/5dlx5ti9TDZUDs4P7YueWYybZFBcKL/hnwDxaXlhb0Cgh41cphmsWmCQAHPkKoXwgND0QZ7fF3KKyMxeJXlgCAWUlA+7xld0kCjlfU4LXUTFRpdRb/rEIhw9TrhmHh7GT4ebvbILquJyK8F55/ZC6WzJuEjduPY+POYxZPD+wpqUBKVS3+EzsACX5df5Egdf5dXwvfVo02tI9gdXsUF5SL34zHS8XFZSm9evlvt1J4ZrNpAsCA9xNaZuDdOwBVdFqPw+mJSYCWM+J/GbnYmF8C3sIBf2eVEjMnjcDt08fCy717DvF3VqCvJx6YPxnzbk7C1xv348eth6HTmT/pV6vT46lT53FzaCCWDAyHE9s1SwtT5999VHGAd4i/YJvaGrN2ybBg+K8KCiqHhIT4mJ5PsAEbr7BhrrH88U/NdNqcw2JlLO59dQlkcplZuwO2F5VBz/FdcndAbmMzXkg5b/HWPpZlMDV5KO67fSK8PQT/1Mnv3DTOeHD+ZMyaPBKffLsDOw+dE6yrfiUePDbkFyOlug7Lh0QhxOXvlUMdWYfm/Knzd2hNIn1Yi/mHf/nKFIZVACZ3NiZL2Owva9iw+xQAnExdl8tlMJpx6h+xH4ZlcfeL92LklFFmtd9dUo6XzmZ0arW81LYUluL+w6ct7vzjIkPx2SsP4MkHZlHn3wEBvh54dtmt+OyVBzAkOtyin81raMKSwyk4WFZpo+isj7b6dU+Mygkygd+RXmeAwdxDwHhMKikpmWOl0Mxis78uVaNB8BAEuZNC6DJxEO0LA4dPjDer/e6ScrzeBQ4Q4sDj44wcvJ56ETqj+fNQft7ueP6Rufjo+XsR0SfIhhH2DAP7BuGD5xbjxX/eYVEi1WQw4OnTF/DpxVxwDl4snOOBVy3p/CePoM6/CxHry3Ra85e48wzzTkVFhWRvFPQXRkS1TweYOxKwvagMP+aJbyW0lxYDh6dPnccPuZbFeEPSEHzzzjJcPyYODNWvt6pxCdH49t1HMOP6EWb/DA8e32QX4ImTaWgyOO4m4rW5hTTsT8zDI0hvND4k1ePor4yYxdLpgG9zChxyFKCiVYdlx87gkAVb/Lw9XPH6f+7E00tnQ+1sclaLdJJGrcLj98/AW08tgL+P+WcgHK+owT+OnkVFq+U7N2yNA49vcy6b1ZaG/QkAgMe/ysvLJVkgR39pxGyWTAfU6fSobLXeQTnWcKG2AfcfPoWL9ebXr580djC+WbEMY4abPM6CWNmoIQPw1VtLceP4YWb/THZDEx4+moK8BtOHs9hDeYsW9Xrx0Qka9idX8DFw3N1SPIj+2ohFWBmL6Q/OFB0CZ8FAo3CcdR6p1fV47EQqqs2cj1M7O2H5o7fh2X/MgWsXW23eHbioVXjygVn4v4dugUpp3t9RWYsWy46fQ6aVDiiyBo1CIXrKIcMwmPHATOr8yZ943CfFY+gvjljsx7e+F926lRjgDbXcMfZqn62pw39OpZo9TxwS6I2VL92P8aNjbRwZETM1eSg+f+1Bsysq1un0eOT4GZyuqrVxZObRyGUYEyBcvIjneax963uJIiJdRHRhYflgWz+EEgBikTN7U5B68JxgGwXL4J7+YdIEJOJYRTUeP56GZjO34owZFoHPXn0I4SIFPoh0woL9sPKl+5E8Ksas9i0GDk+dSsdJB0kC7o8Ig1Lk7T71wFmc23dGoohIV8DKjPNt/gxbP4B0H3qtDj+88Z1ou/n9QhHqAMe5Himvwn9Pp0PLiXf+DMPg7jnj8erjd0KjpoV+BM93LQAAIABJREFUjsZFrcKL/7wN986daNYOjFajEf89lYYz1aZPapNKsFqNO/qEiLb79rWvoXPAhYzEXphJtn4CJQDEbFtXbUFVsfDhFqEaNe4ID5YoItOOV9Tg6dPnoTdjK4JCIcMLj96Ge26dALar1jLuARiGwcLZyXjqwVmQmzFf3mrk8NSpNFyobZAgOmHz+vRGb5FTDatLqrDjy60SRUS6gJjy8nKbnh1OCQAxS215LXZ8tU2wDcsAj0UPgIK175/VxfpGPHfmPAxmlJhVOSnxxhN3YXyCecPLxP6mJg/F60/cBWeV+OmAzQYj/nMyFdkN9l0YqGAZPBbbH4zIgsBta7airsIxpi6I3TFGozHJlg+gBICYZfMnG6ETqWt9Y3AgYr3cJIro2kpbWvHkSfPm/DVqFVY8vQjxcf0kiIxY08jB/fHJS0vga8bfW73egMdPpKG8xb7bUuM83TElWHhtia5Fi80rf5YoIuLoeIax6UpkSgCIqLL8UhzadECwjUYuxz0DLKvpbm11Oj3+fSLVrKN8vT1d8dHy+xAb0VuCyIgt9O3tjw+ev9esJKBKq8MTp9LRaG5ddhu5NyIMGpHdMQd+2oeS3GKJIiIOjWdsWoCEEgAiat2KteBE6uXf2a833JX2O9xJyxnxf6fTUdDUItrWz9sNH79wH/r2ppX+XV1wgBfee/Yes45hzmlownMp5k0N2YqnUonb+wonnTzHYeOHP0kUEXFsfIQt704JABGUm5qDs3tTBNv0UjtjVqh9D8Z549wlpNXUi7Zzd1Pjnf8uQlCAlwRRESn07uWDd5+9G+5u4jtPTlbW4P3zWRJEZdqc0CAEOAuelYYzu08j/3yeNAERR2ZeAYwOogSACPpl5SbRNg9EhENhx9XzG/KLsaukXLSd2tkJbz+10OyiMqTr6BPij/eevgfuruJJwKbLJdhSWCpBVNemlLG4P0J4uoznefz6Ka0FILDpoipKAIhJly/kIe1QqmCbWC83jA3wkSiiv8uoa8BHGdmi7ZRKOV57fD4G9qUjfLurfmEBePPJBWaVDl5xPsuiMyGsLTnQB1Eewt/tZ/edQUGmeQcJkW7Lmed5m9VUpwSAmPTLyp9FS/7e3S9MmmCuoV5vwLMp4nv9ZSyL5Y/chqExfSSKjNhLVP9gPL10tmixIJ2RwzOnz6NBb/5Z7dbEgMGi/qGCbXiex5bPN0sUEXFUlZWVwvNFnUAJALmmwksFOCtSmnSwlzuGeJt/bKs18eDx2rlMlIlsTQSApQumIDE+UoKoiCNIHhWDxbdeL9qutKUVr6ddkiCia4v38USsp7tgm5TfTqE4u0iiiEhPQwkAuaYdX24TfftfKPIGY0s/5BbhUHmVaLsbkoZgztTREkREHMmCW67DpLHiZ6kcKK3EtqIyCSK6tgX9hHcEcByPnV8KF+AipKMoASB/U1dRi5Pbjwu2GeLtgcFe9nn7L2xuxuqL+aLt+ocF4t/3z5AgIuJoGIbBk0tmImaAeJ2HFelZKGxuliCqvxvu44lBIqMAx7YdRV2l/c80IN0PJQDkb/b9uAcGvfDRuWJvLrbC8cBrqRdFD/hxd1Pj1cfnm32WPOl+lEo5XvzX7aLbA1uNRryWehFmHBthE3eKfJYMOgP2r98rTTCkR6EEgPyFQWfA/p/2CrYZ4Kax29v/psvFSK0W3u/PsixeePQ2BPjaJ0biOHy93PDUklmiiwJTq+uxuaBEoqj+ariPJ/q5CRcy2rt2N/Ra+yxYJN0XJQDkL45tPYL6KuEOdo6dTvsra9Hi04u5ou3uuCkRw2P6ShAR6QoS4yMxc9II0XYrM3NRYafjeGeHCW9PbaiuF52WI8RSlACQvxAbavRWKZFsh33/PHi8kXZR9JCfPiH+WDxXfAU46VkevmsK+oQIl35uMhiwIt0+uwImBPrB20n4dMMDG/dJFA3pKSgBIH8oyi5CbmqOYJtZoUF2Oe73QGkVTlbWCLaRy1g8vXQ2FArhw1ZIz+OkVOD5R+dCKXJexaHyKhyrqJYoqj8pWAbTQ3sJtslKuYSSHDokiFgPJQDkDwfWC79hOLEy3BgcIFE0fzLwPFaaMfS/aPYEDAgX/hIlPVefEH/cNfM60XYfXsixy4FBM0ICoZQJfyUf2ih8KichlqAEgABoW/x3fNsRwTZJAd5wt8Oq+k2Xi1EocsrfwL5BuHNWkkQRka5q/ozr0LuX8BTW5aZmbMyX/k3bQ6lAop9wbId/OQiDTniHDiHmogSAAADO7DmNxhrh2ujTQqR/+280GPBllvCef4Zh8K97pkNmh6kJ0rUoFDI8tniG6K6AL7Iuo15kK6wtTBX5jDXWNCL1wFmJoiHdHX1jEgDA8W1HBa8HqlUY5CVcsMQWvs6+jDqRN54p1w1BVH/77EwgXc+w2D6YmDhIsE2DXo+1uYUSRfSnYd7u6KV2FmxzfAftBiDWQQkAQUtjC9KPpAm2uTE4EAykPfK3vKUVP4kMxTqrlLj/9kkSRUS6i6ULpkCjFj5jZX1+IWp10u69Z8BgcpDwcdXn9qWgpVF4SowQc1ACQHBm92nBIiMsGNwQJLyFyha+yy2EzsgJtlkwKxk+Xq4SRUS6Cy93DebPFF4z0mLg8F1OgUQR/WlKkD9YgVxbr9XjHE0DECugBIDgxI5jgteHeHvAWyW8R9na6nR6bC0UPqQl0M8Lc6eNkSgi0t3MnpIAbw/h5HFjfgmqJa7A5+esQoyH8HTbSZoGIFZACUAP19LQjAvHzgu2uc4OhX82FpSg1Shc9OeeOeNF93UTYoqzkxJ3zRLeFqjljNh0WfodAcmBwp+59MOpaG1qlSga0l1RAtDDpR1KhVGguh4LBmMDvCWMCNBzPH4WmfsP8PXAxLHCC7kIETNj4ggE+nkJttmQX4QWkWTU2q4L8AUrsObGoDPgvMi6HULEUALQw4nNJQ72doenUtrh/62FpajSCtdkv2vWdZCLFE0hRIxCLsPCW5IF29TrDdguMh1lbd5OSsR4ugm2Obef1gGQzqFv0B6M5zikH04VbJMc4CtRNG04HlibWyTYxs/bDVOvGyZRRKS7m5I8RPTkyHV5xeAhbXVAsWmAcwfPgrPXGcakW6AEoAfLPpuNxlrTxX8YMBjtLzw8am2nq2pQ2Nws2GbejCSq90+sRsaymDV5pGCbwuZmnK2ukyiiNol+wlNvjTUNyEsXPruDECGUAPRgaSJv/+Guavg4OUkUTZvtRcJDrW4aZ9w0YbhE0ZCe4qYJ8VCJlLn+5XKpRNG08XNWIVSjFmyTfkj4M0yIEEoAerCLJzMEr4/w9ZQokjZNBgMOlFUKtply3VA42eE8AtK9uWmcccN1gwXb7CurEK1KaW0jfIQ/g5kin2FChFAC0EPpWnXISxc+YS9e5MvH2vaVVqJVpPDPTRNo7p/YxuwpCYJnBOg5HrtLyiWMCBgu8hnMSc2GXmTBLCGmUALQQ2WlXIRB4LATlUyGOE/hhVHWJrbSOm5gKMJDpK9ISHqG8BB/DI0JF2yzu6RComjaDPZ2hxNrer2LQWdA9tlsCSMi3QklAD1U5qlMweuDPN2hEKpHamWlLa04V1Mv2Gb6hHiJoiE91ZSkoYLX02rqUdailSgawImVIdZLeDtg5skLEkVDuhsqo+bg6irrcHZ/CrLPZqG+sg61ZTXQtnZ+yK++WrizFfvSsbZdxeWC26w0ahXGjY6RMCLSE40dEQXlp3LoTMz18+Cxr6wCt4ZJd/pkrKcbTlbWmLy+65sdOLZF+DRPcyhVSnj4uMPdzxN9BvXD4KTBcBfZHkm6NkoAHNTljHxs/GA9zh9Js8te32gPaROAoxXVgtfHxkeKrtImpLM0aickDInAvmPpJtvsKZE2AYj2FD4XQNushbbZOlMTxdltNTiObD6E79gvEZUQg5lLZyMkordV7k8cCyUADsagM+CH17/BgQ377FbkQ8YAA0UOSbGmBr0e52saBNtcNzJaomhITzdxzCDBBCCzrgE1Op1kFTKj3F3BggEncSEijuORdigV54+kIXFWMm57/A7IFdRldCe0BsCBNNY04O37X8e+9XvtWuGrr6srnGXSFdo5XlEr+OWmUioQP6ifZPGQnm3MsAho1KbrX3A8cLKyVrJ41HIZ+rq5SPa8q3Ecj/3r9uDt+19Ho0iiTroWSgAchF6rw/v/WIGsM5fsHYpoDXJrO1YpPPw/YlB/Gv4nklEq5Rg1JEKwzdGKKomiaSP1Z/JaslIu4f1lK6CX+HhkYjs0nuMgvly+BrlpjlHWM0nC0/84HjhRYXqBEwAkjYySKBqgqqYB2ZdLUVJRg6ZmHQwGA5pbddC4qKCQyxDg44EAXw/0CQmwSTlirU6PvKIKqFVOCPL3BMs6Ro7OcTyKyqrR0qpFWJCfJMcwl5RXI+dyOeoam9HY1IqmVi2UchncNGq4uqgQ6OeJPr0DoJBb//cQH9cPuw6dM3n9ZGXbqJXQiX3WlOjvjQ0iJ2RKITc1B1+/9AUWvbDY3qEQK6AEwAFkHL+AY78esXcYAIBRvl4Y5CW86MiaLta3zaeawrIMxgwbaLPnNzW34kjKRew7fh6n0rJRVy98DkE7uYxF39BAjIjrh9FDIxA7sLdgERlzfLf5ID5f+xtaft/l4eftjgfmT8akRPsee7zveDreW7MFpRVtw94uahUW3zoBt04bbdXnFJdVY+/RdBw5cxEXc4rR2Cx+3r1cxiI8xB9xA0ORPDIag6PCrJI0DY/tK3i9TqdHTn0T+rlpOv0scwz19kC8jydOCOwGkMqRzYcwZnoiBgy33eeSSIMSADvjeR7r311r7zCglLG4MTgQ9w4IByPRWw0ApIrs/e/bOwBuGmerPze/qALfbNqPHQfPQq+3/Kx3g5FDZk4RMnOK8NXGfQj088JN44fhlimjoFGrLL7f5t9O4oMvt/7l38qr6vDCez9Cq9Xb7fyDPUfS8cyK7/6yJqWpuRXvrvkVamclbhzfubgMRg5b957Ghu3HkJlr+RuuwcjhUl4JLuWVYP22o/B01+D6MXG47cYxoif8CQnw9UBIoDcKSkwP9afW1EuWADBg8PyQKKy8mIsthaXQiVTMtLV1K9biya+e7nTSS+yLEgA7K8jIR/75PNF2o/28MDU4ACEuaiitPCzMMgx8VE6Q2eGznFkrvKgobmCoVZ9XXlWH97/Ygr3H0q260LKkvBorv9+Jb3/ej3kzknD7TWMtmiL4Yv3ea/47z/P44MutSIqPgrub8MEw1taq0+PdNb+Y/N9p1Y97OpUAHE3JxJufbkaJyBSQJWrqGvHjlsPYsP0oJo4dhAWzxiEksGNTWsPj+gomAGm1dZgZ2qujoVpMLZfhkah+WBrZD5WtWnC8dRcKa41GFDS34NeCUtFtuXnpuSjIvIzeVv58EmlRAmBnZ/akiLZZFtVP0i8aKV2oFx4BGBQZZrVn/brnNN5b8wsam21Xya2xWYtPvtuJLXtT8MzSOYjqL75fvLa+SbATbGxuxZcb9mLpgqnWDFXUT1uPokKgYFRZZS2qahrg7WnZllEjx2HFql+wYcdx8FbuxNq1jSykYNehc1h0y3jMuzkJcpllifPwmL7YsP24yeupdloRL2MAf2fbnNIZ5uqCsf4+WJ9fhPfPC5cYPrs3hRKALs4xVhj1YBkiZTwnB/l3286/Qa9HcZNwZ2yNEQAjx+HFD9fh5Y/W27Tzv1JBSSUeePoTrP31sGhbncCZDO1+2nEM5VXCyZI1NTW34utN+0XbaXWWrQhv0erw+Ktf46ftx2zW+V9Jrzdi5fc7cc8THyK3QPisiauJJZ/lLa2o6qYH8dwSGoTre/kJtqGTCLs+SgDsrKZMeD/xrNAgiSKRXkZdo2D530A/L/h2siSxTmfAU29+i617xUdarM1g5PDuml+xflvny7TqdAasWbfHClGZ57vNh1DXYN6CSHNxHI/n312LoynC51DYQlZeKR567jOUWbB/39NdI/r3l13f1NnQHNYtIt89NWX2X5BIOoemAOysvkr4CylcI+28r5Qy64SHUGMGdK7cKs/zeHbFDzh4wrLDUtTOThjYNwgBPh7wctdAqzegqbkV9U0tqKltxKX8EpO14q9lzbo9mDlpJNhOHq60efdJ3HbTGPTu5dOp+4ipq2/G2i3iIxeWWrX2Nxyw4Hfh5+2G6AEhCAvyh0rVVgdCq9WjsbkVDU0tyMguRl5hudkjCXX1zVizfi/+c//NZsfQPyxQcBokp7EJI3ylPTZbKn1E1pzUWnHtRlfmrFFDa2JkUS6XQeUsTcXIjqAEwM7EimooLZy37EqyRN6ewoI6d/Tvqh93Y/+J82a1ZVkGSSOiMX3CcAyP6wuZwEJLvd6IC1mFOHDqAn7eeVx0WqG6rhF1DU3wdO/cinGO47D6x914dtmtnbqPmC837EWTGVvwLJFbUIavNu4TbceyDCYmDsKsySMR3T9EdJV5bX0TUtLz8MuekziaclH0/hct3GnQPzwQh0+bHrHIbei+IwBCxxAD4t9dPUXUyGgc3nzwmtcGDevvMLU8roUSAGI3xSKdTHiIb4fvfeJcFlabOWQeG9Eb/77vZvTtbV7CoVDIEBcZirjIUCyclYxNu07i6037TNYQYFkGLs6Wbw28ll2Hz+GOGWPRPyzQKve7WmV1AzbuML3wraP+991OGES2roUEeuOlx+aZ/XsAAA83F4xLiMa4hGhczC3GFz/tw96jaSbbu7pYtqV0gMj/zjndOAEg5pnx4EycP5aG2vK/jua6uKhwz8PT7RSVeRw3NSHdXkmLcAIQFiy8CMkUg5HDitW/mjU0fMeMsfjohXst6nSu5KJW4Y7pifjm7WUYl3DtA4sGR4VbrXIex/H49IddVrnXtaxe9xtaLVzYJ6a8qg6HTwnP+/v7eOCTF5d0+PcAAAPCe+Glf92ON568C37e1567HzNMuMTv1fqHCS/ALWpuseh+pPvxDPDCM98vx5gZY+Hu4w5XdzUSkmLwygcPwy/Ay97hCaIRAGIXDXo9GvSmOxq5jEVQB0sSr996FHmF5aLtltwxCXfOvK5Dz7iap7sGL/7zDuw7lo6Pv9mBgpJKAIC3hyseWXSjVZ7R7tDJDKRmXkaslY9oLSmvxq97Tlv1ngCw//h5cJzw2/+/75thtToHo4dG4Ou3l2H1uj3YsOM4Wn9fqT9ycH/cPGmkRfcK9POEQiEzWSyq2WBEnU4PdzqrokfTeGqw4Lm72/5zRQWUjH0LNZmLEgBiF2Jv/8GBPhbv2wbatvx9u1l8+9qoIQOs1vlf6bqR0RgbH4nsy2WoqmlATESo4MlyHfXx19vx0fJ7rXrPld//Br3B8qqIYs5l5AteD/T1xKjB/a36TBe1Cg/fNQV3zUrGhaxCqJ2dEN0/2OL5WJZl4OvljuIy04VxylpbKQEgXRJNARC7KBHZ/x/UwaGzo6cvorJaeHeBQi7DsoXTOnR/c7Asi/5hgRg1ZIBNOn8AOJuRhxPnsqx2v9yCMuw6dNZq97vS5eJKweuR/YJsVlLWTeOMkYP7Izaid4cXY/l7C5+NIbaWhRBHRQkAsQuxEQCvDq6Y37z7pGibOdNG23wrnRQ+/maH1YrprPxul1VLI19JbJeESwfOTpCSn49wAlDR0j2LAZHujxIAYhe1AicAAoCXh+UJQItWh6NnhLeCsSyLOVOse4qdvWTmFGH/cfO2OQrJyC7CAZGKlJ1hNApPK1SLnAdhb34iIwD1AmtZCHFklAAQu2gUmWvuyAjAmfN5oif7jRjU3+QK8a7of9/ugFFkgZ3oPb7ZbtOyvM4q4UIop9JyJSvR3BFiCUCdlXdNECIVSgCIXTQZhCvpebi5WHzPk2bMiU9NHmLxfe1NaIj8cnElduzv+Nz96bQcnEg1fehLeEjnijEBEJ1uadXq8O7qXzr9HFvxFDnyt5ZGAEgXRQkAsYtmG4wAnMsUXm3OMIzVV5tL4cZxQwWrCH62dpfoyIcpK7/fafJaXGQoRg7q16H7XinGjO2KW/aexvPvrkWtA9bWby9DbEq9BWWhCXEklAAQu2gUOQHPxcWyhWE8zyOvsEKwTZC/p8MvOLsWtbMKd95sestiaUUtfv7thMX3ba8nYMp9t020yur860fHmXUOwo6DZ3HLg2/ivTW/orBU+Dx6KalEtvhpOetvnSRdU2VxJUqLq2y2oNbaqA4AsYsGkQRALhOuQ361iup6NLcIzyMPCO+6xyrPumEk1m07YnI/+hfr92LquKFwdjLv4BGeF64oOHpoBIZEheOQFY58DfD1QPLIaOw+YrpEb7tWrQ4//HoYa7ccweCoMExIiMOY4RGi8/C25CSSAOg6uQaDdH25qTn44vlVKM4uAgD4+Hlg0QM3YmRijJ0jE0YjAMQuxN6aZBaenHe5RHivOQD0Duq6W/8UchnuuXW8yetVtQ1Yt/WI2ffbdSgVl/JKrnmNYRjce9v1Fsco5IF5k0UXA16J53mkpOfizc82YeaS1zF36VtY/v46/LzrhOSjA05OwgmA3tg13vaIbZTmleDNe1/7o/MHgMryWry1/Bukn8u1Y2TiKAEgdsFAuIOXWTgC0NAgXoxFIeva1domJQ4WHMX4esN+1DeK16bnOA6r1+02ef36MbFWHy3p5e+FFx69rcPFeApLq7Ftfwpe+2Qj5i59CzOXvI4XP1yHrftSUNdw7UOYrEVsCoBGAHq2de/8AL3279uaOY7HFx9vtkNE5qMEgNiFXOQN39IRgOZW8W1kMpltqs1JhWUZ3H+76TfzxuZWfP/LtY8lvdKve04jv+ja6yXkMhaL507scIxCRg+NwMuP3SHaoZqjvKoOW/em4MUP1uHGxa/gkRdWYeu+FKsfZAS0nf4oxGjDLZTE8eWmmX7Lz80ugcEG5bWthRIAYhes6AiAZX+aLWYkAOYsRHN0o4ZEYHhMX5PXf/jlMKrrGk1e1xuM+OKnfSav3zhhOIJteILZ2PhIfPTifVbZXtiO4zicSM3Gix+sw4x7X8Xrn2wymeB0hNgOC1UHzqwg3YdBIOnkeR46reNuE6W/XGIXYiMARpGz468mY8WnDBTy7rHmdcm8SSZX57dqdfhqg+kO/qftR1FSfu05dKVSjgWzxlklRiER4b2w+rWHsGzhNHh7ulr13o3Nrdi06zjm//NdvPjBOtTVd356QC9Ss8LJwukqQhwFJQDELliR7WVNIiv6r6Z2Fl9gJpd3jy/qyH7BGDcq2uT1DduPXbOTb9Hq8PUG0yclzpkyWrIqiQqFDLdOG431H/0brz4+H8mjYkSH2i3BcTy27kvBvH++i7MZeZ26l1ZkxwqNAJCuiv5yiV2ITcc3Nll2wpraWfzUvdbW7nNoywPzJkNhIqHRG4xYs37v3/59rcD0gEbthHkzxlozRLMo5DKMjY/ES/+6HZs/fRL/vm8Ghsb0gVJpndGamrpGLHt+FfYcSe/wPXQihX6czBh9IsQRdY8xUdLlaOTCC8GaLDxi1dtDfCi5sqbeons6sl7+XrhxwjBs2H78mte37E3B7TclIizYD4D4AsE7pifB3VVtk1jN5erijJsnjsDNE0dAq9Mj/WIBTqfn4nRaDs5nFUDfwcVUeoMRz7/3A9w0CzEsto/FP18vssvASU7vUaRrogSA2IWnyErwBgsTgFAz9vhnXS616J6O7p45E7B9/9lrFkDiOA6fr/0Ny/95OwDg642mtwh6uLlgztQEm8ZqKSelAkNj+mBoTB9g7gRodXpkZhfj3MV8nDybhTMZ4gc/XUlvMOLFD9fh2xWPWFSPAABqRRIAFY0AkC6KUldiF54ixVUsHQFwUatEF5RdzCmx6al3UvN012DuVNNHG+85mo7zlwpRW9+E9duOmmy3aPY4s6ZQ7MlJqUBcZCjmz0jCimfuxs8rn8Q/Fk79Y4TDHOVVdVi3zfxiSe3qG4UTAI0V1y4QIiVKAIhdeIiUrK2pN72VzZT+YYGC1xuaWlBSXmPxfR3ZvJuTTB6cxPM8Pv9xN1av22OyTHKArwdmXD/CliHahJvGGXOnjcE37yzDhy8sxtj4SLN+7uddJy1+lthOAj+VYydPhJhCCQCxC7EpgOKyWovvOTQ6XLTNb4dTLb6vI3NWKXHXLNMHBR1NycSG7cdMXr/n1glWXX1vD4Mjw/Hq4/Pxz3tuEm1bXFZt8jwFU0orhZNGf+eud8AUIQAlAMROPEVGACz9kgaA4XHiR9f+uud0t5oGAICZk0chSKB4j9FEqdrevXwwOWmwrcKS3C03jMJ1I0xvj2xn6gwEU4rLhBMAXxoBIF0UJQDELrxtkAD0Dw00ORzerqCkEmkXCyy+tyNrK99r+eE9S+ZNgqyDtfkd1bTxw0TbNFi4xbS0Qng0ys/CRYWEOIru9eknXUaIi7PggUDVdY1osXDfPssymJgYJ9ruo2+2dbtRgIlj4hDRJ8js9gP7BiEpPsqGEdlHoJ+HVe/XqtMLllZmwMDHiUYASNdECQCxC2eZDH4i1fuKO7Bgb8ZE8QVt5y7kY8/RjheGcUQMw2DJHeYf4vPA/Mkmywl3ZU3N4hUkXTXmz9nnF5YLJoueTnIoqRIg6aLoL5fYTZjGRfB6XmG5xfcMDfJFbERv0XYffrXV5Mr4zsorLMcX6/firc9+xrEzl2zyjGsZMag/4mNNHxTUbkhUuOCBQtaWlV+KD7/ehs++34VzF/Jt+qz0S+LTO0H+3mbfLyu/TPC62N8wIY6MEgBiN71dnAWvX8gq7NB97799kmib0opaPPbyl1ZNAqpqG7D8/XW481/vYeX3O/HT9mP418tfYOfBc1Z7hhixN3uGYfDg/Bskiyczpwj3/98n+HbTAaxevwcPPLMSy55fhdwC4Y61I/R6I37edUKwjUbthD4WnESYnS9cPKq/m/CaE0IcGSUAdqZ2E36DaNA77lGSnSX29nT+UscSgCFm5CcqAAAgAElEQVTR4RiXIL4a/GxGHu7/v09QUFLZoee04zgO67cdxR3LVmDb/hRw3J9DxjzP45Pvdnbq/paI6BOEaeNML4SbNm4oovoHSxbPJ9/tRKv2r2s5TqZlY+G/P8BHX29Hi9Y65zPwPI/3v9wiegxw0ohoi46FFksA+rp23xGAOoFjbgHx7y7i+CgBsDN3H3fB66cr6ySKRHq9NcIjAJm5xeBMbGET848F0+DuJl7bPqegDAse+wCr1+22uPqgVqfHxh3Hcfuyd/D255vRaOLnS8qrTV6zhaULpiKy3987+aj+wfjHgqmSxQEA6SZ2XBiMHL7ZtB9zH34b//t2R4d2fbQrr6rDM+98L1jtsN3MSSPNvi/HccjIEU5C+7tb9zhjR5JSLbz7wdPXugsuifToLAA78w3xQ0lOscnra7LyMNLPq1seOdrfzRUKloXeRCffqtUhp6Ac/UIDLL63n7c7lj9yOx59cbXJffDttDo9PvvhN3y/+RCuT4zD2OEDERMRBo36r6u7OY5HZU09zlzIw5n0POw/cR41AivEryTlcjuN2gnvPXM31v56BCfTssAwDIbH9MWt00ZbXAe/s8T2WlTVNuCrDfvwzab9GBIdjqFRfRHZLwiR/YLhJpAgtmh1OH72EvYeScfuI6kwGMUTxXEJ0RaNfmRfLkOjwKJCpYxFbxf7HqBkK61GDqsvCa/X8Ott/lQKcUyUANhZXNIgnNt3xuT13MZm/N+pdDw1KEJ073xXo5Kx6Ofmggu1DSbbZGQXdigBAIBhsX2wbNE0vLPqF7O2/TU2t2LjjuPYuKPthD13NzVcfq/y1tTSivqGlg5tH4zoEwQXtbTV4tTOTlg4OxkLZydL+tyrDY/ti33HxHdccByPU6k5OJWa88e/eblroHFRQeOigsvvxXaMPI/SilqUVtT8ZapFjIebC/6x4EaLYj+XIdwB9tG4iB5r3RVVterw4rkM5IucgRA7dpBEERFboQTAzgYlDcE37FfgBd5ST1XVYN6+44j39UIfFzWcTJwD31EMgEC1CqN8vSUfaYjzdBdMAE6n5+LG8cM7fP9bbhgFhVyGNz792eLphLr6ZtE68GLUzk54bPH0Tt2jK3tw/g1IzcgX3EtvSnVdY4d+7moqpQKvP3En/LzdLPo5sQRgoBlHUFtbq5HDsfJqFLe0iI6uWEpr5JDT2IQTFdVoFRlRYWUs4rpRFcmeihIAO3P3cceYGYk4uGG/YLtWI4cDpZU4YMNYfFVKLB8ajYESzmvGerrhh1zT14+duQSO4y1auHW16dfHw03jjJc/3mDxPH9n9O7lg+WP3o5+YR0bwegOggO8sPKVJVj+3jqczciT/PmuLs545fF5iO4fYtHPcRyPU2k5gm2GeUk7B55R14CnT6ejwsICWbaQOCMJbhYmVMTxdL+J5S5o+pKboXSAcqIVrTo8dSoNLYaOLbzriFhPD8GKgLX1TcjILur0c5JHxeCLNx9uO1/exliWxZypo7HqtYfM6vzlIiM6Tk72y9PlMuHYlArhQ50AINDXEx88vxiPLJomOK9vbf3CAvC/F+/DkCjxQ6KulplTJLi+gwWDQd7SJQDNBiOeOpXmEJ2/0tkJNy2ZYe8wiBVQAuAAPPw8ced/F9o7DABAtVaPPaWWF+DpKHelHCEi9QCOpGRa5VmBvp5475m78d+HZlt0jry5GIZBYnwkVr32IB5ZNM3sBXeebi6Cw9PXWtEvFaHywn7e7vD2NG8fPMsymDN1NNZ+8C8smj0eniJnNnSGq4szltwxCZ+/+lCHf89Hz1wUvB7hoYGbQrrEbG9pBaq19t8SzDAM7nx6IdxpB0C3QFMADmLktAQU5xRh66pf7R0KTlbWYmqwdMPWw3w8cLnJ9Fz70TMXcc+tE6zyLIZhMCV5CCYnDcbBUxewaecJnErNht5g7PA93d3UmJQ4GNOvH25RkZkrY7pr5ji8+dmmv10bEhWOYdG2H7UwZeyISPQLDUDWNfbD33fbRIvLCbu6OGPx3Am4a+Z1OHgqA3uOpuHYmUtWmZoZEN4Lk5MG46bxwzq96PJoinAFx6ESvv0DbeuAHMENd0/DyCmj7B0GsRJKABzIzKWz4R3kg29f/gqcGduabCWttl7S543x98GGfNNbITOy24ZjrfnWyLIMkuKjkBQfhcZmLQ6fzsDptBxkXy5FzuXyvxWvufLnfDzd0D88EJF9gzBiUH9E9g0C28lT9WZOHgGGBb7esB8lFTVwUatw/eg4PHSnfWv2y2Us3nl6Ed5b8ysOHL+AVp0e4SH+WHhLMq4fI37wkilKpRzjE2IwPiGmbb99djHOZuThYm4JcgpKUVhSbfJ30B6Xv68HIvsGI25gKEYM6o+QQPNL/Aopr6rH+SzhksLDvD2t8ixznauW9jN5NYZlMXPpLbhhobR1JIhtUQLgYJJmJcM/xB/fv/YNiqww990R5S2tqGjVwVeidQmDvdzhppCjXm+45nWO47HnaDpmTTa/iIslNGonTEochEmJg/54Xm1DE1pbdWhsbgXP85DJZHB1UcHLwxUKK+/CaHfzxBG42YzDjKTm5a7Bc8vm2uz+LMsiqn/w3/boNzW3ora+GY3NLX9p6+6qhrenq82OMt5zJE1wi6FKxiLGQ7oFcBWtOlS02ubcCnME9QvG7f+ZhwHDB9otBmIblAA4oIj4SDyz9gUc/eUIjvx6CBdPZUo+IpBeW4fkAF9JniVnGIzy88aOItP14bfuO22zBOBqLMvAy10DCBdpJDbmolZJXj8BAHYdPit4PcHPW9ITANNrpa8GyspYDBgWgYQbx2DktNGd2oVDHBclAA6KYVkkTB+DhOlj0FTXhNy0HNRV1aGmtAq6ls6vBE47lIpCgZPT0mrqJUsAAGCsv3ACcP5SIfIKy22yeI+QdsVl1biQJTzyNiFQus8FAKSKDP8H9w9BzJjYTj9H6ayEp78X3H08EB7TBy7uVOu/u6MEoAtwcXexygf8Sh7+nvj+tW9MXj9TLe1bR7yPF1QyGVqNphfjbdt3BkvmiZ/0R0hHbd59SrDao0Yux0hf66w1MNeZGuGa/ImzkjD+tuslioZ0J7QNsIcaMCxC8Hp2fROqrHRSmzlUMhYjfIUXVrWdtGe/xZGkezNyHLbsPSXYZmyANxQSDodXaXXIEalGGREfKVE0pLuhBKCHCuoXDI3AHm4ePE5WSrv1aFqI8NbDiup6nDiXLVE0pKc5cioTldWmy1IDwIRAaaegTlbUgBco+qvxdEWvPr0kjIh0J5QA9FAMw2DAMOFVvScqpE0A4r294OcsvOhr7ZbDEkVDepqfdhwTvO7lpMBQH2n3/x+vEj4meeDwgXbdJkq6NkoAerCBIkOHJ6tqYMGBa53GMsDUYOFCOkdTLuJSXolEEZGeIvtyGY6fzRJsMy04EKyEBztzPERH4Wj4n3QGJQA9WEyicCGXWp0emXXCQ6LWZs6X7PebD0kUDekpvt10QHDxn4wBpveWdqg9s64Bdbpr18ZoF9OJYkzk/9u77zCpqvsN4O+9U7b3OrO77LKNvoAsoDSxgEisKLZYEyzRoEZNovmlmWhiojFIuhWNvUVUFFGRXgQU6W2B3WV3tvc67f7+kNVVd+6deu+U9/M8eZ7onLn367bzzjnnnkMMABEs3ZyOnCLXe70DwLr6JpWq+VJGtBGnZsovBvxo4xdoaFb/2WgKTw3NHfh40y7ZNrOyM1TbGGvA2rpG2ddzS/OQZlb3iQQKLwwAEU7pTO9PLI2yi5AC4XyFT1p2hxOvvMtRAPKP599aq3gWxCX58kE5ENYqhG+l310iJQwAEW7crPGyr9f19uFwh+tjUQPh1IwUFCXIb0Ly9sfbZY9rJXJHfVMb3v54m2ybEUnxGJui3ta/AHCgvRMWhQOSyhR+d4mUMABEuKKyIiSkyv9xW2NRdxpAgIBriofJtunp7cdTr32sUkUUrpa9sQY2WxB++q+T/51LTEtEgYanRFJ4YACIcIIo4pSzJsm2WaPwxygQZmVlYFhcrGybtz/cjsoa+XlSIleqLU147xP5jX/MsTE406zus/8SJKxRmP+fdPZk7s9PPmMAIEyeJ3/ITm1PL3a3qrvoThSA7xfmybZxOJ345wsfqFQRhZuly96DXeGQrR+U5EOv8nP2u1s7FIf/lX5nidzBAEAonlCKZIWV9++dqFOpmq/Nyc1ETpz8xkAbtu3H9j3cHZA8s213BTZ9dlC2TUFCHM5Ueec/AFih8LuWkp2KovHFKlVD4YwBgCCKAsrnTJZt84mlCd12+WeS/U2EgO8Xyq8FAIB/Pf+B7PntRIPZHU4sefpdxXY/LMmH2qPsvXYn1ikM/08+Zyp3/yO/YAAgAMDU+afJvt7ncOATi/rz7fNysjEiyfWZBQBwoKIGr723WaWKKNQ9/791OH6iQbZNaWICZmSp/4z9x5Z69NrlpyWmcPif/IQBgAAA+aMLkDdC/tP2eyfqVarma6IA3DqqCILC7oCPv7QKNXXy+6YTVdU24dn/faLY7qYRBYo/c4GgNPyfW5KHYSPzVaqG3KEz6GRfNxj0KlXiOQYA+sqMi2fJvr6vrQOHVN4TAADGpyRhtildtk2f1YY//vtN2e1cKbJJkoRHnlwOq8L2ujOz01GeLr8mJhAOdXRhf5v81tuzLp2tTjHktqxhrk8xTc9MhsHIAEAh4NT5p8GosN3pa8dOqFTNN90yohBRonzS/nzvMSz/SH5TF4pcr7+/GTt2H5VtE6MXcfuoIpUq+ial3y1DlJHD/0HorCvnuHxt/sXTVKzEcwwA9JWYhFhMVNgT4BNLIxr7rCpV9LWsmChcUZir2O6fz3+A+qY2FSqiUFJRVe/WI6M3lBQgIzpKhYq+qbnPqrjfxqQ55YhNlN8hk9RXfs4UXP1/137jexMVZcAV18/F+ZfM1LAyZcE7NkGamL3wTGxd4XpBnV2SsLyqFotKC9Qr6qQrC/PwsaUBJ7p7Xbbp7unDrx59Gf/43Y0w6OVHDCgyWK12/HbJK4pD/0WJcbgkXzlkBsKbVTWwOeUX/51+6RkqVUOemnXpGZg6fxpqjlTD2NSMoqJsxCk8whwMOAJA31A0vhjDx8lvMfp2VS16HfLbpwZCtE7EfWUjFI8L3nu4Gv/470qVqqJgt/S5FThaLb+AVRSAu8aUQKfB03V9DiferZZf/Jc/uoDP/ge5qNgoFJYVY+S4wpDo/AEGABrCWVfOlX29w2bXZGMgABiTnIgr3ZgKeO29TVi9abcKFVEwe3/N5/jfB58qtrtoWA7GJKt74M+Ad6staLfaZNvMvWaeStVQJGEAoO+YNKccKdmpsm1erKhGv1P9UQAAuL4kX/G0QAD4w7/eVHzem8LXkeN1eOSJ5YrtChLicPPIgsAXNASrw4mXj8ov/kvOTMEpZ5erVBFFEgYA+g6dXofZl50p26a534p3qrQZBTCIIn5RNhIGUf7Ht7fPil89+jK6FfZVp/DT1tGNex9+AX0Kn6yjdSLunzBK8QmTQFlebUFTf79sm7OuPBs6rmehAGAAoCHNXnim4orjl45Wo0/hMJVAKUqMw/XFyhuiHK2uxy8efhE2uzajFaS+fqsNP3vov7A0KG8MdeuoIuTHy586GShWhxMvH6uWbRMTH4NZl8xWpyCKOAwANKSY+BiceflZsm2a+614p9qiUkXfdVVRLmZly28QBADb91Tggb+/zvMCIoAkSfjjv97E3sPyHSsAzMxKxwV5JhWqGtpb1bVoVnik9uyrz0FMgjYBhcIfAwC5dNb35yJaYTXrixXVqh8SNECAgJ+NG4G8uBjFth9t3IV/v7hKhapIS0uffQ8fbtil2C47Jho/HVeqQkVD67bb8VKF/Nx/THwMzrrybJUqokjEAEAuxSXF4YzL5EcBWq1WvFCh/GkrUOL1OjxwyhjEujFH+sLydXhj5RYVqiItPPnyR3h1xSbFdrF6Hf4waQwSNdyj/YWKarRa5T/9z778LG78E0Kaahqx9f0tWLdqO05UhsbiY24ERLLmXHMOPnn1Y/R1u15I93plDS4YZkJ2jDbPvubHx+L/xo/EL3fsgwT5Yf6/njwG9pJ5p6pRGqnk1RWb8Mwbyof8iALwy7KRKHTjKZJAqevtw+uVNbJtYuJjMOf756hUEfnC6ZTw5mOv4qMXVsF5ck2UIAiYPecU3HznAugVDgvSEkcASFZ8SgLmXiv/DLLV4cS/DxxTqaKhTc9MwzXFeYrtJEnCX59+F6+/z+ODw8Ur727C0mffc6vtLSMLMU2DY34H+/eBY7AqLJ6de+25iE+RPwabgsPa11Zj1XMrv+r8gS//znyyagdefja4px0ZAEjRnGvmISk9SbbN2rom7GntUKmiod1Qko/5ua5P5howEAKWvb4m8EVRQD2/fB2WPrvCrVMgz83NwmUF2mz1O2B3azvWKuz5n5SRjLOvlt+Mi4LHprfWu3ztkw92qFiJ5xgASFFUTBTOv/lC2TYSJDy27wgcGi60FyDg7rGlOC3TvU94T7zyIZ59Y01gi6KAkCQJ/3h+Jf71vPIBPwAwKS0Fd4/VbtEfADgkYOm+CsVpqvNvuRBRMeofSETeabK4DnTtbV3o75ffi0JLDADklpkLToep0Czb5nBHF14/rs1xwQN0AvDbiSMxIVV+xGLA4y9/iMeWrYBT4SAWCh42uwMP/P0NvLjc9SevwcalJuKBSaOhFzTY6H+Q146fwOGOLtk2WfnZmHHhLJUqIn9wKkznOIJ4DxIGAHKLIIq47O4rFds9c/g4LBrvvBcl6vDgpDEoTUxwq/2rKzbh7j88h64e+R3ZSHud3b2468FlWLnuc7faj0pOwEOTxiJGp+1CrIbePjx75Lhiu8vuuRKijn+WSR38SSO3jZk2FuNnT5Rt0+dwYsm+IypV5FqcXo8/TR7j1h4BAPDpF4dxyy//49bucaSNakszbvnl4/hsz1G32pcmJuDhyeMQp9f+Yae/7qtAr13+k+KE2RMxbkaZShURMQCQh6746ZUwRBll22xtbMEnlkaVKnItxWjEkqnj3To4CACOVddj0X3/xq79lQGujDy1Ydt+LLr3H24f7lSUGIdHpoxDfBB0/mstTdjc0CzbxhBlxOU/VR5hI/InBgDySJo5A/NumK/Y7tmKKsXFTmpIizJiydQyjE1x76jXto5uLL7/Sfz3rbXcOjgIOJ1OPP7yh7j34RfcnqIZkRSPv0wu03Sjn8Geq1AOlPNumI80c4YK1RB9jQGAPFY+ZzIEhQVVxzu70RIkq18TDAY8MrkMU9PljzgeYHc48e8XVuGO3z+NxhZtH22MZA3N7bj9/qfx7Btr3HrMDwDK05Lx1ynjkWw0BLg697T021DR2S3bRhAElM+ZrFJFRF9jACCPNNU04rEfP+r2H+RgEa0T8cCk0TjTlOn2ez7bcxRX/+QxrN60O4CV0VDWbNmD6+75Gz7f5/4GU+fkZOGhyePc2hZaLe6MgkmShMd+/CiaarSfNqPIwgBAbmuqacQjN/4JLRb5+UwAKE6MR5rCWgG1GUQRvxw/Epfk57j9nq6ePvx6ySt4+PG30KXx0w2RoK2jG/cvfQ3/95eX0NHV6/b7rikahnvLSjV/1O/b0qKMKHJjP/8WSzMeufFPDAGkKgYAcosnnb9eEHDXmGIVqvKcKACLRxfh3rIRMLr5uJUkSXjrw2246o4lWLXhiwBXGLlWrvscV/1kCVat3+n2e778WSvBD0sLICC4Ov8Bd40pcSuYMASQ2hgASFFzbTP+ctPDbnf+v5k4CqOT3Vt0p5V5OVlYOnU8MqLd33Gtua0T9z/2Ku783dOoltn9izxz/EQD7vz9M/j9315He0eP2+/LiP7yKY8LhpkCWJ3vxiQn4veTxsAguhcCHl70EBrdfNqByBcMACSrufbLTyXNtcqfSgY6/5lZ6SpU5ruRSQl4fPpEt3cNHLBtdwWuuXspnnjlQ/T0cvMgb3V29+KxZStw3T1/w7Zdnu0dUZ6egiemT3L76Q6tnZaRit+d4l4IaK1rwSM3/okhgAKOAYBcCufOf0CK0Yi/TBmPhQU5Hg0h22wOLHt9DS798SN48e0N6LcGxxMPoaDfasMr727C5bc/ildXbIJdYSvVwUQBuL44H38uHxc0K/3dxRBAwYYBgIbUXNuMvyx6KKw7/wE6AbhtVBEenjzWoykBAGjv6ME//vs+Llv8F/zvg09hC+J9v7VmsznwxsotuGzxX7D02RUeDfcDXy6oe2jSOFxfkg83+tCgxBBAwYQBgL5joPOXO+VqQKh3/oOVp6fgmZnlOCc3y+P3NrV04pEnl+PKO5bgtfc2cWpgkO6ePrz0zgZctvgRPPrUO2hq6fT4GnNzsvDMzHJMyUgJQIXqYgigYMEAQN8QqZ3/gHi9DveNG4EHJ41BapTnQ8yWhhYseWYFLrrlz1jyzAqcqIvcswXqm9rwj+dXYsGP/oy/P/c+Gpo931QpI9qIh8rH4hdlI4JmZz9/YAigYBA+v1Hks0jv/AebnpmGMTPK8c8DR/FhTYPH2xp39/Thtfc24Y2Vm3HqhFIsmHcqJpcVQx/mJ73ZHU5s3L4fb3+8A59+ccjr7ZQFCDgvLxs3jyxEfBBt7ONPAyHg15/thU3h6zQQAu554ufIyHV/MysiOQwABICd/1CSjQb8omwELhpmwt/2V2B/m+dD106nhE2fHcSmzw4iKTEWZ5w6FnNmlKFsRAHEUJ3I/hZJkrDnUDU+3rQbqzftRrMXX6fBShLjcduoQkxITfZThcGLIYC0xABAaKppxMOLHkKrG8PVkdL5DzY6ORH/PG0CVp1owOOHjqG53+rVddo7evDWqk/x1qpPkZmWiLOmlWHG5JEYUzIMhhD7lGuzO7BrfyU2fXYAn2zZi/qmNp+vmREdhUWlBZhjzgrZRX7eOC0jFb8ePwr379wPu8IW2611LfjLTX/GPU/8HOk5PDyIfMMAEOF6Orrx2K1/YeevQICAc3KzMCs7A89XVOKNyhr0efD42rc1NHfgpXc24KV3NiA6yoiJowswuawE5WVFKMzLVDxsSW1Op4TKmgbs3FeJrV8cwvbdFejt8y4IfVucXo+rCvNw6XAzosTQCkL+MjM7Hb+f5N5IQIulGY/d+ih+8fyvEJMQq1KFFI4YACKY5HTiPz//F+qr6hXbRnLnP1iMXsSNI4bj0uE5eP1YDf5XVYseHx/96+u3YvPnh7D580MAgLTkBIwszkFpvgklw00oHW6CKdO9kwz9pb6pDUerG3D4WC32HKrCrgNV6Ox2f29+d0TrRHwv14RrioeF3DP9geDJSEB9VR2euO/fWLz0TghieK8rocBhAIhgm97egP1b9iq2Y+f/XSlGI24cMRxXFObijcpavHm8Bh02u1+u3dzWiY3bD2Dj9gNf/bv42GiUFJhgykxBdkYyMtOSkJGa+NX/j41xf/8CSZLQ0dmL9q4etLV3o7axBbX1rahtaEFNfQuOVtYH9OCjZKMBF+WbcfGwHCQZ+SdoME9GAvZs3I0t727GaRdMV6k6Cjf87YtQtn4b3nn8bcV27PzlJRgMuL44H5cV5OKtqlosr6pFfQD2AOjq6cPn+47JHo8bHxsFnU6HuNhoGPQ6RJ88jVGSpK869J7efnR09Xi9Ot8XpthoXF6Qi3m52YgO86chfOHJwsC3//M/TJ43FXoGKfICf2oi1M5PPlM83Iedv/ti9TpcVZiHK4bnYVtzC96pqsPmhiY4VOxnu3q+DB7tnZ7tsBdIIgRMTk/B/NxszDSlQQzSE/uCjbvTAc21zdi55jOUz52iYnUULhgAItSudfJHrooQ8JsJ7Pw9JQrA1PRUTE1PRXO/FR/U1OOdagssARxSD0b58bE4IzsD5+ZmI8uD6Qn62szsdPx6wij8duc+yA0E7Fr/BQMAeYUBIELtVZj7v6ooDzOz2fn7Ii3K+NWowP72Dmyob8b6umac6AmeT+j+lBFtxOnZGZibk4XSxHitywkLs7LTccXwPLx4tNplm/1b96lYEYUTBoAIZOu3oavV9WYtIgQsLMhVsaLwJgpfngk/JjkRN48YDktPHzY2NGNtXRP2tHZ4vMtgsBAhoDgxHtMyUzEtKxUlifEenahI7lk4PAcvH6t2OQrQ0dQOu9XOdQDkMf7ERKD25nbZ1zNjorg6O4BMsdG4tCAHlxbkoM1qw57WdnzR0o7drR043NGp6roBT+gEoCA+DqOSEzE5LQWTMlLCdpveYJJiNCIjOsrl4lJJktDR3I5UU5rKlVGo41/5CKTXy3/bbZL3G9yQZ5KNBszISseMk2steu1O7G3vwN7Wdhzr7EFVdw+qu3sUV4P7mwABpthojExKwKikBIxMSkBxUhxidOzwtWBX+P7rGMTICwwAESgxLRGiKLh8FKy5z4rq7l7kxcWoXBnF6EWUpyWjPO3rffCdkFDb3Yeqrh4c7+5BY18/mvutaOu3oc1qQ0u/FV12z/YgSDAYEKsXEW/QIysmGjkx0TDFRsMUGwNzTDRMMdEw8lG9oFDZ1SO7/bQgikhMS1SxIgoXDAARSNSJSDWlo6mm0WWbxw8dw+8mjuKcbhAQISA3Lga5cTGYhqGHeW1OCW1WG+zOr0dvrE4n+p1f7lJoEHWI1+sQo9dz2D6ESJDw5KHjsm0yczO4GyB5hQEgQpXNHI/VL3/k8vX1dU144uBx3DRiuIpVkbcMooCMaKPWZZCfPXnoONbXy5/QOXZGmUrVULhhbIxQ48+YqNjmxaPVeOKg653niChwnjh0DC9UuH78b8D405V/l4mGwgAQoUZNGY3CsmLFdi8crca/DhxVoSIiGvD04eNudf7DxxZixOSRKlRE4YgBIIJd/OMFbrV75dgJjgQQqeSJQ8fw3JEqt9pecsfCoDs6mkIHA0AEGzF5FOZeM8+tthwJIAo8d1JWOXwAACAASURBVD/5A8C86+ejtJyf/sl7DAAR7pI7F2LsdPcWEXEkgChwPPnkP3b6OFy8+JIAV0Thjk8BRDhBFHHLI7fhb7cvwcFt+xXbv3ByT/Ibg/DpgHV1TXi/ph5tVivy42KxoCCHe9JHuMMdXXi9sgZVXT1INRoxLzcrKA+4cnfBHwCUlo/EzQ/fxkf/yGcMAARjtBGLl94ZsiHAKQGP7j2Md6stX/27/W2dWFVbj/PzTLhxRCGffY8wXXYHnjh4FO9UW76xh/7Ghmacn2fCT8aUQAySqXNPO//FS+9EFE9YJD9ghCQAX4eAUVNGu9X+haPV+HcQrAlwSsCf9hz8Ruc/+LXlVRZct24bPqip16A60sLmhmbcsH4blldZhjxA551qCx744gCcQXAIkydz/sUTS7D4MXb+5D8MAPQVY7QRtz12B0ZMHuVW+5c1XhMw0Pl/cEK+c2/ut+KPuw7ivh17XR6oQqGvrrcP923fg/t27EVjn+utcwFgtaUBf951yOUJe2rwZM6/tHwk7vjH3YiKZedP/sMAQN8QKiMB7nb+g21uaMbV67bhb/sq0O3h3vkUvHodDiw7XInr1u3A5sYWt9+3sqZes5EAfvKnYMAAQN8xMBLgbgh4+dgJVUOAN53/AJvTiTcqa3DV2k/x+vGaoBgGJu84JeCDmnpcvXYblh2p/OrcA0+stjTggZ0HVf05ePrwcbc/+RdPLMEdf+cnfwoMBgAaklfTAYcCPx3gS+c/WLvVjr/vr8BNGz/Hp42tfqqO1LK1qQU3btyBP+46KHtSnjvUnA7gsD8FEwYAcsnj6YCKwE4H+KvzH+xIRxd+tn03bt28E5sbmv12XQqM7c1t+NHmz/HzbXtQ0dntt+uqMR3AYX8KNgwAJCtYpgMC0fkPtq+tA/ft2IvbGASC0u6WDty59Qvc8+ku7G/rDMg9AjkdwGF/CkYMAKRI6+kATzv/8jmTcdr5073aI33vySDwo82f4xNLIxxcIqAZuyTh49pG3LzpMyzeuhM7W9o9voYgCDjtgukonzPZrfaBmA7gsD8FK24ERG4ZmA74+x1LcOBTNzYLqqiGwynhlpGFPt3Xm85/0R9vgagTccblZ+HFP/4Xx/d6Hkb2t3Xi/p37kRZVgfPzTFhQkINEA39d1NBtt+P9E/V49XgNGnr7vL5O3ohhuPLeq1E8oQSS0wmdUY+tKzYrvm9lTT2sTgm/nDACInzbLciTYf+SiaUc9idV8S8auc0YbcSPH3N/x8CXj52AThRwY6l3OwZ63PmfMwWLHrwZou7Lga2CMcNx33O/xCevrsbyf/4PvZ09HtfQ3G/FsiOVePX4CczNycL83GxuLxwghzo6saK6Dqtq69Frd3p9ndjEOFx02wKcfunsr7bLFUQRN9y/CA67A9s/+FTxGqstDTCKAn42boTXOwZyhz8KdgwA5BG1RgK8+uQ/qPMfIIgizrzibEw99zR8sOw9fPzSh7D12zyqBQB67A68VVmLtyprkR8fi3NysvC9XBOSjPwV8kWX3Y5PLI14p8qCQx1dPl1Lb9Bj2vkzcNGPFyA+JeE7r4s6ETf+4Wbo9LqAjwTwkz+FAv71Io8FeiTA10/+Q4lLisOCOxZi1sIzsPwfb2Lbyi1wejnRW9nVg8cPHsOyI5WYkZmOM0zpmJKRgiiR5w24o9/pwNaGVqy2NGJjQxNsPk64i6KAKfNPw4U/WoA0c5psWzVGAvjJn0IFAwB5xeMDhE7+QVQKAYHo/AdLN6fjhw/ehDnXnIN3/rMcu9buhCR51wFZHU6stjRgtaUBMXoR0zLTMDsrA1MyGQa+baDT/6SuEVsam30a4h8gCAImzJ6I82+5CLmleW6/T9SJWPTgzQDgVghYefIcCXdCADt/CiUMAOQ1b0KAAAGLSguGfD3Qnf9gw0bm47a/3o4Th6rx7hNvY+fqHV6PCABAr92Jj2sb8XFtI6J1OpySnowpaSmYkpECc2yM19cNZTXdffi0qQWfNrXi8+Y29Dk836lvKKIo4JSzyjH/xvORW+J+x/+NawQgBLDzp1DDAEA+GQgBSxf/FYe2H1Bs/3xFFTpsNvxoZCFidF9/Sm632vDInsNYX9/k1n196fwHyy3Nwy0P34baihq8/9S72P7hNjjsvnVUfQ4HNtU3Y1P9l/sJ5MRFY0p6KialJWNMSiJSjEafrh+sWvpt2NvWjh3Nbfi0sRW1Pb1+vb5Or0P5OVMw/wfnwVRo9vl63oSAbrsDd48tQbLR8NW/77I78K8DFVhRXefWfdn5U7AI2InY00f8IEEyODtcvR4dF42lG/4VqNuTyqx9VrdDAAAkGw2YmpGKtCgjanv6sK2p1e0DevzV+Q+ltb4Vn7z8Edb/by262/2309xguXExGJOSiLHJiRifmoRhcbEBuU+gVXb1YFdrO/a0dmBPWztqur1/ZE9OXFIcZl0yG2dcfhaSM1P8fn2nw4kn/+8/boUAAIjWiZiUloKMmCi0Wq3Y0diKLjdDIzv/8HPHzFvR2+U67D731m8RGxft9fUNel1iRkZGQHa/YgAgv/E0BHgjkJ3/YP29/djy7iasfvkjWI7WBvReI5Li8fNxI1CYEBfQ+/hLRUc3/rT7oM+r9pWYCs0468qzcep502GMDuyoiachwBvs/MNTKAcATgGQ3xijjbj9bz8JWAhQq/MHgKiYKJy+8AycvvAMHNl5GBv/tw7bPtwGa2+/3+91sL0Lt2/ZiWWzypEeFdydQ2NfP27f+kXAjlOOio1C+ZwpmHHxLBSNLw7IPYbi6XSAp9j5UzBiACC/ClQIULPz/7biCSUonlCCy356Fbat2oot72xCxRdHvH56YChddgdePnoCPx5V5LdrBsJLR0/4vfMXRQFF40tw6nnTMPmcqYj24dOST3UEKASw86dgxQBAfjcQAtzdLEjJ5HlT8cMHbtKk8x8sJj4GsxbMxqwFs9Fiacb2D7dh2wdbUbnvuF+uf7A9sEPq/nCw3X8jkQVjhqP8nCmYPGcKUrJT/XZdXwyEAEEQsG3lVp+vN3LKKNy25A52/hSUGAAoIIzRRtz+97vw0kPPY/2ba726hiAI+N6NF+C8my+E6O1+rAGSakrD3GvnYe6189BQ3YCdq3dg1/ovcGTnYTgd3j3jHqhhdX/q8aFGUSeieGIpymaOx8QzT0FGbqYfK/MfUSdi0R9uRk5RDpb/6y1ITu++n2ddNQeX/uRy6PTcE4KCEwMABYzeoMc1v7oeheOLsfwfb6Ctoc3t92YNy8LCu69E2azxAazQPzLzMjH3unMx97pz0dPRjT0b92DX+s+xf+t+dLa4XAcbERLTEjFqymiUzZqAMdPGIjYxNBY6CoKA+YvOR/GEErz66Cuo2n/c7fdmF5iw4I6FmDB7YuAKJPIDBgAKuOkXzMDkuVOw5rXV+PT9rag+UDnk/LkgiigaX4TTzpuOaRfMCMlPTrGJcZhy7lRMOXcqJEmC5WgtDm4/gAPb9uPwZwfR1Rr8w/y+iE+JR+mkkRhRPhIjJ4/yy/P6WiotH4n/e+HX+GLtTmx9bxP2bdk35KFSxpgojJwyCpPnTsGUeVO/OoSIKJgxAJAqjNFGzL1mHuZeMw/tjW2o3F+JjuZ2dLd3ISEtEYmpSSgYMxzxyeFz0p4gCDAX5cBclIMzLj8LNUdO4P6Fv9K6rIC6+/GfI6c4V+sy/Gpgy+EJsyfC6XDCctyCjsY2dLd3Izo+GsmZKcjON0HPg6EoxPAnllSXlJGMsoxkrcsg8pioE5FTlIOcohytSyHyGcepiIiIIhADABERUQRiACAiIopADABEREQRiAGAiIgoAjEAEBERRSAGACIiogjEAEBERBSBGACIiIgiEAMAERFRBGIAICIiikAMAERERBGIAYCIiCgCMQAQERFFIAYAIiKiCMQAQKQSQRBkX3eqVIcvlGpU+m8kouDBAECkkrikeNnX2/qtkCCpVI3nJEho7bfKtolPTlCpGiLyFQMAkUoSUhMh6lz/yrVZbdjX1qliRZ7Z09KJDpvd5es6vQ7xKQwARKGCAYBIJaIoILvAJNvm7/srYHUE32SA1eHE3w8ckW1jGm6GKHIKgChUMAAQqWj87Imyr+9v68Q923ajurtXpYqUVXX34O5tu3GwvUu23fjZE1SqiIj8Qa91AUSRZNLZ5Xj/qXdl2+xqbce167ajJDEOWTHR0Gm0sM4hSajr7cORjm631iaccla5ClURkb8wABCpaNjIfEyYPRE713wu206ChEMdXTjUIf+pO1hMPGsS8kYM07oMIvIApwCIVHbx7ZdCbwif7K036LFg8aVal0FEHmIAIFKZabgZV//qOq3L8Jsr770aWfnZWpdBRB5iACDSwLTzZ2DudedqXYbP5l0/HzMXnK51GUTkBQYAIo1ceudluPpX10Gn12ldisdEnYgFdyzEgjsWal0KEXkpfCYiiULQrAWzkVc6DK8/+goOf35I63LcUnrKCCy8+wrkjy7QuhQi8gEDAJHGho8txE+fvg97Nu7GtlVbsXv9F+hqDa7V//Ep8SibMQGT503FmGljtS6HiPyAAYAoSIydPg5jp4+D5HSiua4FbQ2t6GzugMOpzc6AOlFEQloikjNTkJadCkHkjCFROGEAIAoygigi3ZyOdHO61qUQURhjpCciIopADABEREQRiAGAiIgoAjEAEBERRSAGACIiogjEAEBERBSBGACIiIgiEAMAERFRBGIAICIiikAMAERERBFIs62A7TY7Vi57T6vbExER+cxmtWldgte0CwBWO9587DWtbk9ERBTROAVAREQUgRgAiIiIIhADABERUQRiACAiIopADABEREQRiAGAiIgoAmn2GKCo1yNzzpla3Z6IiMhn9R+thmSza12GVzQLAIJej5xLL9bq9kRERD5rXLMejhANAJwCICIiikAMAERERBGIAYCIiCgCMQAQERFFIAYAIiKiCMQAQEREFIEYAIiIiCIQAwAREVEEYgAgIiKKQAwAREREEYgBgIiIKAIxABARhQG9ACQZBcTpBVXv22+X0NknweGUVLunwelAYm8vYq1W1e4ZjjQ7DIiIiHyjE4Ap6TpMTdchP16E7mTfb3UCB9od2NLowJ42p9/v29LtxBcnHDjW7ES39euOPzVWRGG6iAm5esQY/XtPg9OBKceOYlLlMeS2tULn/PK/q19vwMGsbGwpKsbBzGz/3jTMMQAQEYWgnFgB1xcZkRXz3U/8RhEoS9GhLEWHQx1OPFthQ6fN90/oTgnYcsyGz6sdGOoDf0uPEy1VTuyqcWBWiR6jsnU+3xMAhrU045qtm5Da3fWd16LsNpTVVKOsphr7TDl4afKp6DH6OX2EKU4BEBGFmOHxIu4cFTVk5/9tpYki7h5tRJLRt6kBpwSs3GvFjqqhO//BrA4JHx2wYXuV78fkljTU49Y1Hw/Z+X/baEsNbv9kFeL6+32+byRgACAiCiHxegE/LDEgyoMP16lRAhaVGCD6kAG2Hbejosmz6YTNR+041uTw+p7JPT24dvN6GJzuXyOjsxPXbtkAQb0lCSGLAYCIKIScm6NHosHznjw/TsTUdO+G5Dv7JOyo9u7T/Lojdji8XIYwf88XiLXZPH5fcWMDxp+o8u6mEYQBgIgoRETpgKkZ3s+rn57l3bKvPbUOrzvxjj4Jx1s8f3Ncfz8mVnvfic88ctDr90YKBgAiohBRkiDC6MNfbXOsgBQv1gJ404EPVtni+TTAiPo6iJL3981vaUYcHxOUxQBARBQiMmN8/5OdHu15AGjt8S0AtPd6PiGf0dnh0z0FSXJr4WAkYwAgIgoRvnz6HxDt4QyCJMHr4f8BVrvnAcDg8H7x4IBoL9YPRJKABQBnaqfsihHJ158oIqII449n+bs87BMFAT5v6hNr8Lyr6YqO9u2mALqio3y+hhLJLh9U9Ab/7IUQCAELAJs3v9YLSC5DgNNmheRkCCAicldll28BwCEBNV4M52cl+NaJZSZ6Pu1QlZLq0z379QbUJyT6dA0lksMBp831OgOdToTRaAhoDb4I8BSAIDsB4+jtC+ztiYjCSE2PE/V93oeA3a0OWL343FWS6VtXUZrh+fuPp6ejLTbW63t+kZMHpxDYLs7RI9+HRccEfgTCFwH96khAq9zr/Q2Ngbw9EVFYkQB8UOPd8/hOCfig1rv3lmTokBLr3S5CJZkiUuI872qcgoiPR4726p4OUcTHo7x7ryf6G+X7sIRE7wOMGgIaAATgiNzr/XX1gbw9EVHY2d7swE4vHqtbWWtHTY93owc6ETh7lBE6D3uM+CgBp5d4v4Bg8/Bi7DeZPX7finET0BSf4PV93dVXVyf7uiknPeA1+CLQTwEckHux+3hlgG9PRBR+/nvUht2t7o/lr66zez1yMCA7QcD8sQYYdO6NBCREC7hovBExPkyBS4KA/06d5vYpf5IArBo1FmtLRnh/Uw/0HJffqCgnL0OVOrwV6DUA++Ve7dzPnZqIiDxlcwJPHbHijUobumUesWvql/DkYRveqrLDH1vjF6TqcPkkI4aluO46RAEYbdLhyvIor6cNBuvXG/DkzNOxYtwE9MosqGtITMRT007HB2PG+XxPd3UckO/DzMOCOwAE9jhgUVwPmUMcemtrYWtphSE1JaBlEBGFG6cErK13YFOjA2OSdSiMF7468a+5X8KhDicOdTgVT+7zVEqsgAvHG9HS7cSxZgkt3U7YnRKMegGZ8QKGp+sQH+V7xz+YUxCxesQobCwuxqhaC4Y3NyKhrxeSIKApLh5HMrNRkZEJp+Df+8qxNregr9Yi22b02OEqVeOdQH+1hGljr7cAyHLVIOeSi5A9/5wAl0FEROQ/dStWoubN5S5fT0lLxOMv3QfBx1Bi0OsSMzIyOn26iAuBXgMgQZBWyzVo3rgZkr8jKhERUYBITgnNm7bIthk3ocjnzj/QVNgKWHxF7tW+unq07fwi8GUQERH5QdtnO9Gn8BTbtNnjVarGewEPAP1Gw3sAZB+WrHvnPY4CEBFR0JOcEupWvCfbJik5HhPKS1SqyHsBDwA7djxuA/CiXJueqmo0r98Y6FKIiIh80rR+A3qqTsi2mXnmBOj1wXsGwABVTgN06rEEgOwRFDVvvgVbR0DWORAREfnM1t6B2jfekm2j1+tw3iUzVKrIN6oEgC07lx2XBPlRAHtXN4795ylA4gFBREQUXCSnhGNPLoO9u0e23aw5pyA9M1mlqnyjSgAAAKcdDwJwfWwSgM4DB1G7/F2VKiIiInJP7Vtvo3Of7N520Bt0WHDFbHUK8gPVAsDW/csOA3hEqZ3lnffR8JHsk4NERESqaVqzDnUrViq2u/iy2cg2p/n13l1dXbLT575QLQAAQH+U8UFIOK7U7sQrr6Nx7XoVKiIiInKtce16VL3wsmK7LFMqLr5qtr9vbxs+fLj8mcM+UDUA7NjxeI8o4AYAskdZSU4JVc+9CMvbKwCJjwcSEZHKJAm1b72LqudeVHxMXRRF3PbThTDKnFXgpQ5/X3AwVQMAAGzYs2yNIEi/c6dt7fJ3cfjRpXw6gIiIVGPv7MaRx/4Jyzsr3Gp/+XVnY/Q4/+/7LwCtfr/oIKoHAADYuHv4A4IA5QkVAB37DmD//Q+iZeu2QJdFRESRTJLQsvlT7PvN79C+e49bb5k0dSQuvuKMwJQD4XBALnySZhsVzx5za7xV6FkNYLK774kvKYbpwu8hcdTIAFZGRESRpmPfAVjefhddhyvcfk/JqDz85s83IjraGJiiBPzVnJ19V2AurmEAAIDZpTelW43W9QA86tHjCguQNnMaUssnQRcbG6DqiIgonDl6etCybQeaN2xC99HjHr03Jy8DD/z1R0hICmAfJAk3m81Zjwfq8pofVTRz4g0ZDpvzPUAo9/S9gkGP+KIiJIwcgfiiAkRlZcGYmgIE+QlMRESkMkmCtaUV/fX16Ko4hs4Dh9BVUQHJZvf4UsUjcvGLB29AYlJcAAodRHKOMpvNBwJ1+aDoKU9OB7wBYK6v1xINRojRUdDFREMXE+OH6oiIKFQ5envh6O2Ds68fTpvsXnRumVBeint+fTWiYwI07P81i9mUbQ7kDYIiAADAwoULdTX7434F4FfQaHEiERHRUARBwLkXTcO1N81X6aAf6b9mk+naQN4haALAgGljr5sLQXgGEgKafIiIiNyRmpaEH/9sIcpOKVbtngKk80wmk3vPIXp9jyBUVnZNXLxT91MA9wEI+DgLERHRt+l0Is654DRccd0cxMZFq3nrBlN2Vq4gCAHbBhgI0gAw4LRx148TJPxGELBAkoK7ViIiCg+iKGDqjDG47Jo5yCvIUr+AAD/+9/VtQsC9i/96tqDXfbBl3W6xvz+ggYiIiCJUVLQR02aNw4WXnY7c/EytyrBBcpaYzebKQN8oJAIAANRa6pf19vRdt3XDXqxfvRP7dx+D1cowQERE3ouKMmDUuOGYccYEnDpzrBqr++VJeNJszr5RjVuFTACobmgo0Tmce3ByTYDd5sDBfZXYu+soTlQ2oOZEIyzVTQwFREQ0JKPRAHNeBsy56cgryMTosiKMGDUMeoMaq/rd0q8ThdFZWVlH1bhZyAQAAKitrXsQAn4h16a/34benn709fajpztgpyhShPnPkjdRcajG5euVp5yHdlOpihWFriTLIeR/9q7L14tKc3DznQtUrIjCWWxcNKJjohATG4WoKL+f1udXEqTf5ZhMv1Hrfnq1buQPDoftAZ3ecCUAl8cuRUUZvvwmp8SrWBmFu/a2bvnXTaXoSs1TqZoQp3DCd0d7NwpLctSphSh4VAqS9Cc1bxhSG+7k5eX1CpB+AMChdS0UOaxWG1qa2mXb9MZnqFRN6OtNlF9c1dzYzqk8ijR2SM5rzWZzj5o3DakAAAAmk2mNAOF3WtdBkcNyoglOp+uPrdbYRDiMqj4jHNIchijYYhJcvu50SrDUNKtYEZHGBPzGbDavU/u2IRcAACA7O/MBQFqpdR0UGWpPyHdGvQmaPS4UspRGASwnGlWqhEhbEvCuKSvrIS3uHZIBQBAEJyTpEkjYpHUtFP6UOqM+hc6Mvks5AHAEgCLCNoNOvFIQBKcWNw/JAAAAX86VOC8EELCjEokAoLZGPgD0JqarVEn46EuQ/5rVcgSAwt9+SM75mZmZXVoVELIBAADMZnOTw26bLgCbta6FwpfSFABHADzXmyT/NautaVKpEiJNbBcFzDabzZr+oId0AACAvLy8Fp1OnAsBq7SuhcKT0hRAbyKfAPBUb4L814wjABS+pJV6nXhGdnZ2g9aVhHwAAIDMzMwuU1bWfAnS/QA0mUuh8NTV2YvODtdP5kiCiL74VBUrCg99CWmQBNd/fjrbe9DV2atiRUQBJwkQ/mTKzj5Py2H/wcIiAACAIAiOHJPpt5CEcwWgVut6KDzUVsuH9P6ENEhiSO2nFRQkUY9+heDEUQAKGwJqJFGYazJl3SsIQtDsYxM2AWCA2Zy1ShBQenI0wKp1PRTaak7IT9EpDWWTa4rTANVcB0Ahzw4JS6MMhtE5WVkfaV3Mt4VdAACA7Ozs7hyT6beigHJAegOcFiAvWRQWo3H+33t9SfJfO6WvPVEQcwLCawKkCWZz9h1paWkdWhc0lLAMAAOys7N3m02mSwVIZYDwLABVt1mk0Mc9AAJHaQMlbgZEIahbgrAMknOs2ZR1mclk2qt1QXIiYvLy5Dfh+sbGxsV2u32BJAhXQcJMADFa10bBTWkYmiMA3lP62ilNvxAFiR5AWidAfEmnE94MlgV+7oiIADAgIyOjE8CzAJ49fPhwVHx8/GmAeLoT0mhBwggIKAVDAZ3kzp70SjvakWt9CgFg4AwGUQypU8spvPVCwEFJwiERwl7Aubarq2tLSUlJv9aFeSOiAsBgJ79ha07+7yu1tbWxOp0uAUC8w+FI1qA0ChKr3t5islpt77h63aE3whqTqGZJYaU/NhlOnQGiY+iT/wZOYUzP9PjXcDsk5y0+F0gEQKfTtQHocjgcnWqf1hdoERsAXDn5De4BUK91LaSt6WOvnyP3el9iBiDw06nXBAF9iRmIbXX91G7tiSZvAkCG2Wze4VNtRBEgrBcBEvnCKUmlcq9z+N93SusAar1bB5BXXV3NqTwiBQwARC4IgigbAPq4B4DPlAKAReEgJhdEg8FQ7FVBRBGEAYDIBUFQGgFgAPBVn8KjgN5uBuR0CrLfOyJiACBySZLAEYAAUx4B8PJRQFE+vBERAwDRkM4tXhwFIF+uDUcAfKe0jqKhrhU2q93j60oSRwCIlDAAEA2hw9hRDEDn6nVbdALsUbEqVhSe7FGxsEfFuXzd6XSi3tLi8XUFhQWcRMQAQDQkp8IQcm9iulqlhD3FJwG8WQgoyE/fEBEDANGQFJ8A4COAfqO4DsC7hYDp1dXV8ucNE0U4BgCioSgsAOT8v/8oLaas8XIhoMFg4CgAkQwGAKIhKUwB8AkAv1EeAfDuVEBJkkZ49UaiCMEAQDQk+VXknALwH6WvpbePAkqCUOLVG4kiBAMA0bdMmnRTEgDXvZIgoC8hTb2CwlyvwpkKba1d6Onu9fzCfBSQSBYDANG3GPv6ZIeO++JS4dQZ1Con7Dl1BvTHyh/4U3tC/ljmoQjgFACRHAYAom8RBFE+AHABoN8pfU1rT3i+DkACSiRJ4t84Ihf4y0H0LYIE2bljPgHgf4oLAb0YAQAQY7FYcr0qiCgCMAAQfYuksIkMFwD6n9JTFV5tBgRA0um4DoDIBQYAou+SnQLoTeAugP6mFKq8PRVQdDoZAIhcYAAg+iYBkGTPku9N4giAvyluB3yiEZIkeXxdHgpE5BoDANEgU8sW5QBCvKvXnTo9rAor1slz/fGpkES969f7rGht6fD8wgIDAJErDABEg+gcDvn5/4R0SAJ/bfxNEkT0xctv3e/dNABPFLsM2gAAB8lJREFUBSRyhX/JiAYRBIUtgJOy1Col4vQqrQPwbkfAgmPHjkV7VRBRmGMAIBrEqXCOPBcABo7S2govTwXURUdHF3pVEFGYYwAgGkRQmDPmI4CB06cQrizePgooyR/tTBSpGACIvomnAGpEaQqgptqrzYAgCXwUkGgoDABEJ02adJMBQIFcG44ABI7SdsANdc2w2x0eX1fgo4BEQ2IAIDop2mYvBODylB+7MRa26DgVK4os1phEOIyu1+s5HE401rd4fmGFhZ1EkYoBgGiAwyG/AyDPAAi43niFDYGqvFkIyBEAoqEwABCd5BTkF4tx+D/w+pLkFwLWeLcQMOvYsVbu3kT0LQwARCcpngLIBYAB15sgH7LqvDsVENHRfbLfW6JIxABANECQ5KcAkhgAAk1pL4CaE14/Cij7vSWKRK433ybyo0mTbjJEWfvKBUk3zAkpWxAQfLuzSRgn93JS/RFEd3n3CZTcE9Ulv8iv8qgFb72y1uPrVlfWXT9t3PU53talRJLQJ0KySIJUbUwr3LZmzW/tgboXkb8IWhdA4W3G6BumOkVpMYD5AFK0rodIBa0A3pMk59LNe5/7VOtiiFxhAKCAmDX2hjy74HwUknAJ+HNGkUkSgNftov6urbuePKF1MUTfxj/M5HfTxl17miCJb0pAtta1EGlPaoKASzbtfnad1pUQDcYAQH41fcy1Z0iC+D6AKK1rIQoi/SIwb8OeZWu0LoRoAAMA+c2ssmuG2526rQC4XJ7ou1okSTd1896njmhdCBHAxwDJjxxO3X/Bzp/IlVQBjqe1LoJoAAMA+cVpY6+9WAKma10HUVATMHP6mOsu0LoMIoD7AJCfCBDvVW4koCNjOLrT8uAU+aNH4UN02hDXXI3ExuOAJMm2lQTxXgBvq1IYkQyuASCfTS1blKtz2qsg8/NkjU3EwZnXozNzuIqVEakrseEoStc9C2Nvh1wzp2AT8zYefLpWrbqIhsIpAPKZzmE/FzKdvyTqse/Mm9n5U9jryCzE/jNvgiTq5JqJMDjOVasmIlcYAMh3olAs93Lj8FPQk2JWqxoiTXWn5qCp4BT5RpL87wyRGhgAyHeSZJJ7uT2Lf+sosrRnKxw+KAhMxKQ5BgDymQTInrXuiIpVqxSioGBX+Jl3QuK5GKQ5BgDymQB0y70u2q1qlUIUFESb/M+8IEhdKpVC5BIDAPlOguxq5vimSrUqIQoKCU3H5RtIIp8AIM3xYWzymSSgSu550qwjW1Ez5izYYhJUq4lIK8aeDmQelT8F+MxzJ5W89uEffj7wz4Ig9ElAnSQIVTmZmdsEQbAHvFCKeNwHgHx26thrRonQ7ZNr05WahwNn/BDW2CS1yiJSnbGnHaM+eRJxLfKn/y595h6Yc9NdvCq0QpBWCJL0N5PJJJ8kiHzAAEB+MW3M9QchoFSujcMQhcbCcnSl5cOhN6hVGlHA6ew2xDdXIqNiG3QKa15yh2ViyVN3uXNZCRBedzpsd+Xm5sonCiIvcAqA/EMQlgDSP+Wa6Gz9yD64EcBGlYoiCj7fu8TtIzMEQFoo6vRn1NbWXmI2m9cFsi6KPFwESH5hTM9/AhD2a10HUTAz56bjzHMme/q2dAjiBxaL5fRA1ESRiwGA/GLNmt/aRUm4CQCf+SMagl6vw633XAqdzqs/u9EShDerGxq4qxb5DQMA+c2GvU9vEL4MAUT0LYsWX4iRYwp8uUSqzuF42k/lEDEAkH9t3PvMs5KA7wPo07oWomCgN+hw692X4uz5U/xwNWFmTV3d+X64EBGfAqDAOHXMddNFQXwCkEZpXQuRVnLzM3HrXZegdHS+364pAJtNpuxpfrsgRSwGAAqY2bN/q7c2Hr8BAhYDGKd1PURqyS804XsXTcPscyZBFP0+0Co5HfZhfDSQfMUAQKqYMe4HhQ5IcwRJGiZAyAWkmIHX8vKzCnPzMydpWR+RL4zRBqSlJyMtMwkTJpUgMzs1oPeTBCzKyc5+KqA3obDHAECas1jq/yRB+pnWdRCFDAl/NJuzf6F1GRTauAiQNCcJEs9GJ/KEIOVoXQKFPgYA0pwggQcEEHlAgJCidQ0U+hgAKBh0a10AUSiRJHRpXQOFPgYA0pwEiWejE3lAEqQarWug0McAQNoThCqtSyAKKfydIT9gACDtOZ2rtC6BKJRIdt0HWtdAoY+PAVJQqLVYDgJCqdZ1EIWA/WZT9miti6DQxxEACgoCxCVa10AUEiSBvyvkFxwBoKAgSZLeUle/CwDPDiBySThoys4cKwiCXetKKPRxBICCgiAIdkjiTQCsWtdCFKSskhM/ZOdP/sIAQEHDbM7cIEC6Ses6iIKShB/n5GRt1LoMCh8MABRUTCbTsxDwfQB9WtdCFCT6JQE/NJuzn9C6EAovXANAQammpn66IEpPgGsCKLLtc4rCotysrM1aF0LhhwGAgpYkSXqLpf4GCFgMYJzW9RCpRQB2OQUsNWdlLRMEwaF1PRSeGAAoJNTX1xc6HJgDSMMgSLmAGKN1TUT+4+yFJJwAhCqdDh9mZWUd1boiIiIiIiIiIiIiIiIiIiIiIiIiIiIiIiIiIiIiIiIiIiIiIiIiIiIiIiIiIiIiIiIiIiIiIiIiIiIiIiIiIiIiIiIiIiIiIiIiIiIiIiIiIiIiIiKikPH/MIAhgVxiYP8AAAAASUVORK5CYII=;rotation=0;" vertex="1" parent="1">
          <mxGeometry x="544" y="-709" width="40.5" height="40.5" as="geometry" />
        </mxCell>
        <mxCell id="xJq50svPVDuNathHTJY8-55" style="edgeStyle=orthogonalEdgeStyle;rounded=0;orthogonalLoop=1;jettySize=auto;html=1;entryX=1;entryY=0.5;entryDx=0;entryDy=0;entryPerimeter=0;" edge="1" parent="1" source="xJq50svPVDuNathHTJY8-52" target="xJq50svPVDuNathHTJY8-24">
          <mxGeometry relative="1" as="geometry" />
        </mxCell>
        <mxCell id="xJq50svPVDuNathHTJY8-56" value="Load website" style="edgeLabel;html=1;align=center;verticalAlign=middle;resizable=0;points=[];" vertex="1" connectable="0" parent="xJq50svPVDuNathHTJY8-55">
          <mxGeometry x="-0.0931" relative="1" as="geometry">
            <mxPoint as="offset" />
          </mxGeometry>
        </mxCell>
        <mxCell id="xJq50svPVDuNathHTJY8-52" value="Client" style="shape=image;verticalLabelPosition=bottom;labelBackgroundColor=default;verticalAlign=top;aspect=fixed;imageAspect=0;image=data:image/png,iVBORw0KGgoAAAANSUhEUgAAAgAAAAIACAYAAAD0eNT6AAAABHNCSVQICAgIfAhkiAAAAAlwSFlzAAAOxAAADsQBlSsOGwAAABl0RVh0U29mdHdhcmUAd3d3Lmlua3NjYXBlLm9yZ5vuPBoAAB0kSURBVHic7d17kJ1nfdjx33POWe1KtqybZXwFmztDm2RCMBA3XJIpJe5Qx8ZyjGMoNGkYrsZ2HDJp0uqPTiY1EAcn04RhUhpiQiqwAmlKEs8A4tImDU24JICNHezgG7allfaivZ73ffqHbSLbuqyk3fPsnufzmdGMLO2e3zOz1p7vPuc87xsBAAAAAAAAAAAAAAAAAAAAAAAAAAAArKC00gN27NixrtPpPCu63Re0OT+3E7E1ct6UU9oYEb2Vng8AR7PY778wN81Ym3O/zXkh9/tTi/3+1OLi4lTk3K7w+H6b0lQnYiLnPJ4j7sidzu1P27LlHz7+8Y8vrOTgFQmAHVdd9UMp55+MiB+PlH40ct6wEnMAYCUtLizEwmO/FhcXBzY3R8ykiP8dEZ9NOf/Z5z73ua8t94xlC4DXv/71pzcR/zYe/fXPl+txAWA1aJom5mZnY3Z2Ntp2pTcGnihHfL2T0u/npvnInj179i7HY550AFz6hjecMdI0b4ucr42I05ZhTQCwqs3NzcXB6elommbQow/mlH6vm/ONn/3sZ+8/mQc64QB405veNDazsPBLkfN7ImLsZBYBAGtNzjnmZmdj+uDByAPeEYiI2ZTSr+emuXHPnj1zJ/IAJxQAV1555U+0KX0wIp51Ip8PAMOibduYmpyM+fn5EuPvzCm95fOf+cznjvcTjysAduzY0U0jI78aOf9KRHSPdxgADKu5ubmYmpyMnPOgR+eIuHH7tm3/4eMf//iSX5NYcgBcddVVWxZz3p0iXnkiqwOAYbe4uBgTExPRDv69AZEjPpva9nV79uw5sJSPX1IA7Nix48zU6/15RPzgSa0OAIZc0zRxYP/+Em8QjIj4RrTta/bs2XPfsT7wmAGwY8eOp6de7/MRcf5yrAwAhl1u2xjfvz+afr/A8Hx3OzLyii/cdtu9R/uwztH+8tI3vnHbYz/5n7+cawOAYZY6ndiyZUt0ugXeLpfSBZ1+/zOvfvWrzzjahx0xAN70pjeNjSwufjoiXrDsiwOAIdfpdGLzli2ROkf9WXulPGehaT71yle+8ojH9I+4qtm5uQ9ExIUrsiwAqECv243TTit0jbycX5q73fcf6a8Puzdxxetff0Wk9OsrtyoAqEOv14uc80DvJfC4FPHiC84//8577rnn7w7zd0906RvecMZIv397RGwZyOoAoAL79u4tdTJg/7pe7/m33Xbbw4f+4VNeAhjp998bnvwBYFltLPVSQMSWxX7/Kbv6T9gBuOJnfuaiaNsvPvnPAYCTNzExEfNzJ3Tp/pOVc0oXff4zn/nLx//giTsAbfufwpM/AKyIU045pdTolNr2Px76B98PgB1XXXVhRPzLgS8JACrR6/Vi3ehomeEpveYVP/ETL378PzuH/Oa6MisCgHps2LCh2OxOztc+/vsUEbFjx45Nqdd7MCLWF1sVAFSi4ImAuWjbs/bs2XOgExHR6fWuDE/+ADAQo2NHvEDfShuLbvd1EY+9BJAjLi21EgCozVi5AIic82UREWnHjh3rUq83HhHF3poIADXJEbHvkUeibdsS46enJia2drrd7kvCkz8ADEyKiJF160qNP3XTpk0v7jQpvfjYHwsALKeRXq/Y7Dbiwk4n5+cVWwEAVKpbMAAi4nmdnNLzS64AAGpUPAAi4pySKwCAGnU7T7kf3yCd14mIYrcnAoBapVT01jsbOxFxaskVAECtUqFdgByxsRelrgCYUmx6+X8uMhoAIiJydyzGH/pOLC4O/ha9bdtGjP9WRHtw4LNTxIZy70DIEb1NFxQbDwAREe3UbLQLgw+AiIjodMvMjUPuBggA1EMAAECFBAAAVEgAAECFBAAAVEgAAECFBAAAVEgAAECFBAAAVKhcAJS9CQIAVM0OAABUSAAAQIUEAABUSAAAQIUEAABUSAAAQIUEAABUSAAAQIUEAABUSAAAQIWKBUByKWAAKMYOAABUSAAAQIUEAABUSAAAQIUEAABUSAAAQIUEAABUSAAAQIUEAABUSAAAQIWKBUDOpSYDAHYAAKBCAgAAKiQAAKBCAgAAKiQAAKBCAgAAKiQAAKBCAgAAKiQAAKBCAgAAKlQuAFIqNhoAamcHAAAqJAAAoEICAAAqJAAAoEICAAAqJAAAoEICAAAqJAAAoEICAAAqVCwAkisBAkAxdgAAoEICAAAqJAAAoEICAAAqJAAAoEICAAAqJAAAoEICAAAqJAAAoEICAAAqVCwAci41GQCwAwAAFRIAAFAhAQAAFRIAAFAhAQAAFRIAAFAhAQAAFRIAAFAhAQAAFRIAAFChYgGQUio1GgCqZwcAACokAACgQgIAACokAACgQgIAACokAACgQgIAACokAACgQgIAACokAACgQuUCwKWAAaAYOwAAUCEBAAAVEgAAUCEBAAAVEgAAUCEBAAAVEgAAUCEBAAAVEgAAUKFyAZCLTQaA6tkBAIAKCQAAqJAAAIAKCQAAqJAAAIAKCQAAqJAAAIAKCQAAqJAAAIAKCQAAqFC5AEip2GgAqJ0dAACokAAAgAoJAACokAAAgAoJAACokAAAgAoJAACokAAAgAoJAACokAAAgAoJAACokAAAgAoJAACokAAAgAoJAADqlksvoAwBAAAVEgAAUCEBAAAVEgAAUCEBAAAVEgAAUKGCAZDKjQaAytkBAIAKCQAAqJAAAIAKCQAAqJAAAIAKCQAAqJAAAIAKCQAAqJAAAIAKlQuA5EqAAFCKHQAAqJAAAIAKCQAAqJAAAIAKCQAAqJAAAIAKCQAAqJAAAIAKCQAAqJAAAIAKFQuAlEtNBgDsAABAhQQAAFRIAABAhQQAAFRIAABAhQQAAFRIAABAhQQAAFRIAABAhQQAAFSoWADklEqNBoDq2QEAgAoJAACokAAAgAoJAACokAAAgAoJAACokAAAgAoJAACokAAAgAoJAACoULkAcClgACjGDgAAVEgAAECFBAAAVEgAAECFBAAAVEgAAECFBAAAVEgAAECFBAAAVKhYAKRcajIAYAcAACokAACgQgIAACokAACgQgIAACokAACgQgIAACokAACgQgIAACokAACgQsUCIKdUajQAVM8OAABUSAAAQIUEAABUSAAAQIUEAABUSAAAQIUEAABUSAAAQIUEAABUSAAAQIWKBUByKWAAKMYOAABUSAAAQIUEAABUSAAAQIUEAABUSAAAQIUEAABUSAAAQIUEAABUSAAAQIXKBUAuNhkAqmcHAAAqJAAAoEICAAAqJAAAoEICAAAqJAAAoEICAAAqJAAAoEICAAAqVCwAckqlRgNA9ewAAECFBAAAVEgAAECFBAAAVEgAAECFBAAAVEgAAECFBAAAVEgAAECFBAAAVKhYACSXAgaAYuwAAECFBAAAVEgAAECFBAAAVEgAAECFBAAAVEgAAECFBAAAVEgAAECFeqUG58XZmPnmx0qNB4DI3dHoTo1HWpwd+Oy2bSPahYHPfVy5AGjmY/au/1lqPABERET3sV8lpGYhcqHZXgIAgAoJAACokAAAgAoJAACokAAAgAoJAACokAAAgAoJAACokAAAgAoJAACokAAAgAoJAACokAAAgAoJAACokAAAgAoJAACokAAAgAoJAACokAAAgAoJAACokAAAgAoJAACokAAAgAoJAACokAAAgAoJAACokAAAgAoJAACokAAAgEI6nXJPw70fu+ilt4+NjT4rpRgptgoAqNBDDz4UTdMMfG7btAfTl//vF/LAJwMAcf8DD0bTtEVmewkAACokAACgQgIAACokAACgQgIAACokAACgQgIAACokAACgQgIAACokAACgQgIAACokAACgQgIAACokAACgQgIAACokAACgQgIAACokAACgQgIAACokAACgQgIAACokAACgQgIAACokAACgQgIAACokAACgQgIAACokAACgQgIAACrUK70AYDC63V5s3HharN9waoytXx+dzqP937ZtzM3OxszMdExPTUTTNIVXCgyCAIAhd+rG0+LMM8+NTZu3RkrpqB+bc46JA+PxvQfvi+npyQGtEChBAMCQWr9+Q5xz7vmxecu2JX9OSik2b9kWm7dsiwP798V9994Tc3MzK7hKoBQBAENo67btcf4Fz/3+Nv+J2LxlW2zavCXuufuu2Lf3oWVcHbAaCAAYMueed0Gceda5y/JYKXXigmc+N9av3xD33Xv3sjwmsDo4BQBD5Oxznr5sT/6HOvOsc+Oss5++7I8LlCMAYEhs2XJ6nH3OM1bs8c859xmxdev2FXt8YLAEAAyB3shInP/M5674nGdc8Ozo9UZWfA6w8gQADIGzz356dLvdFZ/T7fbi7HO8FADDQADAGjc6OhbbzzhrYPO2n3FWjI6ODWwesDIEAKxx288485gX+FlOKaU4ffvTBjYPWBkCANa4zVtOH/jMLVsHPxNYXgIA1rB169bF2Nj6gc8dG9sQIyPrBj4XWD4CANawsfWnFJu9fv2GYrOBkycAYA1bt2603GxvBIQ1TQDAGjaIo3+rcTZw8gQArGE552Kz27YtNhs4eQIA1rB+f7HY7KbfLzYbOHkCANawubnZgrNnis0GTp4AgDVsduZgtG0z8LlN08TsrACAtUwAwBqWc47JyYmBz52aPFD0/QfAyRMAsMbt2/tQgZkPD3wmsLwEAKxxB/bvi9nZgwObNztzMPbv3zuwecDKEACwxuWc47577xnYvPvuvXtgs4CVIwBgCEwcGI8DB8ZXfM6B/ftiYmL/is8BVp4AgCFx9z/cvqIvBczNzcTd3/n2ij0+MFgCAIZE0zRx153fisXFhWV/7MXFhbjzjm9E07j4DwwLAQBDZH5uNr71ja/EwYPTy/aYMzMH41vf/GrMz88t22MC5QkAGDILCwtxx7e+Fnsf+d5JP9Yjj3wvbv/mV2Nhfn4ZVgasJr3SCwCWX9u2cc/dd8ZD37s/zj7nGbFl6+nH9fmTkwfivu9+J2ZmBne8EBgsAQBDbHZ2Jv7hrm/F+vUbYuu27bHxtM2xYcOp0ek8cfOvbduYmZmOyYkDsX/8EZf5hQr0IqIfQgCG2uzsTNx/3z9GxD9GRMS6daPR7XYj4tE3Dy4s2OKHEgpeULvfi4jpiNhcbg3AoHnCh9Uht8USYLITjwYAADBAOUfJm2pNdSKyi3oDwIC1efC38j7Evk5EurPkCgCgRouLBS+slfK3OznH7eVWAAB16pcMgDbd0YlO/vtyKwCAOpXcAUiRvtEZXeztiaInEQCgPnPlLq+du+vaL3R+8KKLHo6Ib5ZaBQDUpmmbkjsAf3fJJVc91ImIyDn9ealVAEBt5mYLXovjsef8R68H2uncUm4lAFCXgwfLXW47p/ajEY8FwIUXXvTViPh6sdUAQCWatom5QnfYzJG+evnlV3094pDbAacUv1tkNQBQkenpcnfZ7ET+4D/9/jGbtkz/t0jxQJklAcDwa3OOqXIB8ODE1Nx/f/w/vh8Az3nOxfMp8m8UWRIAVGB6ajrapi0zPOUb3/zmN3//7OETbgq+acvB346IOwa+KAAYcm3bxORUsfvv3TU5Of+El/qfEADPec7F8ynndw12TQAw/Pbvn4y2LfPTfyendx3603/EkwIgIuJHXvqK2yLiYwNbFQAMubm5+Tg4U+joX8ofvXTHlX/25D9+SgBERGyYaX4+vBQAACetbZvYN76/1Pi7Zmfbtx3uLw4bAC981aumUxtXRUSxCxUDwDDYu3d/NE1TYvRsp213XH311ZOH+8vDBkBExI+87OV/G23+6YgoeL9CAFi7xvcfKHXRnybldPWlV/zMV4/0AUcMgIiIF7/sFX+SUxx26wAAOLKJicliF/3Jkd592Y4rdx/tY44aABERF1748g/lnP5d2AkAgCWZnJyKicmpEqObFPHWyy+/8reP9YFpqY/45b/6wiWR4o8iYuyklgYAQ2x8/4FSP/nP58hvvPzyq3Yt5YOXHAAREX/zV198UZvy/4iIZ53Q0gBgSDVNG+Pj4zE7V+Q1/+9GSj/9utdd+VdL/YTjCoCIiK985XOb+/O934uULzvezwWAYTQ3Nx/7xsejKXKZ33Rrpzv7c5de+uYDx/VZJzrur//6i6/t5Hxzjjj/RB8DANaytm3jwIHJmD5YZMv//pTTL1+248qPnMgnn3AARER87Wt/ccr87PrrU4prImLryTwWAKwVOeeYmp6OycnpEpf3HY8cv7lu7NT3v/a1rz3hywueVAA87ktf+tLG0ZH2rSnirXYEABhWTdvE9PRMTE0VeeK/J1L+nV7vlN+55JJLTvqIwbIEwONyzunLX/7iyyPH1SnFxZHj7OV8fAAYtKZtYm52PmZmZgb/Br8cD+QU/yulzi2XXXbFF1NKebkeelkD4Mn+5i8//4LcTa/MOX4gIj0vRfvcHOmMiBhZybkAcCKapo1+vx/9xcVYWFyM+fmFWFhcHMToxYh4OHLckVN8OyJ9PaL93OWXX3X7Sg1c0QA4kjvv/PTo+Pi6Uzud0U0l5sPJePDBh7fdf/8DfxmRu6XXQkREas455+yXnXXWGftKr4S1ad++AxtnZg4u5NwM/PxeSv2JsbHt0xdffPHgZw96IKx1N930vjdE5BN61y0rI6V4w7vffcMtpdcBa8kxLwUMPFn7k6VXwFP4msBxEgBwHHbt2tWNSK8uvQ6eKOd4zaNfG2CpBAAch/vv/8cLI2Jb6XXwFFvvvffeF5deBKwlAgCOj63mVSqlxtcGjoMAgOPjSWaVSin52sBxcAoAlujmm39te9OMfC+E82rV9vtx1g033PBw6YXAWuAbGSxR06x7Tfg3s5p1RkbCGzRhiXwzgyVz/G8N8DWCJRIAsASO/60NjgPC0gkAWALH/9YMxwFhiQQALI2t5TXCcUBYGgEAS+NJZY1wHBCWxjFAOAbH/9YcxwFhCXxDg2Nw/G/NcRwQlsA3NTgmx//WIF8zOAYBAEfh+N/a5DggHJsAgKN47EiZ439rj+OAcAwCAI7CkbK1y9cOjk4AwFGklC4uvQZOjOOAcHSOAcIROP635jkOCEfhGxscgeN/a57jgHAUvrnBETn+NwR8DeEIBAAchuN/w8FxQDgyAQCH4fjf0HAcEI5AAMBhOEI2PHwt4fAEAByGI2TDw9cSDs8xQHgSx/+GjuOAcBi+wcGTOP43dBwHhMPwTQ6eJKW4rPQaWHZeBoAn8RIAHGLXrl3dbqd5KJwAWHY557j/gQejbdsS48fPOecZZ1xxxRVNieGwGtkBgEN0u63jfyskpRRjo6OlxjsOCE8iAOAQKbv630oaWz9WbLbjgPBEAgAOkcPd/1bS+rGSAeA4IBxKAMBjdu3atT0ifrj0OoZZt9uNkZGRUuNf9N73vveMUsNhtREA8Jhut3H8bwAK7gI4DgiH8M0OHpOyo2KDMFbwZYBwHBC+TwBAPHr8L4efDgdhbGw0Op0y33rcHRD+iQCAiOhF/8Jw/G9gRkfXlRrtOCA8RgBAROSud4gP0vqx9cVmOw4IjxIAEBHh9f+BWl/0egBiDyIEAMSuXbvODMf/Bqr0ccAbb7zxzFLDYbUQAFSv02kvD/8WBm7DhmIvA3RGRuJ1pYbDauGbHtVLKf906TXUaMP6DQWnpx0Fh8OqIACo2q23fvQZkeNHS6+jRiMjvVi3rthpgB97//vff16p4bAaCADq1nbfGf4dFLPx1FNLje50Ou3bSw2H1SCVXgCU8qlPfWpjf3Hm3ojYVHotNbv/gQejaZoSow+sW7fhvLe//e3TJYZDaX7yoVr9/sGfD0/+xW3cWGwXYPPCwszPlRoOpdkBoEp/+tGPbpkf7dwZrv5XXM45HnjwoWiafonx4zl3n3PdddeNlxgOJdkBoEoLo+lXwpP/qpBSis2bTis1fmtKzS+WGg4l2QGgOrt3/9ELcpu/EhGjpdfCP3no4Ydjfn5h4HNTirmm6fzg9ddf/+2BD4eC7ABQlZ07d3Zymz8UnvxXnW1bt0RKg/+ZJOcY63ab33eXQGojAKjKD7zweTdExEWl18FT9XojsanQSwE5p5fed993311kOBTiJQCq8YlPfOwlKeLz4af/Ve2RR/bG7NxcidHzKaUfe/e7f+HLJYbDoNkBoAq7d3/kjBTxifDkv+ptO31r9HpFduNHc8633nzzr20vMRwGTQAw9Hbt2rUu55FdEXFu6bVwbJ3UidO3nV7k/QARcV6/3/vYBz/4wWK3KoRB8aYXhtrOnTs7Zz5t6y0R8a9Lr4Wl63a7MTY6GjMzswOfnVJ65uLi3LNf9rKL/njPnj154AuAAbEDwFD7gX/23N+ICHf7W4NGR0dj29athaan12/efMpvFRoOAyEAGEo557T7E3/4mznSNaXXwonbsGF9bNtW7Hjg22666b3vzzl7szRDyf/YDJ1du3Z1u53mgxHxs6XXwvKYnZ2Lvfv2Rc5FduQ/MjFx8Gd37txZ5FrFsFIEAENl165dp3Y77R9E5J8qvRaW1/z8fDyyd1+0bTvw2TnHraeccvCNb3nLzpmBD4cVIgAYGp/85MfOa5r0x5Hzi0qvhZXR7/fjkb37YnFxscT4r/d68VPvfOcNd5cYDstNADAUdu/+w9fknP4gcpxeei2srLZtY3z//iInBCLikZzz1ddd94u3lRgOy0kAsKZ9+MMfHjvttLGdkeOG8KbWqszMzsT4vgPR5oG/JJAj8of6/XTdDTfccHDQw2G5CADWrN27/vAVuZN+NyKeX3otlNHvNzG+f3/MFbh0cM7xzW43veWaa37hSwMfDstAALDm3HrrH5wVufdfIuLq8P8w8egpgfH9B6JpBv9G/ZzTn+ac3nb99dffO/DhcBJ882TN2L3797flvO66yPmdEWlj6fWwuuScY3r6YExOTUXTNIMeP5Vz/kBE76brrrtufNDD4UQIAFa9T33qY2f3F+IdkfI7PPFzLI+HwNT0dPT7A98RmMw535zSyH+99tprHxz0cDgeAoBVaefOnZ0XvvB5r+qk9NaIfElE9EqvibVndnYupg9Ox+zswN8jsBiRPhmRf3di4uCenTt3Dv7iBXAMAoBV49Of/vTo3NyBl7dtuixF/FREnFl6TQyHpm1jbnY2ZmZnY25uIfJgTw48GBGfjIjd3e7oF9/1rnfND3I4HIkAoIhbbrnltPXre8/OuX12SumHI8e/iIgfiYjR0mtj+C0sLMT8/HzMLyxEv99Ef7E/kOOEKcVczvH/Ukpfatv8lZTyXQsL+c73vOc9Uys+HJ5EABRw0003XpRSXNq2neellJ8WFZxf73S627rdztNyzt1OSt1wK2pWme/fZSDnyPHoBYcGeNnhJufcRKTxlOJ7ETHwdzEW0OacHup02jtS6u6+5prr/0/pBdVGAAzQzTff+Ky27Xwo5/yq0msBWGU+G9H799dee+13Si+kFgJgQD7wgfe9qG3zX0TEttJrAVil9kbkf3Xttb/4t6UXUgMBMADve9/7Tu9281cj4pzSawFY5e4bGVn8oXe845f3lV7IsBv6155Xg04n/2p48gdYinMXF3u/WnoRNbADsMJuvvnm0aaZfyQiXMAGYGmmJyYObt+5c+fgb/JQETsAK6xp5l8WnvwBjsepmzefemHpRQw7AbDi0nmlVwCw9uSnl17BsBMAK+zRs70AHI+2jcHf2rEyAmCFdbude0qvAWCtydn3zpUmAFbY/v1Tfx0RjrMALN3e884778ulFzHsBMAK27lzZz8ifqv0OgDWkJuvuOIKL5+uMAEwAP1+vC/n+GbpdQCsAX/f78dvlF5EDVwHYEBuuummZ0b0b4uIZ5VeC8AqdVevF69+5ztvuLv0QmpgB2BArr322u+MjCy+JKX4cNRxpy+ApWpyjt/LufsST/6DYweggA984NefnnP33+Scnh8RZ5ReD0AhD6eUb0+p+ZNrrvml75ZeDAAAAAAAAAAAAAAAAAAAAAAAAAAAAMAy+v+gWFNBngjy6AAAAABJRU5ErkJggg==;rotation=0;" vertex="1" parent="1">
          <mxGeometry x="840" y="-709" width="40" height="40" as="geometry" />
        </mxCell>
        <mxCell id="xJq50svPVDuNathHTJY8-57" style="edgeStyle=orthogonalEdgeStyle;rounded=0;orthogonalLoop=1;jettySize=auto;html=1;exitX=0;exitY=0.5;exitDx=0;exitDy=0;exitPerimeter=0;entryX=0.5;entryY=1;entryDx=0;entryDy=0;" edge="1" parent="1" source="xJq50svPVDuNathHTJY8-11" target="xJq50svPVDuNathHTJY8-22">
          <mxGeometry relative="1" as="geometry">
            <Array as="points">
              <mxPoint x="564" y="-280" />
            </Array>
          </mxGeometry>
        </mxCell>
        <mxCell id="xJq50svPVDuNathHTJY8-58" value="Get course details" style="edgeLabel;html=1;align=center;verticalAlign=middle;resizable=0;points=[];" vertex="1" connectable="0" parent="xJq50svPVDuNathHTJY8-57">
          <mxGeometry x="-0.155" relative="1" as="geometry">
            <mxPoint as="offset" />
          </mxGeometry>
        </mxCell>
        <mxCell id="xJq50svPVDuNathHTJY8-60" style="edgeStyle=orthogonalEdgeStyle;rounded=0;orthogonalLoop=1;jettySize=auto;html=1;exitX=1;exitY=0.5;exitDx=0;exitDy=0;entryX=0;entryY=0.5;entryDx=0;entryDy=0;" edge="1" parent="1" source="xJq50svPVDuNathHTJY8-59" target="xJq50svPVDuNathHTJY8-22">
          <mxGeometry relative="1" as="geometry" />
        </mxCell>
        <mxCell id="xJq50svPVDuNathHTJY8-61" value="Content editing" style="edgeLabel;html=1;align=center;verticalAlign=middle;resizable=0;points=[];" vertex="1" connectable="0" parent="xJq50svPVDuNathHTJY8-60">
          <mxGeometry x="-0.2236" y="1" relative="1" as="geometry">
            <mxPoint as="offset" />
          </mxGeometry>
        </mxCell>
        <mxCell id="xJq50svPVDuNathHTJY8-59" value="Content author" style="shape=image;verticalLabelPosition=bottom;labelBackgroundColor=default;verticalAlign=top;aspect=fixed;imageAspect=0;image=data:image/png,iVBORw0KGgoAAAANSUhEUgAAAgAAAAIACAYAAAD0eNT6AAAABHNCSVQICAgIfAhkiAAAAAlwSFlzAAAOxAAADsQBlSsOGwAAABl0RVh0U29mdHdhcmUAd3d3Lmlua3NjYXBlLm9yZ5vuPBoAACAASURBVHic7N13nFTlvT/wz3Omz87M9l3YhV360kSKSEDEihpbLKiIsaWYqNdIiz/vvckNSW5uiho1VWMSowYW1xhDYk2MGEVRFFAEpC9FtrB1ej3n+f2xroFly5Rz5jln5vt+vXwpy845X7fM8zlPZSCE6Nqjt3GLpyhUzhK8HDxRqcBUJEko4pwXc44iJvEicKkQ4AWccScDK2CcWTl4IQAzgMI+l3QBsPT5WBxAoM/HugHIDMzLGY9x8CDjLASwIKB0A6ybM3RLYN3g6FKY3C1x8zFuZm3DnM5j56xiCW2+IoQQNTDRBRCSzxru8pfLlsQIzk0jJPBaztgIDjaCcV7NGSoYUI6ef4yoDcAxcLSB4RMARxnnnyhghziXjjCT8smSBzztooskJF9RACBEQw3XcBNqvTVcNo9VwMcxiY8Dx1gOjAMwFoBDdI2ChRmwD8B+DuzjYPtMnO1XeHzf7qKiw6tWMUV0gYTkKgoAhKik/p5glRTnk7kkT+EKmwyGKQCmAygQXZtBxTiwjwE7AL6TQdqhcOw0f+Lade0zTBZdHCFGRwGAkBQ9ehu3uAsCEySmzOKQZgF8FsBmANwpurY8EefAXsaxmUl8swK22e0PbLnsN1Uh0YURYiQUAAgZRMM13KTUBiZxmc8Bw1wGnM6BSeiZXEf0IwGOnYxhE+d4h5nYu7tcrp00hEDIwCgAEHKcP97V4WEW83yJszMAfI4zzGaAW3RdJC0+gL/HgXckhrccptiGL/yk3C+6KEL0ggIAyWvr7mlzR+KOOQpTzgcwH8DpOHmJHMkNMgd2M44NjLFXFcbX0yoEks8oAJC80rCMOxKSdz4gLZTAF3LOTgX9HuQrBeAfMrB/MC79I1RYsOHWVSwiuihCsoXe+EjOW7MyMA1cuYhxdj7A54OW3pH+hQH2JsD/IXPplS8+6PpIdEGEaIkCAMk5j6/idqc3OP/Tbv0rAUwQXRMxpEPgeIUDz0cL3f+g3gGSaygAkJzwxJ2+UpsVl4Phcg4sBK29J+oKAvg7gL+aOP/rtQ8WdoouiJBMUQAghrVmha9M4vxiDnYNgAtBk/dIdsgA3mGMPxOXzQ03PlTQLLogQtJBAYAYypq7A5Uwy9cyzq4BcAYASXRNJK/JHHiLgTWY4mi49ufuNtEFEZIsCgBE9xqWcYfCApdy8JtAT/pEvz7tGWBPOkyRetpzgOgdBQCiS+tXcXOrz38RZ/xGcHYZaOY+MRQW4kz5K2P4o+mQ52U6u4DoEQUAoisNd/vqZBO/HmC3AKgVXQ8hKmgG2DNcYr9bcr9rm+hiCOlFAYAIt+6eNncoYVsMhlvBMVd0PYRo6C1wPG6KRp6+9lcVAdHFkPxGAYAIs2aFbyLjuAXAbQCKBZdDSNZwwM846hmTfrX4p64PRddD8hMFAJJVDau4VfEFvqAw5TbG2Xmgn0GS5xjYZjD8RlJcT137IAuLrofkD3rzJVlRf0+wiicSdzCw2wCUi66HEB06BsZ/k5DNv6K9BUg2UAAgmlq7tHsmZ9LXwHATALvoeggxgBiAdVzBg0se8mwUXQzJXRQAiOpWreJSnT9wFThfBmCe6HoIMbANjLEHd7ldf1m1iimiiyG5hQIAUU3P+L5vMQf7TwATRddDSA45wBj/WdjteZQOJSJqoQBAMrbunjZ3WLZ+iStsJRhGiK6HkBzWCvBHIory0K0PFXeLLoYYGwUAkraGZd4SWcIycHYXgELR9RCSLxjQrTD+M27hD93wo6Iu0fUQY6IAQFL2xJ2+UquN38XA7uZAkeh6CMljAQC/NHH+EzqimKSKAgBJWm/DD7CloCd+QvQkALDfc5n935KHXa2iiyHGQAGADKnhjmMu2W6/E8B/ghp+QvSsp0fAkvjhtT8u8YouhugbBQAyoIZV3Kr4A7dwzr8HoFJ0PYSQJDF0gOO+iMf9MK0aIAOhAEBOsn4VNzf7/bcwBd+hWf2EGBk7DPDvmo64n6AjiUlfFADICZ5eFjhfgfIAGKaJroUQoppdjPHlix8ofEl0IUQ/KAAQAEDDCv9khfP7OHCx6FoIIZp5npmUpYvvK9ovuhAiHgWAPNewLFSdkBLfZxw3A5BE10MI0VyUAQ8n4vEffPHnpT7RxRBxKADkqUdv45ZCt+8OhbPvM8Atuh5CSJYxdDDw70uHPb+g+QH5iQJAHqpfHjiPQ/kZAyaLroUQIhrfKjFp6XUPuN8QXQnJLgoAeaR+eWgkeOIHYLhRdC2EEN153iQp37j2/qJG0YWQ7KAAkAcevY1b3C7/Sgb8DwC76HoIIboV5gyrhrvdPz1nFUuILoZoiwJAjlu9NDBdkpTHAJwmuhZCiEFwbGMS/8riBwrfE10K0Q4FgBzVsIw7ZOb/DoCVAEyi6yGEGE4CYL+KS8H/uun+YUHRxRD1UQDIQU+v8C9QOH8MwATRtRBCDO+AxKWvXfeg61XRhRB1UQDIIY8v7SqyM9OPwfBV0PeWEKKuZ2JR3H7zLz0dogsh6qBGIkesWea7jDH8GkC16FoIITmrlYHfs/inhU+KLoRkjgKAwdXfE6xisvwI57hMdC2EkLyxLqGYbr/xoYJm0YWQ9FEAMLD6Zb4rIeExcJSKroUQkl8Y0A3Obl/8oHut6FpIeigAGFDPDP/AjwD+DdG1EELyHMdTpmjkjmt/VREQXQpJDQUAg6lf1n0amLQaNMOfEKIfjVzBDUse8mwUXQhJHgUAg+Dg7OkVvm9wzn4CwCq6HkII6SMB8B+Yjni+T4cLGQMFAAOoXx4aCSSeAnCW6FoIIWRQDBtNTLmBzhTQPzr/XefqV/gXAYkPQI0/IcQIOObKirR17QrvDaJLIYOjHgCdWndPmzsUt/2STu4jhBjYH0yRyF00QVCfKADo0NrlvgkK8BwDJouuhRBCMrSHc3bVkgfdO0QXQk5EQwA6U7/cdzkHNlHjTwjJERPA+Mae4UyiJ9QDoBMN13CTPNL3bYD9D+j7khVxJQQOGQkeTev1gVgbOOcpv85qcsEiOeC0lECigxpJ/uAA+/kwj2vFOatYQnQxhBoaXVizwlfGOFsD8IWia8kdHIFEK7rjhxFMtCIsdyKsdCEkdyAid0Hm8Yzv0NzcnFYAOB5jDGaTFVazAw6LBy5rGQpt1ah2TUe1awZMzJJxnYTozL+4LF235GFXq+hC8h0FAMHWLu2eySXpWQCjRNdiZAkeRXtsF9qju+GNH4Y3fjjtJ/tkqREABiNJEuwWFwrtw1DtPhWTSy+G01ym2f0IyRqOT2Dii66/v/Bd0aXkMwoAAq1d7r2Jgz0CwCG6FiPyJ5rRGtmGY9Ed6Izvh8Kz26uodQDoj9PmwTD3RNSVnIda97ys3psQlUUB3HX9Tz2PiS4kX1EAEODFu7jNa/b/DAy3ia7FaGJKEM2RLTgS2ojO+H6htYgIAMezWuyoLpyKGRWLUeGoE1YHIRnheMoE99eufZCFRZeSbygAZNlTS4PDzZK8DsBs0bUYBQdHW3QnGkPr0RbdCYXrY5dR0QGgF2MMLnsxplRcjFNLF4ExmlhIDIbjXZNZuuLa+1wtokvJJxQAsmjNMv8UxvgLAGpF12IMHK3Rj7Db/zy644dEF3MSvQSA41nMVowpmYt5VV+HzeQSXQ4hqTiqKNKlNzzk+kB0IfmCAkCW1C8PnAcozwIoFF2L3ilcxuHwBuwNvIyw3Cm6nAHpMQD0MpnMGFc6D/Or/gMWE00xIcbAAb/E+HWLHyh8SXQt+YACQBbUL/fdAuA3AGhN1xDaYh9jh+9P8MU/EV3KkPQcAHpZzFZMrrgQc4Z/BRLt+0WMIcHB/mPJT92Pii4k11EA0BAHZ2uX+74DsO+IrkXv/IkmbPc1oC36sehSkmaEANDLafNgQc0dGOU5Q3QphCSJ/WzxT11LGZgxfskMiAKARhpWcavs8/8OwBdF16JnCpdxIPQqdvv/psrmPNlkpADQa2TJNCys/W9YJafoUghJxjMRj/umW1exiOhCchEFAA2svre7WIpJz4GO8B2UP9GErd1/0OUEv2QYMQAAgM3iwILaOzG2kH48iSG8zRm+sOQBT7voQnINBQCVNazsHi0r0osAJoquRa84OA4EX8Uu/zrDPfUfz6gBoNfostNwQc23aNkgMYJ9iolffMN9hXtFF5JLKACoaPUy7+kSY88DKBddi14leBQfdD+Bpshm0aVkzOgBAABc9mJcNu7/UGgbIboUQobSqjDlkhseKDL+m4dOUABQSf1K/9lQ+DoAHtG16FUg0Yr3uh6BP9EkuhRV5EIAAACzyYJzRt9NQwLECAIS2OXX/dS9XnQhuYACgArWLPNdxhgaANhF16JXx6I78X7XI5of0JNNuRIAgJ7dBGePWIyZFUtEl0LIEFiIcfnKxQ8W/V10JUZHC4MztGa594uM4c+gxn9AzZGt2NT1q5xq/HMN5xybjtTjzaM/E10KIUPgTs6kv9Uv810puhKjowCQgTXLvUsZ2JMAzKJr0avG4Hq81/UoFANP9ssnO1r+gRca/1t0GYQMxQqGp+uX+68TXYiRUQBI09plvm8ysAdBwygD2ht4GR/51gLIjW7yfHGkcxtepBBA9M8C8NX1y3xfFl2IUVEASEP9ct//4ww/EV2HnjUG1+Nj/3OiyyBpOty5DX8/9H3RZRAyFBMYHluz3LtUdCFGRAEgRfXLvasA/Eh0HXp2JPQOPvI9LboMkqED7ZvwzyOUc4nuMQb2YP1yP225niIKACmoX+H9Pu3rP7iW6If4wPsEqNs/N+w99ibeafmd6DIISQJfVb/cRw9nKaAAkKT6Zb4fgLNvia5Dz/yJZmzp+j04FNGlEBV92LQO+72viy6DkGT8v/rl3u+JLsIoKAAkoX6593tg+C/RdehZTAliU+cvkeB0Zkeu4ZzjtcaH0eSnXViJEbBvr13hu1d0FUZAAWAIa5f5vgmwb4uuQ88ULmNz92MIym2iSyEakeUEXmn8NgJRn+hSCBkS5/jh2uW+5aLr0DsKAINYu9y3nGb7D21v8CW0RT8WXQbRWDQexEuNqxCJ054ORP84cH/9ct9XRdehZxQABrBmuXcpBx4QXYfedccPYY//RdFlkCzpCO7FxqNrKQQQI2AAfk2bBQ2MAkA/6ld4b2Rg1PgPQeYxbOn+HThk0aWQLNrX9WfsOrabQgAxAhPAn1qzzHeZ6EL0iAJAH/XLfZeDs9+DvjZD2uH7EwKJVtFlkCyTlQR2en+Og+0dFAKIEVgYw5/WrvB+XnQhekON3HGeXu4/B8DToL39h+SNH8bB0BuiyyCC+MJNaAq/RiGAGIWVc+lPT6/wLxBdiJ5QAPjU6mXe02XwdaBT/ZLAsc23BrTZT35r9D+HRCJKIYAYBHcqnP919YruWaIr0QsKAAAaVnaPlhj7KwPcomsxgkOhDeiKNYougwgWT0SwP/wHyLJCIYAYRaHEpZcblnnHiS5ED/I+ADQs85YkuPQSgErRtRhBgkfxsX+d6DKITrQGtyCGDgoBxEjKZMb+tvre7mLRhYiW1wGgYRW3ymDPMI460bUYRWNwPWKKX3QZRCcURcH+wFMAQCGAGMlEFpP+8uJd3Ca6EJHyNgBwcCZ7/b8Fw7miazGKBI/iQPBV0WUQnekI7UJEaQFAIYAYBwMWdFt9f+DgTHQtouRtAKhf7vs+GG4UXYeRNAZfQ5Se/kkfnHM0hus/+zOFAGIUjLPFa5f78vaE17wMAGuX+W5lYP8tug4jkXkcB4L/FF0G0anO4B7EFO9nf6YQQIyD/c+aZb6bRVchQt4FgPqV/rM5wyOi6zCapshmevonA1K4gk9ifznhYxQCiEEwxvDY08sC54suJNvyKgA0rPBPZgp/DoBVdC1GczD4uugSiM4dC24BoJzwMQoBxCAsClOe/eOywCmiC8mmvAkATy0NDpc5f5EDRaJrMRpf4gi64rTunwwunoigNXby7pAUAohBeExM+WvDNwPDRBeSLXmx5e2Ld3GbV/KvA1AruhYjOhR6S3QJxCBaIq+j0nr2SR+XZQWH2jpRW14KuyUv3nYyUlAioWRkes9nJrsMmzuR1mu7jwGt20xpvTZHjJJl5bkX7+JnX/xzFhVdjNby4jfRZ/H/AsBs0XUYE0dTeIvoIohB+CMtkN0hmJjzpL9LKDIOtrdjVFkp7BaLgOqMY9h4E2Zfm96u5MFgEJ2d6c3X8QQt2PamjMpCT1qvzxGf81n8DwP4uuhCtJbzQwD1y31f5cBXRNdhVO3R3YgeN7ubkMFwztESe23Av6fhAP1r9wfQ6vWJLkMoDnytfpnvy6Lr0FpOB4D65V0zADwsug4ja4rQ0z9JTXv0/UH/nkKA/lEIAMDwi/pl3aeJLkNLORsAnrjTVwqYngXgEF2LUXFwNEc+EF0GMZhAtBUKBh+DphCgfxQCYAczPbtmha9MdCFayckA0HANN1ltbA2A0aJrMbJAopm6/0nKFEVBV2LzkJ9HIUD/KATwGsb52oZreE7OjMzJAJCo8f8Q4BeIrsPo2mN7RJdADKojltzQEYUA/aMQwM6TR/i/J7oKLeRcAFizwncF41gpuo5c0B7dJboEYlC+6MGkP5dCgP7lfQhg+M/6Ff5FostQW04FgIa7fXWM4wkAeXu6k5rao9QDQNITiXvBefINOoUA/cvzEMA4579vWOGfLLoQNeVMAFh3T5tbNuEvAPJ6AatawnIn4jwougxiUJxzeOXUepAoBOhfPocABrgTnD/TcMcxl+ha1JIzASCYsP0CwETRdeQKX+IT0SUQg/Mldqf8GqOEAHdZzrx1piyTEFA6GoZudRgwWbbbHxJdh1oM/K34tzXL/Vcz4CbRdeQSb/yI6BKIwQXlw2m9Tu8hoGa6GRf/vwJMmJ+/Z4qlEwKqTuGYfIUPc78ShWTslufL9cv914kuQg3G/jYA+OM9oREM/Dei68g1vniT6BKIwYXix9J+rV5DQM10M+be4ACTgJlX2CgEJBkCqk7hGHu+HwpXIDnDmGPwEMDAH2m4u7NGdB2ZMvC3AFi1iktSIvEkgBLRteSaoJz+mzchABCXQxm9Xm8h4PjGHwDAKAQkEwKOb/x7GT0EcKAoYTI/ZfT9AQz65e9R5/ffy4BzRNeRi2gDIJIpWc684dZLCDip8e9FIWDQENBf49/L6CGAAQsSNf4VouvIhEG/9MDqFd2zwPEd0XXkIg4ZETk/Z/oS9ShcQUzpzPg6okPAqFmW/hv/Xp+GgPEUAk742IjpHGMX9t/495KcYZz+5ahhWyLG8b+rl3lPF11Hugz5ZX9yZUsBg7QaQP7+xmkoLHsBcNFlkBwQ4kdVuY6oEFAz3Yw5i+0DN/69GDDrChsmnJn+W5KtgGHUaRaccZMDM75gS/s6mbAWxPG1+zxYtLQQk+akdhzx8SGg6hSO0ef4oSgDN/69TAVhI08MtEiMrTbq0kCz6ALSYVWcD3GgTnQduSquBESXQHJEVO4AVBol7Q0Bo8pKYbdY1LnoIAbs9h8IA2Z+2nDveTOW1EtMZqBqihmjT7Ng+ERz8vfSEGcJlIwAzrxGwlnXetByANjwlxDajw5+wBPQEwLGzDRh7PnyoE/+ffUMBwDv/taGJDKD3oyTHbb7ANwuupBUGW7HvE+3+n1OdB25rDO2Dxs67hNdhu41NzeDc+opGcy44qsw3Hqhqtc0mSTNQ8CoWZbknvz7w4HNf4li74aBQ4CrVELdAgtGnWaBxa7u23AwGERnZ+ZDL30lIhZseTWGD14PD/g5p5zhwBlXmVJq/I8nBx1453c2wHghAIzjisUPetaJriMVOsibyau/J1jFgN+KriPXySls4UrIYBQk9yScCq2HAzJq/IHPhgP6mxNQWmPCGTc7cMm9BRg/36p6468lsz2O0y9luO0nHiy42nVSl32mjT/QMxzwOYPOCeAMv31qaXC46DpSYawvc0L+FThKRZeR62Su/ps2yU8yj2pzXY1CQNJj/kPpMyfAUyHhjJscWPgNJ0ZO00dXf9qkBCbOVfDVn3hw1qKeoe9Jc+yYl2Hj38vAcwLKzEx+THQRqTBM/OzZeYmvFV1HPmiKbMb7XdndW6nI7YTLYUNrpw/xhJzVe6fLKEMAjAE2qxWyrCCeGHocV00jC8/CKPsSza6v5nBAxk/+/eFAy54EKsdnr9HXaghgQIoFkim1Mf9kGHY4gPMbrn+wcI3oMpJhiEmADcu8JTL4w6LryBeSgB+LuaeMxY2fnwfOOTq8QbR0eNHS4UVrpw8tHd3o9IXQ6QvAGxh4/DGfmU0m2KwWuB02lHlcGFFaiDGVxZg6ohIThpfCbJLwn/X/wMaPD2S1Lq1/ltSaGKjak39fDBhWZ4i32fRJcSga5OCengADTgyU2M/W3B3455KHXa2iSxmKIX4yZcYeAFApuo58YZKyv7qysqTnEEfGGMqKXCgrcmHq2OqTPi+ekNHpC6LTF0R7tx/eQBjeQBj+UAS+YBi+4L//HItn92lXbYyxnobdYobTboXTZoXHYUNRgQPlHhdqygpRU1qI8cNL4bIP/T0bVV6MjR9nofDjmCSH5vfINASkPNufZI0hVwdwlDKT8iiAK0SXMhTdB4Cnl/vPUcBvFl1HPjEJ2F5hWGlRUp9nMZtQWeL5NDAMPt8mIcsIRWIIhqMIRWI9/0RjiMbiSMgKorEEErKMaDyBeEJGrM+/ASASi0Me4J0nFvRD6WcIQGIMNkvPr5bZJMFqNsNskmCzmGExmWC3mGE1m2C3WmA1S3DarChy2lFcYEeJy4EydwHKPU44rOrOch8/PPs7Zks8O+vZ0w0B1PjrnyFDAPCF+hX+Rdc/4P6T6EIGo+sA8LfbmpwB8MdgoLkKucDEtF9j3VdvD4CazCYTPAUOeAo0egptmgUYYA5Ar1NGDsv6Pc0m7XsAeqUaAqjxNw5DhgDOf7H63u5/3vCjoi7RpQxE1z/6QbfrewDGiq4j39gkd1bvZ5IklBUZciMtQyn3OGHK8tRqa5bP6ZJlBYfaOhEZYviHGn/jMeDZAZVSnP2f6CIGo9sv5eqlgemc427RdeQjm6kQEsveIVflxe6sN0z5ymnP7hazDmlEVu8HAAlFxsH29gGXCFLjb1yGCwGc3Va/3DdPdBkD0eWXcf0qbpYk/jvofIgiVzFIsEmFWbvfsNLs3SvflbidWbuXxCRYs/hzdLyB9gmgxt/4DBYCJACPPnobz/64ahJ0+SVs9vm/CfCZouvIZw5TcdbupcX4P+nfsKLsfa1NJrFndfUdDqDGP3cYLARM9bj8y0UX0R/dfflWL+sew4D/EV1HvnOasrfhIgWA7Kkpy94TudVckLV7DaR3OGD4KYwa/xxjrBDA/mf1iq5a0VX0pbsvncSkBwGkdg4lUZ3Hkr2x28oSGgLIlrHDshfsHOaKrN1rMJNOL8CCm1zU+OcgyRnG7FujBji8nDslxXS/6Cr60tWvxJoV3QsBXC66DgJ4zCOzdi+aA5A9U0aUZ+1eLlNN1u41mJaDUQS8xt4Uigzs4O4Ymrq6RZcxNIZFq1d41T0aM0O6CQANq7gVkH4uug7So8iSnQDQu/MfyY6RpYWQstRnWmiZlJX7DKW9OYbff/cI/F0UAnLNvvdNeG2tH93BEI4aIARInD2opwmBugkAit+/nHHUia6D9LBK7qysBCgrcsFizt6SQwI4bNpPzpOYBI9pvOb3SRaFgNzT2/j3MkgImFTo8t8luoheuggA9fcEqzjHf4uug5yo2Dpa83tQ93/2lbi1n5xns7igt1W8FAJyR9/Gv5cRQgAHvrPm7oAuzrbRRQBAQv4BAOoH1pkSyxjN70ErALKvslD7XzWnpUrze6SDQoDxDdT49zJACPAwSfme6CIAHQSAtcsDpwK4SXQd5GQlVu13YaYAkH0jstDrUmjR72gehQDjGqrx76X7EMDw5T8uC5wiugzhAYCD36eHOsjJCi21mh8MlOwpgEQ944Zpvz9/qWWW5vfIBIUA40m28e+l8xBgMkF5SHQRQhve+pXeSwC+UGQNZGAmZoHHrO1+ANQDkH1TRmi7Pt9itsEu6WKIc1AUAowj1ca/l65DAMO5opcFCgsA61dxM1fYT0TdnwzN7oxjbHW1ZtdnjKGiOLsnDxJgdEWxpksBS10lKHTFNLu+migE6F+6jX8vPYcAibP7G67hwpZBCQsALT7/rQyYLOr+ZGCOghjmnHMIl9+0HfM/p93hMSWeAlgt+popni/sVu2Gdk6bUIrlN+3ANRc0osit/yBAIUC/Mm38e3UHQ2jq6tbjjoFT5ZH+G0XdXEgAeHwVtwP82yLuTQZXO74LF1+/E6MndUCSOOpqh2l2L+r+F6eowKHZtc+sq4XEOKaN78I3rt+BWZPbNbuXWtqbY3j8+0eQiOuwichThz5Sp/Hv1fVpCNChVS/exbN7TvenhAQAu8//HwDL3l6zZGgMOOX0Zsxd2AiLVfnsw4UuB8qLtOmmpz0AxKnQ6HsqSRJOG/PvYSOLheOKcw7j4jOPgDF9N66lw6wwW5joMsinSoar3zzpdDig1mvxfU3EjbMeANbd0+YG8M1s35cM7tQ5RzHltOZ+/26CRr0A1AMgjlZLAUs9LphMJzeic6e14bIFRzS5pxoYA85fXCa6jLT5OhJoOhDBge0hNDfGwRMWQDGDwbi7bHrKE6gaq/6ulfoMAexbn7aNWZX1AdhQwvpNAPo4JowAAEZP7MSkma0D/v2Emkq89eFe1e9LpwCKM65Sm1MBxw0fuBGdPbUdbV0ObNyWvQOJknXqmR5U1gjphU1ZNKzgwI4QGneEcGhXGO1NMcQiyoCfb7EwjKizYOw0K6onmOBwK1C4nMWK08M5x/k3OPDk99SfR9IdDAEAqot1swy5PBS33w3gf7N506wGgDUrfGWcYyl1sulHgTuGmfMPD/o5E2qoByDXTKrW5ml39tjBOcqVTQAAIABJREFUV41cMO8TNDa50NKu3RyEVDEGLLgie8ckp4NzYP9HQWx93YeP3/MjHkt+OCUe52jcHkPj9p6GVJKAGec6MXW+BXZ3Apzrd2jGUdjTC9C0Pw9CAOMrV9/b/csbflTUla1bZnUIgHGsZACt+9IJJvGTxvz7M7KiRJMDZCpLKQCIMn5YCRhTP4qfM2Xw8yPMJo5F5x+E2aSfRmfCDBfKq7U/ICkdnAPb3/Hj1/cexBM/+ATb3vKl1Pj3R1GAza+G8MQqL557KApfm0WTnwU1cM5x1iLtwqLOhgMKWZwtzeYNsxYAnrjTV8qBO7J1PzK02nFdKBsWHPLzJIlhrMrnyBe5nZouRSODkyRJ9a+/y+lAcRKrCypLw5g1RT8rA+Zfrv3OiOloORzFb79zGE8/2ITmg1FN7nHsSAJrf+zFX34WQzSgzxDkqUjAU6pdU6WnEMA4W7r63u7ibN0vawHAasMKevrXDyZxTJ7VkvTnqz0MQCsAxPM41X2ySmVi4VkzW2AxD97zlA2VNTaMmqSf4Qig5wn9tWfa8et7D+Hw7nBW7tl6KI4nVnVj90YJjOlrZ3bOORZcpe0JljoKAR4pxu7O1s2y8p1uWOYt4cB/ZONeJDk147rhKY4k/flqBwAa/xevUuWlgKeOGp7057oL4pgxsUPV+6dj5tn6CqJBr4w//O8RrP9TBxQ5+8Mk/3o2gBceiYJxfW3QVV2nfVOlnxCQvV6ArASABMNyevrXlzGTUuuCHT+yApKk3jghBQDxqlWeg3H2lNSOj541SWwAkEwM087Qz9tSd1scv111GI07QkLr+GRvHE99Lwg5pp8hOo44Js62a34fnYSAQilm+kY2bqR5APjjXR0eCexOre9DkmezJ1BRFUjpNQ6bFdXl6oVSCgDijalQb+zbYjZjUlVqKwuqKkIoLtRmbDsZE2YUwFWkjyfdjuYYfvPtw2hv0sfWySG/jCe/60Miop8QMOO87CzT1EcI4Hc33HHMpfVdNA8AZqvlDg7oZJ0FAYDq0d60dmVTcxiAjgEWb7KKpwKmu7Pg5NHi3mgnzdb8/TUpQa+Mp358VHdnEcSjHE9939ezqZAOFJZnb86IDkJAccJhu1Xrm2gaAF68i9s4R1a6Mkjyyoent7/2+JHqNRjUAyBeXVWpasu/6qrSWyUyKsWeKLUwBtTNEB8AEnGOJ3/4CTqa9fHk31c8yvH0fX5ITPyOggqXMWGm9sMAvUSHAMbZsvWrtJ2MoenFuy2BWxiQ/MwgkhWFJclP/jteXa0630pPgQNOuz6XHOUTsyTBajEjGotnfK25dTVpva48hYmofVltEkzm9AJM1Vg7CgrFN2ovPXkMTY3pfw2ywdeh4F9Px7HgOpPwTYNOPduG1sPp/bxyzuHrSK0XQfBmQaNbfYErATyj1Q00CwAN13CTzP0roM/9JfIXA9xF6b3hVJZ4UOR2otuf2SQlevrXj0KnA8cyDACMMcxPMwAUF8ZgNnEk5NTfKK66cximzNHPJL5U7d4SxKa/ix5rTs7HmyKom12IitGZh8VMFFfFcd296c0FYEzCoytS73ESGQI4+DehYQDQbAhArglcCYbxWl2fpMdqk4fc+W8w41QYN6Y9APSjvDDzbvBClxOONDcVkhiH26XP7m8txWMcL/xh4PM39Oj5x/xg2T8+RhcEDgfMXrPCN1+ri2v43eTLtbs2SVuGPXjjR1bi/Y8PZnSNimL1ntqOtHbi3R0H0NjUhuZ2LxSFQ5IYhpcVYkxVOeZMHYsRFVnbWEsVx7wBvLXrIN7f/wmOdvrgD/fMlB9e7EFNWRHmTxqF2WNHwGLOvAu7qsSDHYeaMrrG6ExXE+hnV+Cs2fDXTnS1in2aTlUipuD9VxKYdaHoSsQQ1RMgcawAsEGLa2sSAFav6J4FjrlaXJtkhvPMxmTUWAmgRg/AnsMtePofm/Dxwf6PMG7p8GLr7sN4dv1mTKwdjusvnIPxIyszvq+WjnkDeOL1zXjlgz1IyCf30nT4Q9h+uAUvbtkFj8OGm86ehSvnTIFJSr8jb4wK4WjG6KqMXp/pz6TRxCIK3nk5a+e9qGrzP0KYtbAQkIwVXtQiIgRw4Atrl/onLX7I/bHa19ZkCEDiJnr61yklw1NAx1SXZ/zkWZlBAEjIMla//A6+97u/Dtj497XrUDO++9t1WP3yO5AV8dvP9uetXYfw5V/9CS9s3tVv49+XLxzFL156G7c98me0dKe3qgMAJlZnPqQz1AFAQ1GU/AoAm/7ejZBf/8fxDuSjN/S1XDHbBAwHMG5SNFlNp3oAqL8nWAXwRWpfl6hDliXIcvrfdovZhNphmR2dmm4PgKJw/PrZ1/HCWx9CUVLrN1YUjhfe+hC/aPin7kLAuvd24lv1r3zW1Z+K/S0duPOxv2B/S3q76k0ZUZbRUkC7zYqRGfbohGP5Na68eb1XdAkZeffFIJgOlgWKlPUQwNkta+4OqN6FqX4PQFy+EwCt8dKxWDSzX96pY0ek/Vqn3QqXI71ZvI8+9zo2frQv7XsDwLs7DuB3697M6BpqemvXITz8/IaMlld1+EP4rzWvwJdGgLCazbCY02+AazLcHTIhM8Tj+dMDcHhPWDe7/aVLUQBvS34HACDrIcDOTPzral9U1QDw4l3cBoavqnlNor5YJLMnrkXnnob5p6a3wCPdp//Nuw7izQ/2pPXavl7fsgvv7WxU5VqZ8IUi+PFz66GosLa6tduPH/15fVqv9TjT21yl2F2AH9+Q2YywcIY/i0az810xGx+p7aMN+t67IFuyGwL4HS/exVXdD1nVANBt8V0DQN2D44nqMu0BkCSGr191DhbMqEv5tekEgIQs4/d/VXcS7FMvbRQ+FPD7195P66l9IG/vPoSPDid/xHOvdJYCVhR78MdvXIfigsyO0g1l+LNoNAe2B0WXoIrd70V0d2ywKFkMARXdVt9Val5Q1e8gA7tdzesRbURVeOqSJIavXXkWLpgzNaXXpbMJ0Hs7G9HlV/eNs73bj627D6t6zVSEY3G8rFKPxvFWv7E15dcMT3Ef/8riQvzhzkUosGW+R3xYR4fNaC0clNFySNzhR2pKJIBEJL/C22CyFgI4U3UYQLUAsGZlYBqAeWpdj2gnptIvLmMMN18yDxfNPSXp16QTADZ8uDfl1yTjX1t2aXLdZLy16yAiKmzB29fmA0cRTvG6oyuTX8c/orwET921CM40N/7pK5RHjUjbJzEI3klXVf5O0RXoSzZCAAMWrF3pT+2paxCqBQDGZXr6N4hM5wAcjzGGmy6ehyvPnpnU56dzCuD+T9pSfk0y9n1yTJPrJuPDJJcwpiqekLHtUGrXrqtKblVHbWUp/nDn1bBmMGmwr3yaA2D0yX99dTYbdymjVrIRArii3jw7VQJAwx3HXOBsiRrXItrLdA5Af645bzauv2DOkJ+Xag9Apy8IXzCcblmD8gbC8Aa0ufZQmjp9urn21CQ2SJowohK///rVMGew6VB/wnnUA9DVllub57Q3UQDoT3cwhCZNQwC/+cmVLQVqXEmV32bZbr8eAJ3wYhCxqDZPXZedOX3QEGC3WlDoSm3SWCyu7aYjsYSYTU06ApkdqDSYQCS1J02n1TLoUsBJNcPxyFcuh8mk/nK9fNoDIBrW1/4TmYoEc2g8Q2Vd2oaAQovivEaNC6kV57+k0nVIFkQ1fOq67MzpuOXSM/rdXCadFQCaHz8q6D1MrTH0/qSzNbB7gKWA08eOxK+/cjkklZ/8e+VTD0AsklsBIODNrf8ftWkZAjhwqxrXyfi3uuFuXx2Aoft+iW6oOQegPxfMmYovXTb/pBCQzgTA0kJXRnvdD8YkSShyOzW59lAKC9Jbe5+MYSnO6geAMs/JPYrTx47EQzdfrEZJAwpp1BtFtCdJ+bOBU7q0CgEMOLNhmXdcptfJ+J01YcaXe+ohRqHFHIC+zps9GXdcfc4JjXc6PQBWi1mz44NHVBSrcqJeOqaMzPxQpYHUlqc+0XJ40YnhbN6kMZo3/kB+9QDYHLm1bt6R+UnSeUGjEMASDLdkepGMfiLXr+JmxvHFTIsg2RWNZmft9Rmnjscdi879LARUlqY3TWT6hBo1y/rMKePS39I4U7M1uvfIsiKMTeOshlEV/w4N502vw/9dv1DNsgaUTwHA7syt/1dXYW79/2hJixDAwG5puIZn9E3IKAA0e/2fBzA8k2uQ7FNrH4BkzD1lLJYtuQAWswmVJek9yZ9/+uSMDqzpD2MM5542SdVrpqKuqhx1VepvmrlwWnpbNPfWctGsSfj2VWerWNHgQlkKo3pQXJFb/6+l1RQAUqFBCKiO1/jOz+QCGQUAxnBjJq8nYiTiEpQMTgRM1cy6Wty9eCGGp9mVX1niweemjlW1pnnTxmk2tJCsm8+Zper1St1OLEphU6bjTRlRjmvOmI57v7BA1ZqGkk89AGVVuXVGWnFlbg1pZIPaIYBxKaM2OO3v4Lp72twALs3k5kScbMwDON7MutqMJtzdcukZKS8hHIjbaceNn5+ryrUyMa+uFuen+cTenzsumgtnmtvzFjrtuPPC7M7llWWGWDx/GpGKEVZIGiylFMWd2UGQeUvNEMDAr2i441jaszHS/u0Lxm1XAVDnHZlknRrnAWST22nHnYvOg9WSWd02qwV3L14IT4aH2KhlxeVnYkwKW/EO5MazZuK8UzKeFJxVIYP9DGbKapdQPUa71R/ZZLEwmGxi9tDIBSqGgIKEw3ZZui9OOwAwRjv/GVk25wGoZerYaqy84SLY0gwBdqsFK5ZciMmjq1SuLH0OqwUPf+lyTKtNbyoNYwxLzpyOL517msqVaS+fuv97jTlFzLJTtU05w679Hh05Tq0QIIFdn/5r0/DkSn8FwM9N96ZEPKP1APSaOrYaP/nGtZgypjql102oqcQP71yEqWNTe102uB023H/zJbjxrJmwprAsscxTgP+9/gLctnCO6pMksyGfJgD2OmVe6ns06NHkubk1n0EUNUIA57joiTt9qS/9AZBWK2BRlMUAM2YLQgAAAZ9NdAlpKy9y479uuQQf7DmCf2zagQ/3Hun3aUSSGKaPr8H5p0/GqeNH6rqRtJpN+PJ5s/H5mXV47t0dWP/RfrT3cwQyYwxjK0twyaxJuGTWxJQCg950dBv3ZzBdlSNtGFZrM/SxwGarBE+5AoU2AlRFV7BnW/Cq4tT37/iUxWpl1wB4JNUXptmIs2vTex3Ri652Y3dFMsYwo64GM+pqEInFcbCpHc0dXnDOIUkMVWXFqBlWAruGW+5qoarYgzsvmovbL/gcDrd3o6nLhw5/CDaLCR6HHXVV5ShWaTKkaE1tufH/karTFxbhr79tFV1G2uZf4YSi0EFAaso8BPDsBICGbwaGybIifgo1ycixo66effD1+1CcNLvVgomjhmPiqNzZkkKSGEZVFGNURe5OtW48mhvd4amacXYh1j/bAX+X8SbRSRJQd7oEDnr8V1tGIYDhrCdX+ituut+d0hnnKc8BSCT4Vem8juhLOGhBWzPt5UnEaG53oq0rN2bEp8psYTjzC5mv/BDhzCtd4DBecDGKDOYEmMycX57qi1JuyBn41am+hujTvp3q70RHSDLe35HWnKWcMeeCIgyrNdYcCHsBw6R5OdBlqHPphgDGkXLbnFIAeOJOXykYsrtVGNHM4b1F8HuN9SZEjM8XtGDLx/kdACQTw2VfqYRGB11q4gt3eKBwGvvPhjRDwHmr7+1OacwwpTkANisu52lPHCR6wznDljdH4qxL94kuheSRl98agYQKW1Gv/WlT2q+tGm3H7T+qzbiGTNRMcOCsq0qx/k8dQutIxqzznCisjIsuA60HLFj3K6/oMrIijTkBFinOLgXwVLIvSOm3kDNckcrnE/1rPuzB/p1lossgeWL7/mJ8tFf8xMbmgxF4O8SPZZ99dRnG6nxzoIqRFsy+RB/LTbe9HhFdQlal3BOgsJTmASQdAF68i9sA0OY/OWjLmyPQeiS9o3oJSdaRlgL85TVtjnZOFefA7s0B0WVAkoDrV1SjarQ+J0S6iiRc8Q2HLpb9MZjRuNO4+yekK6UQwHDRp211UpIOAF0W33kAaNp4DpJlCW+8NAatn1AIINpoanPgqefHIRrTx5MkAOzc5BddAgDA5pBw473VKK/W1+56riITlvynG2Die0oAoKspfycgphACXH5z8Mxkr5t0AJDo5L+cJickvP7CGGzfViC6FJJjdh4owuPrxiOc5RMoh3JgewjedvHj2gDgKjLjq9+rQc0EfWyOVFZlxg3/XQCY9PH1AYD3/h4WXYJQXcEQmrq9GOoEBs74JcleM4U5AOzi5D+XGBGXJWx7cwIa1lTA7zfQ9GSiS5GoGeter0H9S2MQiepv7jDnwNY3fKLL+IzDZcLN3xqBU+eL7YmbNMeORSsc4Dp58gcAKBY0bo+JrkK4rkAQzUP0BHAkvx9AUn0qa1YGpjFF+TDZixJjUzhHa6Ad02Z2YfacMDwe8eN/utTU3NOKkBN0+Wx4b0cpNu8s0/2RvyXDrFj60Gjo7ZiIza958eITxxCLZG/HPUkCLv6KB9V1su5O+jv0kQmvPKGPIRs9KC5wDro6gDNMWvKAZ9dQ10nut5MrFyVfGjE6iTFUusqw6W0Jb/wrgpraOMaMiWHY8ASKSxKwWTkUpec414CfoW5iVHdvoEQ7uw8WwmlPwGGTYZI4ogkJ3T4rWjocaDzqRuNRFzg3xg9EZ0sMe7YGUDdTX9ObZp1biAkzCvD3NW34IAu9FBNn27HgGisgJXSXaRmT8OafQ6LL0JUhlwhyfhEAlQIA+MKc2DSeJE1iDLVlJTjU3omDjQwHGweeoHTzlzoxbhx1z+WDo21O/PGFsaLLUNVbf+vSXQAAAHexGVffORzzLinBG891YMe7ftUb5/HT7Zh3hR02VwzQ6Ra/HUdMCPmpF7KvwUKABLYQwENDXWPIVv3xVdxu9/k7AehjdgrJKoVzHGrvRCg68PKbKVMjWLwkszOtDSkPhwDWvV6D93fk3r4RX/9hLarH6HMpXq9jR6LY+i8fPtzgy+ggoYJCE+Ze4sDoaSYws34m+fWHMYZn7o+gs5kCwEAGGA4IFsbdpRf/nA26bnLIHgCH17uAM4ka/zx1fE/AQCFg1047An4JLjedEJbLYnFJF5v4aOFfz3ZgyTerRZcxqIqRNlz4xXJccEM5mhsjOLA9hMO7w2g7GkPnsTgUuf8wOny0BVXjLKidaEFpNSBZEuBcAQxwop+/zYLO5qDoMnRtgJ6AAq8tMBfA64O9dsgAwJm0MIPaSA4YKgTICrB1qwNnLqBf1Fy2bW+Jrtbxq+nj9wM4sieMkTpZhjcYxoCqMXZUHddjIcscIZ+MaERBNBIGN4cApgDgx03o63naN0qnFWMML9PEv6T0GwJkvhBDBIBk1npRACCfhQCnrf9Npt7f5DDMGwtJT66f4PfK6jbRJaTNZGJwF5tRNtyKogozOHqe8vU2mz8VHUfM1PWfgpM2C2JDt92DBoCGZd4SAKdkXBnJCYOFgM5OMxoP0MmCuaqpzYGjx3J7kyg5wSEnjNtg5ppYlL4XqeoTAmY9vrRr0JOEBg0ACYktGOpzSH4ZLAS8/Zb+u09Jet7+oFJ0CZqqGmPHTf81AiYzrXbSi2FjE7j0q7Q9eaqOCwGS3SydMdjnDtq4MwUL1CyM5IaBQsCe3XYcO6bvjV9I6nxBC7bvz83Jf0BP43/Lt0bAUZCb8xuMrKqOQkA6ekMA5+yswT5v8Kd7NviLSf6SGENNaQmc1n/vD8A5sPEtfR9tSlK3cVsFZDk3n4yp8dc/CgHp6QqG0NTRddNgnzNgAPjjXR0egJ+qflkkV5gkhtry0hN6Aj7Y6kAgQKNGuSIaM+Xs5D9q/I2DQkB6vKFI5ZNfb6kY6O8HfKdmFvN8APSbQQbVdzggkWDY9C71AuSKLR+X6vIgn0xR4288VXUJXHYbhYBUcHB0xBJfHOjvBwwAEth8bUoiuaZvCNj4thORMPUCGF1ClrDhgwEfHgyLGn/jGj6BQkCqEoo84PHAA75Lc+Bz2pRDctHxISASlrDxbeoFMLr3dpTCFxj4DAgjosbf+CgEpCYuywMu5e83AKxaxSUGzNKuJJKLjg8Bb7/lRDicmxPH8kFClrBhyzDRZaiKGv/cQSEgeZFYouyaa3i/P/T9BoAJgeBUAPTVJSnrDQESd2Dj27m9cUwu2/RRGXxBi+gyVEONf+6hEJAchStsgfuTC/r7u34DAFOUOdqWRHJZbwj44P1ihEPUC2A0sYSEN7fmztM/Nf65i0JAcmLgV/f38YHmAFAAIBmRGMMwVxneejN3N5DJVRu2VCIQyp2Z/063CRYrTUrNVbYCesgYSkJW+p3T138PAHC6tuWQfCAxhrb9NWhvy62JZLnMF7Tgra25te3vvg+DWP2To4jHaG/5XONtseBPD3pFl6F7cVkZ1d/HTwoAj6/idg5M0rwikhcYJOzYNEJ0GSRJf99YjVgi956W920LYs19FAJyibfFgqfvp8Y/GdF4vOCXdxxz9f34Sb/pVq9vGoDc6f8jwjUfKkLzEbfoMsgQmtoc2LYnd4dsKATkDmr8U8M5RzwU/nzfj58UABiTZmSnJJJPtm4YCUXOvSfLXKFwhr/9qwac5/Z4KoUA46PGPz0ypAv7fuykd2QJnAIAUZ2vy46Pt+TW2HIueXdbOT5pzY9lmxQCjIsa//QllMRpfT92UgDgwMzslEPyzY7Nw+Drsosug/Th9Vvwz03DRZeRVRQCjIca/8zEFWV034+dEAAaenYLmpq1ikheURSGd1+rBaf3XF15/s0aRGP5t0aeQoBxUOOfuVhcdvfdEfCEAKCM9I8F4MhqVSSvdLQWYO9H5aLLIJ/6YHcpdjUWii5DGAoB+keNvzoUrrCz3EdPWOJ/QgDgHFOyWxLJRx9srEZ3Ox0WJFqXz4bn36AlmhQC9Isaf3XFJeX84/98QgBgjE3ObjkkHymyhI2v1kKmVQHCKArwzD9G5WXXf3/2bQtizf1HkYirGwIUmWPr617Eooqq19WTeNgKian/c9R5lBp/tSVkzD7+zyf2AAAUAEhWeDsd+PDtatFl5K317w/HkZb8mPWfrN4dA9UKAYoCPPurFvz51y144M4DeHNdp+oBQySesODNBgWPf7sbr/wupmoI8LVaaYc/DciKUnf8n/v0ACgUAEjW7NlejsN7S0SXkXf2H3Hjjfdz57AfNe3bFsTq+zIPAYrM8czPmrBtgw8AEPLL+PuaNjy8rBEbX+xCLGLcHoF4xIJ31gGP3evFx5siAIDGnVG88nhUlRDQedSCtfd1Z3wdcrJEIlF1/J8/2/Vj1Sou1fn8AdAkQJJFJrOC867cg5LykOhSUtfUDKMtaejy2fDIM3UIRWizz8GMn16AJSurYbakvjGSInM88/NmbN/oH/BzHAUmzF5YiNPOLUJxpbrHLgeDQXR2dqp6TcYkBDpMePPPERzeFR3w80ZPteLCW21QuJzWfTqP0t7+WpIkxr+7doKJgXHguADQsLJ7tKxIB8SVRvJVgTuGCxbtgs2REF1KagwWAGJxCb/500S0dtJeDMlIJwQk0/gfjzGgdpITs84pxOTTXbDaM58Xo2YAUOIW7N8q4+2/BRENJ/eznm4IoMY/O0qLPLOW/aZqCwB81l9z5dx7ZzOwG8WVRfJVPGZCZ5sTtRO6wIy0E60/ILqCpCmc4elXxuBQ80nngZABdLbE0XQggimfc0MyDf2DmWrj36u7LY6P3wvg7Re6cGRPGPGIAk+JOe0wEI/HEQ6H03otYwzxiAWHtgGv/jGKt9eFcXBHDHIK2bz7mIyOJmD8DAs4kgsN1PhnT4HVtvPlLQ+8Cxw3B0DipnHiSiL57thRN955dZSRHqgN5cUNI/J6vX+69n6Q3MTA3gl/qTb+x0vEOfZsDWLdY6149en2tK+TiWjAjMe/5cWrawLoak2/R65xeyzpiYE04S+7FDkxvfe//x0xGR8rpBpCPnV4XzG2vDlSdBk5Z/17w/HuNtp8KV37tg0eAhQFePaXzZ9N+CM9GndGhwwBvlYrTfjLMln+90qAzwIA56AeACLc3u3l2LmZZqirZdP2cryWZ/v8a2GgEECN/+AGCwHU+Ishg3+2+9fxg0wUAIgubHu3Ctvfo0YrU+/tKKOd/lTUNwRQ45+c/kIANf7ixGW5rPe/JQDg4AxgJ50URIgo298bjg/foY2C0rVpezn+9q8acG6kWZX61xsCYhGFGv8UHB8CqPEXS5aVz5b6MwBouMtfLlv4MXElEdK/idOPYfrcI9Dl8gCdLgNc/95w6vbXmNNtQsif3lr3ZMw6txBXfC29obBMlgHGghb84TvaTcgrrjRnNLmQqKN8uKf27oerDksAoJhkmnlFdGnXBxXoOABdNrT6w3GsSaHGPwu0bPxzGTX++pAIKHOA3jkATKIAQHQr3MWBjo6eQVfSP86R6PLB20lBiRAyOInzycBnkwA5BQCib9EYcOwYEIuJrkR3eDyBeHsXlCh9bQghQ1MUjAc+6wFgFACI/skK0N4OBIOiK9ENJRxBvLMbXKYuaUJIchTwGgAwAwAHG4Ekt2wkRCgOoNsLRKJAURFgynzvdEPiHAlfAEo4IroSQojByEpiONDbA8B51aCfTYjeRCI9QwJp7nluZEo0hnh7JzX+hJC0cM6LgE97AMBQKbQaQtKhKEBnF2ALAYWFgCW3j7jlsgI5EKSGn+SdaWdZwKTkeqkLyoL49LTbIb3/NxtiYR0uMdZYQuEuoDcAgAIAMbBoFGhrA1wFgNsFsBwbFuAccigMORCi5ZAkL512kQVmS3Kfe+RIK3iSvyc2hw2x/OtEREJRrABgfvQ2bgH8xaILIiQjnPcczxsMAW43UFDw6TZXBsY5lEgUciAILtPN/gFGAAAgAElEQVQSSEKIOmRZkX52F7eZiwvCFbLx3yoJ6aEogNfbEwYKnD29ApLBegQUDjkSgRIM0+z+PLX3gyD+8L9H0nqt1QG4itK7b/exaHovJIZjCjePMcssWgEMfWYzIYaiyIDf37Nk0OnsCQNmfc8R4LIMJRiGHI5QV3+e83Um4OukXfOIduKMjzczzsrpvBCSsxQFCASAQBCwWQCnA7A79NMrwDmUaBRKOAolFqPVuISQ7ODKKDNnpmJ61yG5j/fsJhiNAcwLWK09QcApIAxwDiUa72n4I1F62ieEZJ2soMrMgSLqACB5hePfYcDr6+kZsNkAq63nvzWYEsPjCSixOHg0CiUep8xN8oLJDMg5PpJhsXHEo8ZrRTl4pVlivJgeQEj+Oq5nAP6eY4et1k//sQAWC2BKbY4MVxTweAI8kQCPxaHE4vSUT/LOmGlmzL3cghcfi6CrNTd//j3lCuYv8aPriAMb/2wVXU5KFJmXmRUFhXo8ap0QITjv2VcgetxsaJPUEwTMlp7Nhnr/zVhPQx+PgydkcDnR82daskfy3JhpZpz7RSskCbj0djue/3XuhYDexl/hcRSOiGPuVR5DhQDOlBKJSTzNBSOE5AlZ6Tl7IBAAurp7Nh1qakas5Rji7Z1IeP2QgyEokRg1/iTvHd/4A4DDxXDp7XYUV+bOk+bxjX+vwhE+zL3KOCdycg63BC4Vii6EEEPKrQcaQjLWt/Hv5XAxXPI1O4rKU59w6/QwaNVLXVSZ+i9xYTnHmTec2Ph/9ncjfJhzpTFCAOPMaWaMu2h4khBCSCYGavx7OT0Ml95uw/O/jqK7bfCeMlcRw7iZZoyaakL5SEmzADBlYSdOucACf5sNezZa0do4eEApLOeYf4MPsnJy49+reKQPc6704N3n9D0coHBuN3POnbQRICGEkHQN1fj3GiwEMAbUTDZhyjwzqieYNGv0+1J4HAVlccy4DJC4Dc177Nj2T8tJqxeSafx7GSEEKFyxmQHmEF0IIYQQY0q28e/VNwRIJobxs0w49WwziirEbtClsCgq66K4cJIJnYed2PyCFfEoS6nx76X7EMBhMTPGnZy2AiSEEJKiVBv/Xr0hYPPf4zhlgQVFFfpqgxRFRtEIPxbebkLHwQKUjQqn1Pj30nMIUACLxDlzii6EEEKIsaTb+PdyehjOXGTVXeN/PEWRUVyT2pN/X8Uj9bk6QOGKWQI4DQEQQghJWqaNf77R5RJBhUsSwOyi6yCEEGIM1PinR28hQGE930J9n5FK8hqjN5mUMUbreok2qPHPjN5CgJkDZv2OwJB85R4mo3ZeBIoMoIV+QlMx9bwgXKUy9m9y4Fij/iYfEWOixl8dPSFA/LbBnIOZGZiJtjQjeuEslVHzuShKx8X+vT2FsxwINQutyyiClUWoHhYBAMy8LI7uZgt2v+1E11GL4MqIkVHjry5dhAAOSABP7agzQjTgKJYx4aIQpn/Rj9LxsRP2puKVHvgLR4grziDanGUIDis+4WNFw+OYc7UXs6/0wVOR4+eyEk1Q468N0cMBHJyZAVAAIMLYPBwjT4+gYnJ00PH+7pJRkOQoCgJt2SvOQLx2Dw4V1wz496UjY5h7XQzth6zY87YT/naa+kOGZrExnHGlhRp/jRSN9KOkugSdR8UMc1IAIEJYHAqqZ8VQNSMKZkpuCKqrfAJMchz2cLfG1RlL0OLE/pKx4ENs6c0YUD4qhrLaGFr327Dn7QKEuumdnQwsHuV46bdRXHybDfYCmoujJsYYDm8tFNb4c84hgSYAkCyyODhGzY/gtC/7UX1aJOnGHwA4GDoqJyFuLdCwQmOJmqzYWzYecgrLJRgDho2LYv4XOzHtggAcHlnDConRtR9V8OJvoogEqalQS2/jv+MNsT1xEoD0tzgiJEkmK1B9WgSzbvWh+rQIJHN6byYKM6Gtcgpks03lCo0nIZmxp2w84lJ6byKSBFRNjODMG7sw9dwArM7BT2gj+YtCgHr00vgzRgGAaMxk6Wn4T/uyF6PmR2CyZv4GIputaBs2BUqaDV8uUBjDvtKxiJgz38dLMgEjpkZw1i1dqDsjBIuN3uTJySgEZE4vjX8PiVMAIJpgEkfl1Chm3erDqPkRmFVuVOIWJ9orJoFn68xQPWEMB4pHw291qXpZk5lj9KwQzrq1E3VnhGBWIayR3EIhIH2MMRzaopfGv2ehlQRAP9sSEcNjEkf5pBhm3eLHuPPDsGjYrRx1FKKzfIJm19erw4Uj0OUoHvoT02S2fhoEbunC6FkhmNIcriG5iUJA6nob/51v6qPxBwAmgUvg1ANAMscYUDo+hhk3+THhwhBsnuyMJ4cKyuEtrs3KvfSgxVWJ1oKKrNzLYldQd0YIZ97YhdrpYUgpTNgkuY1CQPL02PgDgATGzWAUAEgGGFAyOo6auREUlIuZTe4rGgmTHIfL1yTk/tnS6SjGEU911u9rdyuYtCCIUdPD2P++E0d32sFpvmDeaz+qYOs/45h7OW03PZiI16m7xh8AOMDNoDkAJE2FNXGMmh+Bq0L8MrKuktEwyVE4gh2iS9GE3+ZGY/Honq4WQRweBVPPDWDU9DAOvO9A8247OD0A5i1JAqbM01/DpjeOwjAKihwI6mz7EomBJgGS1LmrEpi6KICpVwV10fgDABhDR3kdYnaP6EpUFzbbsa9kLBSdTHh0lciYdkEA85Z0Ydi4qMhMQgSqO90MTxltJDUUhSuYdUlEdBknYYBiBviJG68TMgD3MBkj50RQPFqfmZEzCW0Vk1DZvA3meFh0OaqISxbsKRuPhKS/DTvdpTKmX+xHd0sYe952ovMT6grOF5IEnHqOPg6Y8rUr6Gzh8HdxJGIc9mIXTBYFVqcMs1WGwsW/X7nKQrC77IgERFdyPKaYwVmM2n8ymH5P6NMpxWRB27ApqGj6ECZZ/C9+JmRmwp7ScYiZ9N2wFg1L4PSrfOhutvQEATp5MOfVTjXBUyruzaClUcHezQkc2ikj5Os7DnXiJmHuUo7xp8uoGBMGTNHsFXkchSuYfkEU7/xZPxuYMcbiZi5xP+M6f1cnQjiKZYycE0XZhNigB/XoTcJsR3vlFFS0fASm6GSIIkWcMewrGY2Q1Sm6lKQVDY/j9Ku96Dhixe4NTvjaaHw4V005Q8z39vAuGZtfiaPtSPKzUP0dDFteMgNwY/g4J045LwLJlv0ewpKaMCTJBkUnE2gZY1EzU1i33p/qyInMVgZ3hQR3OcP/b+/O4+SqyryB/55z19p7S6fT6SQNZAEmrEEEAQkocYBhBMcQmgACahBHSEiAceYdx0adBT8ouCEGssiY7iCIIBggoKCSMRKjKCEhYZOE0JC9963qnvePpCHp9Fp1b527PN+/0t1V9/6gq+s8ddb0GIFYRkC39n9ftwhG4ZvDQUKiU+6ARDAb0B4rid01x6Gi6x14ddyFCYLMZuHFTLjXjDFo0VKuX7cYyif04My5WYyvngjhQuXo5ADHIeSyhFwv0NUmsbvJwbt/68XWV3rQts8n76gRkSonjDuyuENSnW0Sz/+sB2++VNj7UdNrGppeS2DKqTamnN4CRxbv/c1xsjjipBxeX++P4TxB6NSJsI8n8vpbskJg7GQNYyfrqKgViJcW5+N4R0cJdu8O7qz6Ti2JPXYVynK7PLqDBOnu/zFvFSXYQcFs/PuUlJSAhAOJwhtn0vcfWdo3EhLLAKXjgcmnCAA2BGno6dTw7psONv2hC29u4L3NvDR1hl7UiZ87tjpYvbx7gK7+/L36goZ3tpTirLltgFa8CXq1J3bj9fX+6NUjEu26BHy2OIGBgDG1GibNMFB9jI54iZoumng8jvb2dnR1+W8G60i1a2noyCKd8+BlTuT6p//3KIltFOyVDKZpIpEo3omNjsxBt3OoOQaoOUaHIAsdzQIv/18v/vzrDt90uYZF7fTifYLdviWH1ct70Nvj/sfU9n3AMz9K4pzPErQiDQlYyS4IEffFa5KIWnVIagZxH4AfJMsFak8xUDtDR7LcH4PupaWlePfddyEDvOC7WSuDJrNIOL6agnuYvRTD66JMdYyCEBHKyspACtcGOjIHO53DjL8HTjk/ib1NGtY92ck9Ay5IlhLKq4vz3vTeW941/n2yWeDXS5M4b54sSk+AIx3UnpjDG39SPwwgCG06wdkneRKAUiXjBI4+x8SkkwzfTbbTdR3pdBrNzc2qoxRkr14JrTcHW/pzeWAbTGwWFR7NViieZDIJ0/TPqgUpHZRUOTjvah0yG8Pax3vx0vMdqmP5yoxZBqafNbJJfaJI70+drRJP/9jbxr9PrlfiN/cncc5ns3CcrOf3m3bWPhx91sja3J52G8/c59WQgdynO4R93PyrUT5Jw9993ET1Mbqvl9elUil0dHSgtze4y+okgN1GFSqz78Bw1CwFGkwXdGzUKpHz84tgBDRNQ0lJieoYgyK9F6dfDJz2Dxn8cfX+4QG2/8huK+av195vH+pxdcx/OJ2twMZfp3HMOXs97+2UUkKOsNQXHh7EJSD2CgHiOQBFZqcIp11u47wb4qg+1t+NP7C/W7e01LvT54rFAWGnXoUc+Wd5WpY0bNQq0Qufdf3kobS0VGnX/0iR3osPXQB89r8yqD6K9yzwm7c25vDWy8VfffS3vwr0tPljgl4xkJB7hEM8CbBYiIDaUwycf0sCtTMM3zf8B7MsC/F48P84ctCwUx8HxwcNrgPCRqpAJ/xTkOTLtu3AvT40sxcXfdHEpxdkYNoB+mMMufWr1fU0rn/cDkQR6w7tPeE4ItiDuwGRqhA4b34cp9XZsBLBfIGVlJRAFGsQ0EO9ZGCXUQW1c18IW0Q5Wsk/O4PlK8g9RFJKlNX04ppvpDDlRBc20GAFeec1B7veVjdFft97hGxnTNn9i4poizAh9qjOEXY1x+k4b0EcZRPUz/wshKZpyGQyqmO4opts7NErld3/DSrBbgrWJ+bBpNNpGEawu9Ilsjj3Sg3/MC/YSzCDbssfvZ+EN5y3/uKfSaye6nY2CbwdexcI6HZvPqfpwMkXWzjz6hhMn02yyZffZnkXokMk0KyXF/2+b1MaTSLYG/30MQwD6XQ4Gk0pJaqnZnH1bWkkMsHv6QoaKYGtm9Q3Ra//yQj9MAAR0PKTmjfEpQ9SDsAO1YHCxowRZn4hjqlnhaOxPFhQu3sH0iIyaBXFa8B2URxvCf/OlB+toEz8Gw0zkcUVX0li7KRg92oEzd73HHS1q18Im+uVQC74Q3ND0YSWrQc5fWXudqVpQiaWJpz7xTjGHBHsLv/BmKaJZDKpOoZr9ukV6BTe71zXDAuvamM8v0+xJBIJ2HY4x80lsrjkRhuTjg13Q+Ane99V3/j36WoL/sTcoWhEXQDenwr9jsIsoZIsF/jYl+IoKdJuWapkMhloWngKnN36WHSTd41ZBwxsMqrgBHhHxYMRka/X/LvBkTmc/zkTx5waziLHb1r3+Odvo2NfuN+/dSHagL4CgCQXAC5Ilgt8/Ia4b7bx9ZIQIlQNgASwyxiHLLk/ZNMDDS8b1cg5/nmDK1RpaWmoCsDBOE4OZ8/RcfSHuAjwWm+3f/4+eoJ7/MmIEO2f/L+/pZKCC4ACWUnC2Z+PwU6Fazx0KPF4PFRdwA4IO83xyMG9hi0HgZfN8egJUeNf7MN+VHOkg5mXGaiezHMCvOSr80ZkuN/HBcmdwPsFAPcAFMKwCTM/H0NqTPg/+fcXtklgWUnYZdVAunAogwRhozUeHeonNrvGD4f9qODIHC663kZFdbjHhlUyTP+8pnTLR8WIB4TQmoADBYCE5EmAeSIBnPmZGEprwt8dOpC+w4LCpEdq2GVUo9BDz7dY1WjJ+udNzQ1hWgY6WlLm8KkFcRhWuH6nfpFQdOz5QOJpH5zX6yGh0RagrwdA07gHIE/Tz7Mwdmo0G/8+qVQq8BvB9NcFE3uMqryf/6Y1Druy4Xpd+P2wn6IQWcxeGI7NsPympNI/Pah2Sv2GRJ5y5J+AAwVAb6fDPQB5qDxKw7Efj+anoYMFeSvYobQjhhZz9LsFNtlj8E42XAUREL7hnnwly3vw0U+FZxmsX1TUCF/0rggBaGaP6hieIQCJrs41wIEC4DM/SO8G0KIyVNDYScLpV8TgwlBxKITlsKD+mpFEu1E24sfvMUvxZjZ8/x+CeNiPl445A6iZEr4iTyUhgOrJ6t9Qa47JwZHhHQIQmuZc1zhtF4CDj0Sj11QFCqJTPm0jllZfrfpJWA4L6m+vKEWXPvw8hxY9hc0y46/ZzC4Iaw9PIaR0cP7n4gjhy12pKTPUT7I88pTwfvoHAEOI9r5/H/TydV5VESaIqqbpqDlO/QvVb8J0WNDBpJTYpVWgRwx+SlinZmOjqIDjhO+TQxgO+/ECab04ezYPBbipdrqGZKm6D1axlESspFPZ/YtBE2J3378/KAAIXACMgNCBGZfw9qCDCesscSmBXeZ4ZMXh/209ZGCDMR65XIjW+x0QpsN+vDDtVEKqlLsB3CIEcNK56orNGRf2QIa4+x8ANIFtff9+/5VLkguAkTj2XDOS6/1HI6zdxTnHwS57Ihz6oPfHERo2xGrR09urMJl3eOLf0ByZw0XXcYHkpmkf1lExvvjvseU1Eumx7cM/MOA0ob3f1r//f9lxiAuAYVgJwtEzw/fp1m1hOyzoYL1ZB7titZAkIAFsSExGZ3e36lieCPNhP25KjelF9VE8ROIWIYBz6kzoRdwYSAjg1IvbQj35r48G+kvfv9//KNPbiy0m92wPaepZJnQfLFMJgkwmg87OzlB2i3dnHexJHIkdJSm0toTzE4MQIrQ9OW6TUuKcOXGs+K9m1VHy8pdns9i0dmTr3jPlAhfM876hKK0S+OhsA8829KAYc2rPvqoLUhSnkN+xJY1tm0Y2h6y7w4MAhvGHvn++n+IzP0jvblzYsgfAyNc8RYhhE6acyVX+SPUdFrR79+7hHxxAViIDzWoHUUfoZv0D4V3R4ZVkeRaVEwzs2Ba8oaDuDjnihqZ1dw5te2VRJupNPklHV7vE7x/t9bQI+MilXbDSbd7d4CBEAi89a6C3W80HSUFC7ls8dt37X/f7OS8FHMSUMwyYMf70PxphOywI2L8krqKiAslkEvF4HJWVlaE7FS9qh/24QUqJc+uisU/C314uXq/e9DMNzLzMgubBoitNk5j5mS6kq4rT+AOA020qa/wBwDS0tnrQ++MchxQAEjwPYCAkgCln8Nh/PsI0iUwIgTFjxiAW+2A5oGVZGDt2bGiKgKge9uOGkrE5WPHw/3979Y/F3SZ3ygwNn7zBdnWr4LLxErOub4OdKV7jDwDbX1H7gUgX4pBdf0W/LzYVN04wjJ2iI5YJ/x+2F8JyWJCu6xg7diws6/DxT13XUVVVFYrlj2FdxlkMjnRw+oXh7znZ+baDPU3FnSxXMV7gnxbaOPUCA1YBPbFWfH+X/4c/vbdoY/59BAm88rza/WM0okPa+H4llfwL2GFqfbA7VZAF/bAg0zRRWVkJXR/8daBpGiorKw/pHQgaPuyncJNPCkdP0HA2/r74h+VoOnDiuQbq/p+Nj1xsYkzNyHsEqqc6mHllFz42by/SVW1K1vq374kjq/iMIV0Yaw/5+uAvsrr+oqY6oc/oJqFmOhcAhejbSnbHjh2qo4xaLBZDeXn5iLrEhRCoqKjA3r170dZW3K5FN4RpuEYVYfaiolrHrnfC/T665Y85nPIJCTtR/NeLaROmn6lj+pk6Otskmt5wsPddB617JHq7gURZF4yYg2SpRCydhR7rgePsn7egaqNOIsJfVqtfZkea8+QhX/d/QOPClp0AKoqWyOcmnWzg9Lnhmsimyu7du9HR4cW6Fm8kEgmUlQ2+KObtt98edAVAc3MzmpuDsyzMtm1UVo7+5EN2uLdf0bHqvvCfrTZjloEZs/zXs7dt2zbfrczJdsTxzH1qJ4kKEvJrD0ztP+zfHw8DHKxqSjS69IohSEvL0un0kI3/cDKZTGAm0/FhP+6qqvX/79wNL/02i85WfzW0fvXiavUfIi1dHFaVHvZuTEQvFidOMFRO5gLALUE4LIiIUF5e7krOZDKJMWPG+L7o4cN+3GXEcgjJopAh9XRJvPS74O17UGy9bQns2qr+PUDX9G39v3dYKsk9AO9LlgskytT/4sLEz7PM+9b4u3nufV/Xul+LAD7sx31SOpg6Q/0nPq/ZSWDKyTw/ajhWqhPVU9TviKoJsb7/9w57V8o5GvcAHMCf/r3hx+7mvln8XmxcZJomqqqqfPkpmyf+eWPaKeonfHnJTgIXfcFGaZU/C1s/caSDEy9oVl4EkKDH+n/vsN/e+ExiE4CuoiTyubIaLgC84LfDggzDwNixYz3tmRhqHwFV+LAf75RUqU7gHW78R091EUBEKHOyv+z//cN+g+fUUxagjcWJ5W987K93MpmML3bPsyyraNv5CiF8s1cAEfGafw9ZsXBOjuPGP38qiwBL15uvWX7EYR/sB/ktyj97HSgIUi5uPckO1XdYkEqxWKzok/T65hmkUqmi3XMgpaWlvijAQkvk4NNpH3njxr9wqooAS9cGPOdn4N+kxO89TRMAukmIp3ls1EsqDwtKpVKoqKhQMv7dt+xO1VwIPuzHe1JKVNT4b85Hvrjxd4+KIkBo2v8N+P2BvikF1ngbx/+SFTTANknMbSomoZWUlCjvfQD2FyHl5eVFvScf9lM8E6aEowDgxt99xS4CdJ1+PtD3B/yN1n0rtRnATk8T+ZwZgVO9/KCYhwX1rfFX3f1+sEQigbFjxxatQfbzMsywSWSC32AaFuEfvxjjxt8DjnRw4oUtKKnydr6IICH3Lh7/mwF/NtA3CSSJsHagn0WFYXEBUCzFOCyo7yhfN9f4u8WyLFRVVQ152JAb+LCf4grD0cC93RKvvxjucw1U6m230LLD29eJaei760EDnoIw6DuOlFgD4CLPUhWoNfsOnt15m3c3aAJ++Ix3l2fB19TU5Ls9x1l0HF12BcYYZ3l+n/Wr9+/258d9/4Ms1xnHr5bEPT+gyNL1DYP9bNB+HUn+ngegkX/WUzPGWLHpongTOdev7n2/EGCFK1bjDwBCF48O+rPBflDSk1oHoNuTRC7QiMcxGWPRpaG4+0lwEeCOYjb+RADJ1P2D/XzQAuCC71E3CH/yJlbhdO4BYIxFmE7F302Ti4DCFLPxBwBb15sXLsnsGeznQ07tJGDAtYN+IMgADR2fMcZCS4eavRy4CMhPsRt/ADB07a9D/XzIFtQBnnc3jnsIBI14UgpjLJo0UreZExcBo6Oi8QcAQzd/MdTPhywAunO55wD4dg2ILvggE8ZY9BCR8onQhRYBuSzwytosenv8vZIm1xmHoPx7m1U1/kSErNE56Pg/MEwBcM1dpftAWOduLPfwREDGWBT5ZSfHfIuAXBZ4alk3fvtQD1b+dxdefr4XWZ91KDjdcax/tAxP3xvHhmcyeRUBqhp/ALB0veWWeybvGOoxw+88IuVqgE53LZWLdOIeAMZY9FABn0jdNtp9Avoa/7c3798Gt7NVYs0jvfjTM1kc+xEdx5ymKzuHhUigc18cLz1tYvc7H/w/3vqyBiCD6R9vhiNH1pqrbPwBwNK0Qdf/9xnB1mO0GsBXXcjjOu4BYIxFEcFfJzmOtAjo3/gfrLNNYv3qXvz5mV7UTBOYeoqBCUcLz3dlJSLIrIWmVyxsfF5Hb/fA9xtNEaC68QcA3TAG3P//kMcM94CqdOqFd1tamwFkXEnlIi4AGGNRpAl/FQDA8EXAUI3/wRwH2LrJwdZN3dB0oHqyhk9ca3lyvPKOLWls/J2JrvaRPX4kRYAfGn9BBK3LXjzs44Z7wDn1lCXgWXdiuYuHABhjUSTI23Mj8jXYnIBcFnj6x13DNv4DPW/bKzk4Hh2a9+oLxogb/z5bX9aw4ZmSAYdhsh0x5Y0/AMQM490bV5S3DPe4EdVUjqSnC4/kPu4BYIxFEfm0AAAOLwL6Gv+tmxS3ii7a+rLAy/2KgGxHDL9emlDe+AOAoWu/GsnjRlQA6HBWFxbHG6qXwTDGmAp+7QHo01cEhLHx73NwEeCnxh8ADJJ3j+RxI3oVXXpn5rXGhS1vADiyoFQu4+2AGWNRJAKwCdr61b149U85tOzySavoga0vC3S2lWD3NuGbxt/U9O75y2pHtIvvKKZVyKfyDeQVLgAYY1Gki2C894W58e+z8y3/NP4AYJvGkNv/HmzEBQBJ+Uh+cbzDcwAYY1EUhB4Apoapa40jfeyIC4Dm9syzAPbmlcgjXAAwxqJI8HsfGwCRkKIrtmSkjx9xAXDdYuoF8Mu8UnmEzwJgjEWRxkug2QDipr59JMv/+oxqawUiGnZnoWLSwFUwYyx6NARjDgArLks3fzaax4+qAEi0tj4JUMfoInmHlwEyxqJIEzHVEZjPEICEkb19NM8Z1WLSixZXdzQubHkawCdH8zyvBGUmLGOMuUmnaBUAb76UhaaP7EwALR4DaGRHDGd7/XGqohtiptl03eLaptE8Z9S7SUiJnxP5owDgHgDGWBQJRKsAeLahZxSPjnuWw89MXX90tM8Z9fEK3TL3KABfnNzMPQCMsSjSwZMA2QeICFJ3vjna5426ALjmrtJ9gPztaJ/nBZ4EyBiLIp0SqiMwH4mb+o5b7qt9c7TPy++ARSkeyut5LjN4GSBjLIJ0wQUA+4CpG4/n87y8CgANzk8BjGZQxhO8ERBjLIo07gFgBxAIuW76n3yem1cBcOmdmT0ErMrnuW4iaL4/FYsxxtymU1J1BOYTMdN879aGCa/m89z8hgAAOKCf5PtcN3EvAGMsavSIznRnh7NGsfd/f3kXAHo6+RiAPfk+3y06b4nJGIsQQQJEmuoYzAcEkSQt8/W8n5/vEy+tpx4Ao9p20AvcA8AYixKi8GxewwoTt6xXFi7J5P1BPO8CALTyqZ4AAB6xSURBVAAg8b8FPd8FXAAwxqKEqLC3bRYepmF8v5DnF/RKuuzO1PMARr320E08BMAYixLu/mcAoGtatmVJ9T2FXKOgAoBAUkI2FHKNQnEPAGMsSgQXAAxA3NDX1IOcQq5RcF+SniOlwwA6nwfAGIsQIQzVEZhiBMCyjdsKvU7BBcCl30lvBvC7Qq+TLy4AGGNRovHeJ5FnGUbL/MU1zxZ6HVdmkxDJH7lxnXzwEABjLEqIC4DIi5naCjeu40oBIFLpBwHscONao8VHAjPGokTwh55I04RwRCbzb25cy5UC4NJ66pGEH7txrdHiI4EZY1HCvZ7RljTNdTfdVbrPjWu5tqBUOs49AAqakZgPDVwAMMaigwuA6CIAhklfcet6rhUAc+8seQOgZ9y63khxDwBjLEoED3tGlm0auxbcN+lpt67n7pZSUha0KUE+eA4AYyxKuNczumzDcHXCvasFQFUm9RiA7W5eczjcA8AYixJN8O6nUWQIkWttm/A1N6/pagFwTj1lAXmfm9ccDo+HMcaihHsAoilmWc/VP0g9bl7T/VMldH0xAFdDDnk7HgJgjEWILhKqI7AiIwJMQyx0+7quFwB130y8A0Kj29cdDBcAjLEo0RBTHYEVWcIytyy4b8Jf3b6uJ+dKEtEdAKQX1+6PJwEyxqJEIy4AooQAmJp+qxfX9qQAuOyO1AYAT3lx7f54DgBjLEp0EVcdgRVRzDJ2Llw28VEvru1JAXDg0nd4d+0PcA8AYyxKNPAcgCixDet2r67tWQFQ9+3krwD6k1fX76ORCQJ5fRvGGPMFU0upjsCKxNL1zpal4+/06voe9gAAkM63PL0+AAJBIz4fmzEWDZrkIYCoiJvm0nqQZ1vse1oAVGXSPwXwlpf3AHhrTMZYdPAkwGjQNS3Xanoz+a+PpwXAOfWUBcnveHkPANB5IiBjLAKE8LbTlvlHwjJX1S+u7vDyHp6/muJaz30A9nh5D523xmSMRQARFwBRoAnhJG3rc17fx/NX0ye/OaYVkjybxAAAGrgHgDEWfoI01RFYESRs68nr76na4fV9ilJOat2ddwHY6dX1uQeAMRYF3AMQfroQMmNKzz/9A0UqAC69u7INhLu8uj5vBsQYiwJBuuoIzGNJy37yusW1TcW4V9HKSa2z67vwqBeAzwNgjEWBABcAYaYLIVOW89li3a9oBcCld1e2EeHbXlybdwNkjEWBEFwAhFnCtlYX69M/UMQCAAB6qON7AFyf2MBDAIyxKOD3uvDShZBpU15TzHsWtQC46o6qdklwfXdAnXgSIGMs/Ih3PQ2thGU8XcxP/0CRCwAAyFLHD+ByLwBXxYyxKOD3unDSNeEglruy6Pct9g2vuqOqveGmlm8SwbXTAnkSICsGy7JQUVGBWCwG27ZxyimnoL29HS0tLXjttdewd+9e1RFZyGmC3+vCKGlZjTffM8nzdf/9KZlRomdS38u1tF4P4Cg3rsdVMfNCMpnEsccei8mTJ6O2thaZTOaQn2/btg1Syve/FkKgo6MDW7duxbPPPoutW7cWOzILOQ1cAISNqek9baYxT8W9lRQAl9ZTT8Oi5q+QpAY3rqdzVcxcdPTRR+P000/HlClToGkj33nNcRzYto2pU6di6tSpyGazWLduHVatWgXH8exALxYh3AMQPolY7M5FHu/5PxhScVMAkJC0clHrGkicXui13ut6CX/Y+303YrEImzx5Mi688EJUV1eP6PH9ewCGsmbNGqxataqQeIxhYuZjmGRfqjoGc4ltaO3ZFZPTXh75OxRli0oJJBtyLYtIYA0KLER4CIAVIpFI4JOf/CROOOEEz+5xxhln4EMf+hCWLl2Kbdu2eXYfFm46HwUcKkk79pUFihp/QMEqgINdflf69wQ8Wuh1+CwAlq8jjjgC8+fP97Tx72OaJq6//nrMmjXL83uxcNJEXHUE5pK4Zb67YEmNpwflDUf5yRIihy8D6C3kGtwDwPJx0kknYd68eYdN7vOSlBIzZ87ElVcWfcUPCwHe8yQcCICt619QnUN5AXDpd9KbAfpRIdfgrYDZaJ122mmYM2cOhCj+n4CUEkcffTSuu+66ot+bBZtOCdURmAuSMeulhcsmFtz7XSjlBQAASJK3AWjO9/m8DwAbjRNOOAEXX3wxiJTNgQUATJw4EddcU9SdP1nAaeAhgKATJCT16v+kOgfgkwLg8m+ld5HEf+b7fB4CYCNVU1ODOXPmKG/8+0yZMgXnnHOO6hgsILgACL50zGq4tWHCq6pzAD4pAABgbCZ1JyT+ms9zNTJAGPl6bRZNtm1j7ty5o1rb7zUpJWbNmoVx48apjsICQKeU6gisAJaudba1T7xWdY4+vikAzqmnLIAvARjZwup+dMG9AGxo559/PsrKylTHOIzjOPjsZ4t2BDgLMF3wHICgIgBJO/4v9Q9Sj+osfXxTAABA3Z3p3wFYkc9zeSIgG0pNTQ0+/OEPq44xqFgshnPPPVd1DOZjRAShbusWVqCEZb1x09Lx31Od42C+KgAAQObEzQTsG+3zeCIgG8qsWbN8M+4/GC4A2FD8/vplgxNCyHjC/LTqHP35rgC4/DvJ9yDlV0b7PJ4IyAYzfvx4TJs2TXWMYRERFwFsUIL8M3eFjU7Ssn554z3j/6w6R3++KwAA4JVM+m4AL4zmOTwEwAZz2mmnqY4wYmeccYbqCMyniAuAQLJ0vavDMuaozjEQXxYA9fXkQDr/DGDEeyTzEAAbiK7rOP7441XHGLFYLIbS0lLVMZgPcQ9AMKVM68Z6Raf9DceXBQAA1N1Z8kdI3DfSx3MPABvIkUceCdsOzvapfVsFM9YfFwDBk4nZ6xcsn3Cv6hyD8W0BAACamb0VEm+P5LE6zwFgAzjqqKNURxi1KVOmqI7AfEiQoToCGwVD07IlhnOh6hxD8XUBcOntZc3Q5IgOTND4kAw2gAkTJqiOMGrFPJyIBYcQXAAESSpu/9fn7zvyPdU5huLrAgAA6u7I/BIS/zvc47gHgA1k7NixqiOMGhH5ardC5g8a9wAERsKy/rZwyYSvqs4xHN8XAADQJXM3Atg+1GN4GSDrzzRNJJNJ1TFGTUqJmpoa1TGYzwh+jwsEXQiZ0G1fd/33CUQBcM1dpfsk4UtDPYYnAbL+YrGY6gh542EA1h8XAMGQtO0f3bhs3EbVOUYiEAUAAFz+rfQjADUO9nNdcAHADmWawX3DTKX40Bd2KC4A/C9umk03L594veocIxWYAgAAerrlDQAGnFShgQsAdijHGfE2Er6Ty+VUR2A+o/NEZ1/TNOEkjdjHVecYjUAVAJ/5QXo3gHkD/Yx7AFh/3d3dqiPkraWlRXUE5jO80snf0rHY14PS9d8nUAUAANR9O/2LgYYCeA4A66+zszOwvQC7du1SHYH5DBcA/pW07E2Llk6oV51jtAJXAACAZvReD+DNg7/HPQCsv1wuh71796qOMWpEhB07dqiOwXxGgAsAPzJ0rbc0ho+pzpGPQBYAl95e1uxIeRmA3r7v8T4AbCBBbEh5/J8NRKe46ghsAGk7vui6xbVNqnPkI5AFAADMvTPzAkn6Rt/X3D3GBvLmm28O/yCfCWLRwrynU3CXtYZV2rZ/f9PS8d9TnSNfgS0AAOCVTPIbEngW4B4ANrDXXntNdYRRe/nll1VHYD6kU0J1BHYQyzDaE8n4LNU5ChHoAqC+nhxH168CsIcnAbKBbN++HTt37lQdY8SICL/73e9Ux2A+pHEB4BtCkEzZxgX/fHdlm+oshQh0AQAAV3wz/rYEzeOtgNlgXnzxRdURRmz37t3o7e0d/oEscngOgH+UxO07FiyZ+FvVOQoV+AIAAC7/dupnBLGUj8tkA1m7dm0gGlUiwuOPP646BvMpjYJ3rkUYpWz7LwuXTrpVdQ43hKIAAIBe0XGjJZK8eJodpq2tDevWrVMdY1htbW3YvHmz6hjMh4gIBk8CVM7S9U5TZGaqzuGW0BQAV91R1d6DljMB8BZq7DC/+tWv0NnZqTrGoIgIDzzwgOoYzNdC83YdSERCpk3rUzctL92nOotbQvWK+slPfrJZSjngVsEs2tra2vDUU0+pjjGobdu24fXXX1cdg/mUIE11hMgriZv3zF8+4UnVOdwUqgIAAFauXPmAlPL7qnMw/1m7di02bvTfVt1SSixZskR1DOZjRKF7qw6UlG1vWLSs9ouqc7gtlK+qdDq9UEq5RnUO5i9SSjz00EPYt88/PXhEhHvvvRc9PT2qozAfE4J7AFSxDaM1mYyfrjqHF0JZACxevLhX07TLAARnATgrivb2dixevBhtbeqX7xIRfvazn+Gtt95SHYX5nCBddYRI0jXhpFP22UFf7z+YUBYAALBixYq3pZR1ALKqszB/2b17N5YuXaq0CCAiPPXUU1i/fr2yDCw4eA5A8REBadv+3I33jP+z6ixeCfWrasOGDW9Onz69mYjOV52F+Utrays2bdqEY445BrFYfsurWlryW3BCRHjooYewdu3avJ7Posc0khhnB/LAucAqTcTvX7Rs4ldV5/BSqAsAANiwYcMfpk+fXk1EM1RnYf7S0dGBdevWoaKiAmPHjh318/MpAHK5HH74wx9iy5Yto34ui66YUYIqa6bqGJGRilkv3bK89hOqc3gttEMAB0un018C8BvVOZj/dHd3Y8WKFfjpT3/q6ZAAEWHz5s247bbbsH37ds/uw8JJE7zVebHYhtGaTCQ+ojpHMYS+BwAA1q9f7xx33HGPSylnE1Gp6jzMf5qamrBu3TpIKVFdXQ1dH37S1Uh6AIgIu3btwpIlS7BmzRpIKd2IyyImbo5BpRmJNkkpQ9OymZh56g2Lq99WnaUYSHWAYrrssstOEkI8L6XkUzXYoGzbxowZM3DyySejpqZm0Mdt27ZtyAb9zTffxC9+8Qvs2LHDi5gsQsYkp+PoxA2qY4SaICFLU/FLb7qv5iHVWYolUgUAAFx22WUXEtGjiEjvBytMSUkJjjrqKBxxxBGorKxEeXk5ksn9h7L0FQBCCORyObS3t2Pr1q144YUX8OqrrypOzsKkKnUypsSvUx0jtIgI5Un7ywuWTLpddZZiilwBAAB1dXULANypOgcLLsuysGfPHjQ3N6uOwiKgOnU6jopfrTpGaJXE4ytvXj6xTnWOYovEJMD+Ghsb7yKi76rOwYKru7s772WAjI2WrvFJgF5Jx+y1UWz8gYgWAAAwderUmwD8XHUOxhgbjgYuALyQsKztHUdMOkt1DlUiWwDU19c72Wx2rpSSd2NhjPmaBlt1hNCxDaO9LNtzYn09RXa32MgWAADw4IMPdhLRxQD4HFbGmG/pgnsA3GTqWm/ajJ96XeO0XaqzqBTpAgAAGhsb3yOiWQCaVGdhjLGBaEiojhAahqblMrZ57o3LxvnvbPAii3wBAAANDQ1vCCE+AWCv6iyMMdafoXEB4AZdCJmKxy+Zv3TS86qz+AEXAAesWLHiJSHEBQDaVWdhjLGDaeC9ywpFREglrOsXLhn/mOosfsEFwEFWrFixVghxGfgIYcaYj+giqTpCoBERSuOxryxaMulHqrP4CRcA/axYseJxAJ8DwJu2M8Z8QZc8BJAvAlASi921cNnEb6jO4jdcAAygsbHxx0T0eXARwBhTjIggiE8DzAcByMQT/7to+cSbVGfxIy4ABtHQ0LBESrlAdQ7GWLQRRXLHdlek4rFVNy+fcJXqHH7FBcAQVq5c+V0p5ULVORhj0UXEb9P5KInFn7h1+aQLVefwM35lDWPlypV3Aviq6hyMsWgSxAeXjlYmZq2++ccTL1Cdw++4ABiBxsbGrwH4T9U5GGPRQ1wAjEo6bj19y4+P+ITqHEHABcAINTY2/jsR3aY6B2MsWjTSVUcIjIwde+bW5UfMUp0jKLgAGIWGhoZ6Ivqy6hyMsegQwlAdIRDSsdivbrl/0nmqcwQJFwCj1NDQcLuU8hbVORhj0UDgHoDhZGLW6lt/POnjqnMEDRcAeVi5cuUdUsrrwfsEMMY8JngIYFAEIB23H+Ex//xwAZCnlStX3iOlvA6AozoLYyy8NN4EaEAEIJOIL7t1ee0lqrMEFRcABVi5cuW9RHQN+OwAxphHNGGpjuA7RIR0In7HzcsmXqs6S5BxAVCghoaG+4UQlwDoVJ2FMRY+GnEBcDBBhJK4/W+3LJvIc7EKxAWAC1asWPG4lPIcALtVZ2GMhQufA/ABIUhmkvYXFi2b9N+qs4QBFwAuWbly5R8AnA1gu+osjLHw0CimOoIv6JpwyhLpOXykr3u4AHBRY2Pjy47jnA3gDdVZGGPhoIGHACxN7y61zbMWLBn3oOosYcIFgMseeOCB1w3DOFVKuUZ1FsZY8Oki2j0Atmm0liYzx89fVvt/qrOEDRcAHrj//vt327b9cQA/VZ2FMRZsUR4CSFjW9rhVUfule8dsUZ0ljPiUCY+8+OKL2Q0bNvzs+OOPB4CZiuMwD7S1tamOwCKgMn4q4qJGdYyiS9n2X7qOqj32X++021VnCSvuAfCWPHB+wHXgvQIYY3nQZbR6AAhASSL+03+5v/bE+nri900PcQFQBA0NDYsBzAbAlSxjbFQ0kVAdoWiIhCxJxP/z5mUT56jOEgVcABRJY2PjIwA+AuBviqMwxgLEoJTqCEVhCJGrSMauWLRs4r+rzhIVXAAUUWNj418BfAjAc4qjMMYCQqO46giei1nmvkw88Xfzl0xoUJ0lSrgAKLLGxsZdTU1N50kpv686C2PM/3SEuwBI2vam3pg9fsHS8ZtVZ4kaPmdSgeeeey4L4IbLL7/8pQOFgKE6E2PMfwQJEIVzsRYRkInFf3zz8olXq84SVdwDoFBDQ8NiKeX5AHaqzsIY8x8S4XyL1jXhlMcT87nxVyucr64AWbly5a+y2exJAHiXK8bYISiEb9G2YbSWJFOnLVg24buqs0Rd+F5dAfTggw9ub2pqOltKebvqLIwx/yAKz1s0Yf/mPqWZVPWCe8etU52H8RwA3zgwL+DLdXV1fwGwGEBScSTGmGIiJOP/goRMx+27bl42caHqLOwD4SkvQ6KxsbFRCPFhAK+ozsIYU0tQ8D+jWYbRUZ6Jf4wbf//hAsCHVqxYsTGbzZ5MRDxGxliEaSLYC4SSlvVGwq6YMH9xzbOqs7DDkeoAbGh1dXX/BOBeAKWqs7BDNTU1QUqpOgYLsXRsHE5I16uOMWpCCJmJx76/aOmEG1VnYYPjHgCfa2xs/BkRnSSlXKM6C2OsuAQFrwfA0vW2yoR1Hjf+/heOGSYh99JLLzVXVFTcn06nJYCPgntufIGPA2Zei5tjUGmeoTrGiBAR0jF7bU/cPu7W+yZsUZ2HDY8bkoCpq6s7l4iWSSknqs4SdTwEwLw2JnEsjk7OVx1jWIYmsiWx+A3zl9bcozoLGzkeAgiYxsbGXxPRcVLKxaqzMMa8pWm26gjDSlrWG9UJvYYb/+DhHoAAmzNnzvlCiCUAxqnOEkXcA8C8Vp0+HUfFrlYdY0C6JpyUbd++aNnEf1OdheWHewAC7IEHHngim82eAODnqrMwxtynkaU6woCStrm1zE4dx41/sHEPQEjU1dVdAeAuAOWqs0QF9wAwr9WW/D0mWJeojvE+TdOcpG19+5ZlE29RnYUVjnsAQqKxsfEn2Wx2Ks8NYCw8dIqrjvC+hGm+nSD7aG78w4N7AELo8ssvvwDAD3mlgLe4B4B5bVrpXFSaH1WawdC0bNI2/2PRskn/rTQIcx33AIRQQ0PDKk3Tjj1wuqCjOg9jLD8qewAIQNK2N1WljInc+IcT9wCEXF1d3ZkA7gZwnOosYcM9AMxrx5fPR0Y/tuj3tXStMxkzbrxpSe19Rb85KxreCTDkNmzYsLWiouLedDq9B8BHAPhzWnEA8U6AzGvViXNhipKi3U8IkmnbfqS7+8hT/vUnpeuKdmOmBPcARMgVV1wxznGc26WUV4B/9wXjHgDmtQ+N+U/YosLz+xCAhGW9ETO1T85fMnGD5zdkvsCNQATV1dWdDeAHAP5OdZYg4wKAee2Msd+BgLe7AVq63pmIxW5euGT83Z7eiPkOTwKMoMbGxt+kUqmTiOg6ADtV52GMDczLxl8Ikpm4/XCNqZVx4x9N3AMQcbNnzy7TNO1WIroJgKk6T5BwDwDzEpHAmZU/dP+6ICRsa1Ncsz5947JxG12/AQsMLgAYAGDOnDlThRDfADBbdZag4AKAeUnTdHyk4geuXjNuWu/FbXHlgvsmPe3qhVkgcQHADjFnzpxZQog7wMsGh8UFAPOSoVs4rfy7rlzLMoz2pGX/601Lx3/PlQuyUOA5AOwQDzzwwOpp06adSESXSilfU52HsagiKnyVtiFEriyZWJxbcWSaG3/WH/cAsEHNmzfPaGtru0ZKWQ8+cvgw3APAvGSbKXyo9I68nqtrwklY5iNWb+qaG1eUt7gcjYUEFwBsWBdddFE8lUrdIKX8MoDi7Uric1wAMC/FrVLMKPmfUT1HE8JJWfZTQs9csXBJZo9H0VhIcAHARmz27Nlluq7PB3AjuBDgAoB5KmmPwUmZb4zosboQMm4av03F9bnX3zNhu8fRWEhwAcBG7dprr011dXV9UUp5K4Ay1XlU4QKAeSkTG4/j0/8x5GMECZm0jN9qSfPKRXeP31akaCwkuABgeZs9e3bSMIzPHhgaqFKdp9i4AGBeKk0cgenJLw/4M00TTtKwfp2Mi6v5Ez/LFxcArGCzZ89Oapr2BSKaD6BGdZ5i4QKAeak8MRXHJhcd8j1DE9m4aT6W7umed13jtF2KorGQ4AKAuebAqoGLDwwNnKI6j9e4AGBeGpOcjqMTNwA4sF+/bf1vqZOdf83yI7oUR2MhwQUA80RdXd2ZUsp/IaJ/UJ3FK1wAMC+NS52C6Zkvttim8d22ZRO+Wg9yVGdi4cIFAPPU5ZdfPkNKuQD7txi2VOdxExcAzCu2HfvbUZmPf//un978LdVZWHhxAcCK4sorr6zM5XLXSCmvBzBJdR43cAHA3KRpmmOa5guapn3pl7/85XrVeVj4cQHAimrmzJl6VVXVxUT0JQBnq85TCC4AmBsMw2g2TXNpR0fHvz333HM8vs+KhgsApszcuXOPcxzn8wCuAFCqOs9ocQHA8kVE0jTNDQD+Y/Xq1Y+ozsOiiQsAptz5559vlZaW/qOUch6AjyEgr0suANho6breYVnWwx0dHTc999xzvIyPKRWIN1oWHXPmzDmKiK4loqsBVKvOMxQuANhIaJqWNU3zD0T0tSeeeGK16jyM9eECgPlSfX292Lx580eklFcS0WUA0qoz9ccFABsMEcE0zbd1XV+eSCS+/uCDD/aozsRYf1wAMN+bPXt2TNf1iwDMBfD3AEzFkQBwAcAORUTQdf09wzAe7uzs/A/u4md+xwUAC5TZs2eXGYbxaSnlbAAzAeiqsnABwABA1/V9uq4/YRjGVx9//PFXVedhbKS4AGCBddVVV5X39vb+o5TyU0R0Hoq80RAXANF04JP+LtM0nwTw9VWrVm1RnYmxfHABwEJh7ty5acdxLgTwKQCfAJDy+p5cAEQHEUld19/Rdf3ReDz+3w8//PDbqjMxViguAFjozJ492zQM46MALpBSXghgqhf34QIg3DRN6zUMY6Ou641CiO899thjHaozMeYmLgBY6B1YWnihEOJCKeVZAGJuXJcLgHDp69rXNG0NEf3wySeffEp1Jsa8xAUAi5Srr77a7unpOR3AuVLKcwGcijwnEnIBEHyGYbTquv5XTdMecRxn8RNPPNGiOhNjxcIFAIu0a6+9NtXR0fFRIjoX+88mOAEjLAi4AAgewzDaNU3boGna47qu3/uLX/ziPdWZGFOFCwDGDnLllVcmstnsSUQ0Q0p5BoBzAZQP9FguAPztwMS9vbquvySE+J1t2/c9/PDDb6nOxZhfcAHA2BAO7Eh4DIDTiWiG4zgziOg4ADYXAP5xYPy+XdO0t4honRDi5x0dHb987rnnsqqzMeZXXAAwNkrz5s0zmpubj21paZkvpTw5m83W5nK5tOM4/PdUBAc+2bdqmrZVCLFO07SniOgxnqXP2OjwGxZj7qALLrjgBADnATgtl8sd4zjO+Gw2m+LCID9EJDVN69R1vYmINgshfg/g6VWrVv1BdTbGwoDfmBjz2AUXXHCi4zjnENGJUsrJUsrxuVyuXEoZz2azQnU+lYQQUgjRJYTYQ0TbhBCbNU1bn8vlfvPkk0/+VXU+xsKMCwDGFLrkkksqs9nsDADH53K5ablcrhZAteM4ZY7jpKSUZi6XC2SRoGmaQ0Q9RNSmaVqzlHKnpml/I6LNAP6s6/panoXPmDpcADDmc7Nnz9Y0TZvQ2tp6BBHVOo4znoiqpZRjpZTljuNkpJQJx3ESACwppQ7AAKBLKUlKqeGgv/UD3zvkHkQEIpL9vpcD4BBRloh6AeSEEB0AskKIVillMxHtIaJdRLRDSvmeEGJrLpd7raurayNPwGPM3/4/XNIHwVO4y+IAAAAASUVORK5CYII=;rotation=0;" vertex="1" parent="1">
          <mxGeometry x="360" y="-709" width="42" height="42" as="geometry" />
        </mxCell>
        <mxCell id="xJq50svPVDuNathHTJY8-65" style="edgeStyle=orthogonalEdgeStyle;rounded=0;orthogonalLoop=1;jettySize=auto;html=1;" edge="1" parent="1">
          <mxGeometry relative="1" as="geometry">
            <mxPoint x="565" y="-279.75" as="targetPoint" />
            <mxPoint x="745.7647058823532" y="-259.5000000000002" as="sourcePoint" />
            <Array as="points">
              <mxPoint x="746" y="-230" />
              <mxPoint x="565" y="-230" />
            </Array>
          </mxGeometry>
        </mxCell>
      </root>
    </mxGraphModel>
  </diagram>
</mxfile>
